%TF.GenerationSoftware,KiCad,Pcbnew,(5.1.10)-1*%
%TF.CreationDate,2021-06-24T21:47:08-07:00*%
%TF.ProjectId,6502helper,36353032-6865-46c7-9065-722e6b696361,rev?*%
%TF.SameCoordinates,Original*%
%TF.FileFunction,Copper,L2,Bot*%
%TF.FilePolarity,Positive*%
%FSLAX46Y46*%
G04 Gerber Fmt 4.6, Leading zero omitted, Abs format (unit mm)*
G04 Created by KiCad (PCBNEW (5.1.10)-1) date 2021-06-24 21:47:08*
%MOMM*%
%LPD*%
G01*
G04 APERTURE LIST*
%TA.AperFunction,ComponentPad*%
%ADD10O,1.600000X1.600000*%
%TD*%
%TA.AperFunction,ComponentPad*%
%ADD11R,1.600000X1.600000*%
%TD*%
%TA.AperFunction,ComponentPad*%
%ADD12O,2.000000X1.440000*%
%TD*%
%TA.AperFunction,ComponentPad*%
%ADD13R,2.000000X1.440000*%
%TD*%
%TA.AperFunction,ComponentPad*%
%ADD14C,1.600000*%
%TD*%
%TA.AperFunction,ComponentPad*%
%ADD15O,1.700000X1.700000*%
%TD*%
%TA.AperFunction,ComponentPad*%
%ADD16R,1.700000X1.700000*%
%TD*%
%TA.AperFunction,ComponentPad*%
%ADD17R,1.300000X1.300000*%
%TD*%
%TA.AperFunction,ComponentPad*%
%ADD18C,1.300000*%
%TD*%
%TA.AperFunction,ComponentPad*%
%ADD19C,2.000000*%
%TD*%
%TA.AperFunction,ComponentPad*%
%ADD20O,1.350000X1.350000*%
%TD*%
%TA.AperFunction,ComponentPad*%
%ADD21R,1.350000X1.350000*%
%TD*%
%TA.AperFunction,ComponentPad*%
%ADD22C,3.000000*%
%TD*%
%TA.AperFunction,ComponentPad*%
%ADD23R,3.000000X3.000000*%
%TD*%
%TA.AperFunction,ViaPad*%
%ADD24C,0.800000*%
%TD*%
%TA.AperFunction,Conductor*%
%ADD25C,0.250000*%
%TD*%
G04 APERTURE END LIST*
D10*
%TO.P,U7,40*%
%TO.N,IO28*%
X114300000Y-91440000D03*
%TO.P,U7,20*%
%TO.N,+5V*%
X162560000Y-106680000D03*
%TO.P,U7,39*%
%TO.N,IO29*%
X116840000Y-91440000D03*
%TO.P,U7,19*%
%TO.N,IO39*%
X160020000Y-106680000D03*
%TO.P,U7,38*%
%TO.N,/A0*%
X119380000Y-91440000D03*
%TO.P,U7,18*%
%TO.N,IO38*%
X157480000Y-106680000D03*
%TO.P,U7,37*%
%TO.N,/A1*%
X121920000Y-91440000D03*
%TO.P,U7,17*%
%TO.N,IO37*%
X154940000Y-106680000D03*
%TO.P,U7,36*%
%TO.N,/A2*%
X124460000Y-91440000D03*
%TO.P,U7,16*%
%TO.N,IO36*%
X152400000Y-106680000D03*
%TO.P,U7,35*%
%TO.N,/A3*%
X127000000Y-91440000D03*
%TO.P,U7,15*%
%TO.N,IO35*%
X149860000Y-106680000D03*
%TO.P,U7,34*%
%TO.N,~RESET~*%
X129540000Y-91440000D03*
%TO.P,U7,14*%
%TO.N,IO34*%
X147320000Y-106680000D03*
%TO.P,U7,33*%
%TO.N,/D0*%
X132080000Y-91440000D03*
%TO.P,U7,13*%
%TO.N,IO33*%
X144780000Y-106680000D03*
%TO.P,U7,32*%
%TO.N,/D1*%
X134620000Y-91440000D03*
%TO.P,U7,12*%
%TO.N,IO32*%
X142240000Y-106680000D03*
%TO.P,U7,31*%
%TO.N,/D2*%
X137160000Y-91440000D03*
%TO.P,U7,11*%
%TO.N,IO31*%
X139700000Y-106680000D03*
%TO.P,U7,30*%
%TO.N,/D3*%
X139700000Y-91440000D03*
%TO.P,U7,10*%
%TO.N,IO30*%
X137160000Y-106680000D03*
%TO.P,U7,29*%
%TO.N,/D4*%
X142240000Y-91440000D03*
%TO.P,U7,9*%
%TO.N,IO27*%
X134620000Y-106680000D03*
%TO.P,U7,28*%
%TO.N,/D5*%
X144780000Y-91440000D03*
%TO.P,U7,8*%
%TO.N,IO26*%
X132080000Y-106680000D03*
%TO.P,U7,27*%
%TO.N,/D6*%
X147320000Y-91440000D03*
%TO.P,U7,7*%
%TO.N,IO25*%
X129540000Y-106680000D03*
%TO.P,U7,26*%
%TO.N,/D7*%
X149860000Y-91440000D03*
%TO.P,U7,6*%
%TO.N,IO24*%
X127000000Y-106680000D03*
%TO.P,U7,25*%
%TO.N,CLK*%
X152400000Y-91440000D03*
%TO.P,U7,5*%
%TO.N,IO23*%
X124460000Y-106680000D03*
%TO.P,U7,24*%
%TO.N,/~IOSEL~*%
X154940000Y-91440000D03*
%TO.P,U7,4*%
%TO.N,IO22*%
X121920000Y-106680000D03*
%TO.P,U7,23*%
%TO.N,/A12*%
X157480000Y-91440000D03*
%TO.P,U7,3*%
%TO.N,IO21*%
X119380000Y-106680000D03*
%TO.P,U7,22*%
%TO.N,R~W~*%
X160020000Y-91440000D03*
%TO.P,U7,2*%
%TO.N,IO20*%
X116840000Y-106680000D03*
%TO.P,U7,21*%
%TO.N,~NMI~*%
X162560000Y-91440000D03*
D11*
%TO.P,U7,1*%
%TO.N,GND*%
X114300000Y-106680000D03*
%TD*%
D12*
%TO.P,U3,15*%
%TO.N,/D3*%
X171400000Y-74420000D03*
%TO.P,U3,14*%
%TO.N,GND*%
X156160000Y-74420000D03*
%TO.P,U3,16*%
%TO.N,/D4*%
X171400000Y-71880000D03*
%TO.P,U3,13*%
%TO.N,/D2*%
X156160000Y-71880000D03*
%TO.P,U3,17*%
%TO.N,/D5*%
X171400000Y-69340000D03*
%TO.P,U3,12*%
%TO.N,/D1*%
X156160000Y-69340000D03*
%TO.P,U3,18*%
%TO.N,/D6*%
X171400000Y-66800000D03*
%TO.P,U3,11*%
%TO.N,/D0*%
X156160000Y-66800000D03*
%TO.P,U3,19*%
%TO.N,/D7*%
X171400000Y-64260000D03*
%TO.P,U3,10*%
%TO.N,/A0*%
X156160000Y-64260000D03*
%TO.P,U3,20*%
%TO.N,/~ROMSEL~*%
X171400000Y-61720000D03*
%TO.P,U3,9*%
%TO.N,/A1*%
X156160000Y-61720000D03*
%TO.P,U3,21*%
%TO.N,/A10*%
X171400000Y-59180000D03*
%TO.P,U3,8*%
%TO.N,/A2*%
X156160000Y-59180000D03*
%TO.P,U3,22*%
%TO.N,GND*%
X171400000Y-56640000D03*
%TO.P,U3,7*%
%TO.N,/A3*%
X156160000Y-56640000D03*
%TO.P,U3,23*%
%TO.N,/A11*%
X171400000Y-54100000D03*
%TO.P,U3,6*%
%TO.N,/A4*%
X156160000Y-54100000D03*
%TO.P,U3,24*%
%TO.N,/A9*%
X171400000Y-51560000D03*
%TO.P,U3,5*%
%TO.N,/A5*%
X156160000Y-51560000D03*
%TO.P,U3,25*%
%TO.N,/A8*%
X171400000Y-49020000D03*
%TO.P,U3,4*%
%TO.N,/A6*%
X156160000Y-49020000D03*
%TO.P,U3,26*%
%TO.N,/A13*%
X171400000Y-46480000D03*
%TO.P,U3,3*%
%TO.N,/A7*%
X156160000Y-46480000D03*
%TO.P,U3,27*%
%TO.N,+5V*%
X171400000Y-43940000D03*
%TO.P,U3,2*%
%TO.N,/A12*%
X156160000Y-43940000D03*
%TO.P,U3,28*%
%TO.N,+5V*%
X171400000Y-41400000D03*
D13*
%TO.P,U3,1*%
%TO.N,/A14*%
X156160000Y-41400000D03*
%TD*%
D10*
%TO.P,R4,2*%
%TO.N,~IRQ~*%
X95250000Y-97790000D03*
D14*
%TO.P,R4,1*%
%TO.N,+5V*%
X85090000Y-97790000D03*
%TD*%
D10*
%TO.P,R3,2*%
%TO.N,~NMI~*%
X95250000Y-102870000D03*
D14*
%TO.P,R3,1*%
%TO.N,+5V*%
X85090000Y-102870000D03*
%TD*%
D15*
%TO.P,J5,20*%
%TO.N,IO39*%
X163830000Y-111760000D03*
%TO.P,J5,19*%
%TO.N,IO38*%
X161290000Y-111760000D03*
%TO.P,J5,18*%
%TO.N,IO37*%
X158750000Y-111760000D03*
%TO.P,J5,17*%
%TO.N,IO36*%
X156210000Y-111760000D03*
%TO.P,J5,16*%
%TO.N,IO35*%
X153670000Y-111760000D03*
%TO.P,J5,15*%
%TO.N,IO34*%
X151130000Y-111760000D03*
%TO.P,J5,14*%
%TO.N,IO33*%
X148590000Y-111760000D03*
%TO.P,J5,13*%
%TO.N,IO32*%
X146050000Y-111760000D03*
%TO.P,J5,12*%
%TO.N,IO31*%
X143510000Y-111760000D03*
%TO.P,J5,11*%
%TO.N,IO30*%
X140970000Y-111760000D03*
%TO.P,J5,10*%
%TO.N,IO29*%
X138430000Y-111760000D03*
%TO.P,J5,9*%
%TO.N,IO28*%
X135890000Y-111760000D03*
%TO.P,J5,8*%
%TO.N,IO27*%
X133350000Y-111760000D03*
%TO.P,J5,7*%
%TO.N,IO26*%
X130810000Y-111760000D03*
%TO.P,J5,6*%
%TO.N,IO25*%
X128270000Y-111760000D03*
%TO.P,J5,5*%
%TO.N,IO24*%
X125730000Y-111760000D03*
%TO.P,J5,4*%
%TO.N,IO23*%
X123190000Y-111760000D03*
%TO.P,J5,3*%
%TO.N,IO22*%
X120650000Y-111760000D03*
%TO.P,J5,2*%
%TO.N,IO21*%
X118110000Y-111760000D03*
D16*
%TO.P,J5,1*%
%TO.N,IO20*%
X115570000Y-111760000D03*
%TD*%
D14*
%TO.P,C4,2*%
%TO.N,GND*%
X81240000Y-111760000D03*
D11*
%TO.P,C4,1*%
%TO.N,+5V*%
X78740000Y-111760000D03*
%TD*%
D14*
%TO.P,X1,7*%
%TO.N,GND*%
X185420000Y-96520000D03*
%TO.P,X1,8*%
%TO.N,CLK*%
X177800000Y-96520000D03*
%TO.P,X1,14*%
%TO.N,+5V*%
X177800000Y-111760000D03*
D11*
%TO.P,X1,1*%
%TO.N,N/C*%
X185420000Y-111760000D03*
%TD*%
D10*
%TO.P,U6,40*%
%TO.N,IO8*%
X103070000Y-36320000D03*
%TO.P,U6,20*%
%TO.N,+5V*%
X87830000Y-84580000D03*
%TO.P,U6,39*%
%TO.N,IO9*%
X103070000Y-38860000D03*
%TO.P,U6,19*%
%TO.N,IO19*%
X87830000Y-82040000D03*
%TO.P,U6,38*%
%TO.N,/A0*%
X103070000Y-41400000D03*
%TO.P,U6,18*%
%TO.N,IO18*%
X87830000Y-79500000D03*
%TO.P,U6,37*%
%TO.N,/A1*%
X103070000Y-43940000D03*
%TO.P,U6,17*%
%TO.N,IO17*%
X87830000Y-76960000D03*
%TO.P,U6,36*%
%TO.N,/A2*%
X103070000Y-46480000D03*
%TO.P,U6,16*%
%TO.N,IO16*%
X87830000Y-74420000D03*
%TO.P,U6,35*%
%TO.N,/A3*%
X103070000Y-49020000D03*
%TO.P,U6,15*%
%TO.N,IO15*%
X87830000Y-71880000D03*
%TO.P,U6,34*%
%TO.N,~RESET~*%
X103070000Y-51560000D03*
%TO.P,U6,14*%
%TO.N,IO14*%
X87830000Y-69340000D03*
%TO.P,U6,33*%
%TO.N,/D0*%
X103070000Y-54100000D03*
%TO.P,U6,13*%
%TO.N,IO13*%
X87830000Y-66800000D03*
%TO.P,U6,32*%
%TO.N,/D1*%
X103070000Y-56640000D03*
%TO.P,U6,12*%
%TO.N,IO12*%
X87830000Y-64260000D03*
%TO.P,U6,31*%
%TO.N,/D2*%
X103070000Y-59180000D03*
%TO.P,U6,11*%
%TO.N,IO11*%
X87830000Y-61720000D03*
%TO.P,U6,30*%
%TO.N,/D3*%
X103070000Y-61720000D03*
%TO.P,U6,10*%
%TO.N,IO10*%
X87830000Y-59180000D03*
%TO.P,U6,29*%
%TO.N,/D4*%
X103070000Y-64260000D03*
%TO.P,U6,9*%
%TO.N,IO7*%
X87830000Y-56640000D03*
%TO.P,U6,28*%
%TO.N,/D5*%
X103070000Y-66800000D03*
%TO.P,U6,8*%
%TO.N,IO6*%
X87830000Y-54100000D03*
%TO.P,U6,27*%
%TO.N,/D6*%
X103070000Y-69340000D03*
%TO.P,U6,7*%
%TO.N,IO5*%
X87830000Y-51560000D03*
%TO.P,U6,26*%
%TO.N,/D7*%
X103070000Y-71880000D03*
%TO.P,U6,6*%
%TO.N,IO4*%
X87830000Y-49020000D03*
%TO.P,U6,25*%
%TO.N,CLK*%
X103070000Y-74420000D03*
%TO.P,U6,5*%
%TO.N,IO3*%
X87830000Y-46480000D03*
%TO.P,U6,24*%
%TO.N,/~IOSEL~*%
X103070000Y-76960000D03*
%TO.P,U6,4*%
%TO.N,IO2*%
X87830000Y-43940000D03*
%TO.P,U6,23*%
%TO.N,/A13*%
X103070000Y-79500000D03*
%TO.P,U6,3*%
%TO.N,IO1*%
X87830000Y-41400000D03*
%TO.P,U6,22*%
%TO.N,R~W~*%
X103070000Y-82040000D03*
%TO.P,U6,2*%
%TO.N,IO0*%
X87830000Y-38860000D03*
%TO.P,U6,21*%
%TO.N,~IRQ~*%
X103070000Y-84580000D03*
D11*
%TO.P,U6,1*%
%TO.N,GND*%
X87830000Y-36320000D03*
%TD*%
D10*
%TO.P,U5,28*%
%TO.N,+5V*%
X143140000Y-37590000D03*
%TO.P,U5,14*%
%TO.N,GND*%
X135520000Y-70610000D03*
%TO.P,U5,27*%
%TO.N,R~W~*%
X143140000Y-40130000D03*
%TO.P,U5,13*%
%TO.N,/D2*%
X135520000Y-68070000D03*
%TO.P,U5,26*%
%TO.N,/A4*%
X143140000Y-42670000D03*
%TO.P,U5,12*%
%TO.N,/D1*%
X135520000Y-65530000D03*
%TO.P,U5,25*%
%TO.N,/A3*%
X143140000Y-45210000D03*
%TO.P,U5,11*%
%TO.N,/D0*%
X135520000Y-62990000D03*
%TO.P,U5,24*%
%TO.N,/A2*%
X143140000Y-47750000D03*
%TO.P,U5,10*%
%TO.N,/A14*%
X135520000Y-60450000D03*
%TO.P,U5,23*%
%TO.N,/A1*%
X143140000Y-50290000D03*
%TO.P,U5,9*%
%TO.N,/A13*%
X135520000Y-57910000D03*
%TO.P,U5,22*%
%TO.N,/A14*%
X143140000Y-52830000D03*
%TO.P,U5,8*%
%TO.N,/A12*%
X135520000Y-55370000D03*
%TO.P,U5,21*%
%TO.N,/A0*%
X143140000Y-55370000D03*
%TO.P,U5,7*%
%TO.N,/A11*%
X135520000Y-52830000D03*
%TO.P,U5,20*%
%TO.N,/~RAMSEL~*%
X143140000Y-57910000D03*
%TO.P,U5,6*%
%TO.N,/A10*%
X135520000Y-50290000D03*
%TO.P,U5,19*%
%TO.N,/D7*%
X143140000Y-60450000D03*
%TO.P,U5,5*%
%TO.N,/A9*%
X135520000Y-47750000D03*
%TO.P,U5,18*%
%TO.N,/D6*%
X143140000Y-62990000D03*
%TO.P,U5,4*%
%TO.N,/A8*%
X135520000Y-45210000D03*
%TO.P,U5,17*%
%TO.N,/D5*%
X143140000Y-65530000D03*
%TO.P,U5,3*%
%TO.N,/A7*%
X135520000Y-42670000D03*
%TO.P,U5,16*%
%TO.N,/D4*%
X143140000Y-68070000D03*
%TO.P,U5,2*%
%TO.N,/A6*%
X135520000Y-40130000D03*
%TO.P,U5,15*%
%TO.N,/D3*%
X143140000Y-70610000D03*
D11*
%TO.P,U5,1*%
%TO.N,/A5*%
X135520000Y-37590000D03*
%TD*%
D17*
%TO.P,U4,1*%
%TO.N,~RESET~*%
X106680000Y-91440000D03*
D18*
%TO.P,U4,3*%
%TO.N,GND*%
X109220000Y-91440000D03*
%TO.P,U4,2*%
%TO.N,+5V*%
X107950000Y-90170000D03*
%TD*%
D10*
%TO.P,U2,14*%
%TO.N,+5V*%
X185420000Y-40640000D03*
%TO.P,U2,7*%
%TO.N,GND*%
X177800000Y-55880000D03*
%TO.P,U2,13*%
%TO.N,N/C*%
X185420000Y-43180000D03*
%TO.P,U2,6*%
%TO.N,/~RAMSEL~*%
X177800000Y-53340000D03*
%TO.P,U2,12*%
%TO.N,N/C*%
X185420000Y-45720000D03*
%TO.P,U2,5*%
%TO.N,CLK*%
X177800000Y-50800000D03*
%TO.P,U2,11*%
%TO.N,N/C*%
X185420000Y-48260000D03*
%TO.P,U2,4*%
%TO.N,/~ROMSEL~*%
X177800000Y-48260000D03*
%TO.P,U2,10*%
%TO.N,/A14*%
X185420000Y-50800000D03*
%TO.P,U2,3*%
%TO.N,/~ROMSEL~*%
X177800000Y-45720000D03*
%TO.P,U2,9*%
X185420000Y-53340000D03*
%TO.P,U2,2*%
%TO.N,/A15*%
X177800000Y-43180000D03*
%TO.P,U2,8*%
%TO.N,/~IOSEL~*%
X185420000Y-55880000D03*
D11*
%TO.P,U2,1*%
%TO.N,/A15*%
X177800000Y-40640000D03*
%TD*%
D10*
%TO.P,U1,40*%
%TO.N,~RESET~*%
X127550000Y-36320000D03*
%TO.P,U1,20*%
%TO.N,/A11*%
X112310000Y-84580000D03*
%TO.P,U1,39*%
%TO.N,N/C*%
X127550000Y-38860000D03*
%TO.P,U1,19*%
%TO.N,/A10*%
X112310000Y-82040000D03*
%TO.P,U1,38*%
%TO.N,+5V*%
X127550000Y-41400000D03*
%TO.P,U1,18*%
%TO.N,/A9*%
X112310000Y-79500000D03*
%TO.P,U1,37*%
%TO.N,CLK*%
X127550000Y-43940000D03*
%TO.P,U1,17*%
%TO.N,/A8*%
X112310000Y-76960000D03*
%TO.P,U1,36*%
%TO.N,Net-(R2-Pad1)*%
X127550000Y-46480000D03*
%TO.P,U1,16*%
%TO.N,/A7*%
X112310000Y-74420000D03*
%TO.P,U1,35*%
%TO.N,N/C*%
X127550000Y-49020000D03*
%TO.P,U1,15*%
%TO.N,/A6*%
X112310000Y-71880000D03*
%TO.P,U1,34*%
%TO.N,R~W~*%
X127550000Y-51560000D03*
%TO.P,U1,14*%
%TO.N,/A5*%
X112310000Y-69340000D03*
%TO.P,U1,33*%
%TO.N,/D0*%
X127550000Y-54100000D03*
%TO.P,U1,13*%
%TO.N,/A4*%
X112310000Y-66800000D03*
%TO.P,U1,32*%
%TO.N,/D1*%
X127550000Y-56640000D03*
%TO.P,U1,12*%
%TO.N,/A3*%
X112310000Y-64260000D03*
%TO.P,U1,31*%
%TO.N,/D2*%
X127550000Y-59180000D03*
%TO.P,U1,11*%
%TO.N,/A2*%
X112310000Y-61720000D03*
%TO.P,U1,30*%
%TO.N,/D3*%
X127550000Y-61720000D03*
%TO.P,U1,10*%
%TO.N,/A1*%
X112310000Y-59180000D03*
%TO.P,U1,29*%
%TO.N,/D4*%
X127550000Y-64260000D03*
%TO.P,U1,9*%
%TO.N,/A0*%
X112310000Y-56640000D03*
%TO.P,U1,28*%
%TO.N,/D5*%
X127550000Y-66800000D03*
%TO.P,U1,8*%
%TO.N,+5V*%
X112310000Y-54100000D03*
%TO.P,U1,27*%
%TO.N,/D6*%
X127550000Y-69340000D03*
%TO.P,U1,7*%
%TO.N,Sync*%
X112310000Y-51560000D03*
%TO.P,U1,26*%
%TO.N,/D7*%
X127550000Y-71880000D03*
%TO.P,U1,6*%
%TO.N,~NMI~*%
X112310000Y-49020000D03*
%TO.P,U1,25*%
%TO.N,/A15*%
X127550000Y-74420000D03*
%TO.P,U1,5*%
%TO.N,N/C*%
X112310000Y-46480000D03*
%TO.P,U1,24*%
%TO.N,/A14*%
X127550000Y-76960000D03*
%TO.P,U1,4*%
%TO.N,~IRQ~*%
X112310000Y-43940000D03*
%TO.P,U1,23*%
%TO.N,/A13*%
X127550000Y-79500000D03*
%TO.P,U1,3*%
%TO.N,N/C*%
X112310000Y-41400000D03*
%TO.P,U1,22*%
%TO.N,/A12*%
X127550000Y-82040000D03*
%TO.P,U1,2*%
%TO.N,Net-(R1-Pad1)*%
X112310000Y-38860000D03*
%TO.P,U1,21*%
%TO.N,GND*%
X127550000Y-84580000D03*
D11*
%TO.P,U1,1*%
%TO.N,N/C*%
X112310000Y-36320000D03*
%TD*%
D19*
%TO.P,SW1,1*%
%TO.N,~RESET~*%
X82700000Y-87630000D03*
%TO.P,SW1,2*%
%TO.N,GND*%
X82700000Y-92130000D03*
%TO.P,SW1,1*%
%TO.N,~RESET~*%
X76200000Y-87630000D03*
%TO.P,SW1,2*%
%TO.N,GND*%
X76200000Y-92130000D03*
%TD*%
D10*
%TO.P,R2,2*%
%TO.N,+5V*%
X95250000Y-107950000D03*
D14*
%TO.P,R2,1*%
%TO.N,Net-(R2-Pad1)*%
X85090000Y-107950000D03*
%TD*%
D10*
%TO.P,R1,2*%
%TO.N,+5V*%
X95250000Y-113030000D03*
D14*
%TO.P,R1,1*%
%TO.N,Net-(R1-Pad1)*%
X85090000Y-113030000D03*
%TD*%
D20*
%TO.P,J4,6*%
%TO.N,~RESET~*%
X102870000Y-112870000D03*
%TO.P,J4,5*%
%TO.N,~NMI~*%
X102870000Y-110870000D03*
%TO.P,J4,4*%
%TO.N,~IRQ~*%
X102870000Y-108870000D03*
%TO.P,J4,3*%
%TO.N,Sync*%
X102870000Y-106870000D03*
%TO.P,J4,2*%
%TO.N,R~W~*%
X102870000Y-104870000D03*
D21*
%TO.P,J4,1*%
%TO.N,CLK*%
X102870000Y-102870000D03*
%TD*%
D22*
%TO.P,J3,2*%
%TO.N,GND*%
X69850000Y-101600000D03*
D23*
%TO.P,J3,1*%
%TO.N,+5V*%
X69850000Y-106680000D03*
%TD*%
D15*
%TO.P,J2,14*%
%TO.N,+5V*%
X68580000Y-57150000D03*
%TO.P,J2,13*%
%TO.N,GND*%
X71120000Y-57150000D03*
%TO.P,J2,12*%
%TO.N,IO9*%
X68580000Y-54610000D03*
%TO.P,J2,11*%
%TO.N,IO8*%
X71120000Y-54610000D03*
%TO.P,J2,10*%
%TO.N,IO7*%
X68580000Y-52070000D03*
%TO.P,J2,9*%
%TO.N,IO6*%
X71120000Y-52070000D03*
%TO.P,J2,8*%
%TO.N,IO5*%
X68580000Y-49530000D03*
%TO.P,J2,7*%
%TO.N,IO4*%
X71120000Y-49530000D03*
%TO.P,J2,6*%
%TO.N,IO3*%
X68580000Y-46990000D03*
%TO.P,J2,5*%
%TO.N,IO2*%
X71120000Y-46990000D03*
%TO.P,J2,4*%
%TO.N,IO1*%
X68580000Y-44450000D03*
%TO.P,J2,3*%
%TO.N,IO0*%
X71120000Y-44450000D03*
%TO.P,J2,2*%
%TO.N,GND*%
X68580000Y-41910000D03*
D16*
%TO.P,J2,1*%
%TO.N,+5V*%
X71120000Y-41910000D03*
%TD*%
D15*
%TO.P,J1,14*%
%TO.N,GND*%
X68580000Y-81280000D03*
%TO.P,J1,13*%
%TO.N,+5V*%
X71120000Y-81280000D03*
%TO.P,J1,12*%
%TO.N,IO19*%
X68580000Y-78740000D03*
%TO.P,J1,11*%
%TO.N,IO18*%
X71120000Y-78740000D03*
%TO.P,J1,10*%
%TO.N,IO17*%
X68580000Y-76200000D03*
%TO.P,J1,9*%
%TO.N,IO16*%
X71120000Y-76200000D03*
%TO.P,J1,8*%
%TO.N,IO15*%
X68580000Y-73660000D03*
%TO.P,J1,7*%
%TO.N,IO14*%
X71120000Y-73660000D03*
%TO.P,J1,6*%
%TO.N,IO13*%
X68580000Y-71120000D03*
%TO.P,J1,5*%
%TO.N,IO12*%
X71120000Y-71120000D03*
%TO.P,J1,4*%
%TO.N,IO11*%
X68580000Y-68580000D03*
%TO.P,J1,3*%
%TO.N,IO10*%
X71120000Y-68580000D03*
%TO.P,J1,2*%
%TO.N,GND*%
X68580000Y-66040000D03*
D16*
%TO.P,J1,1*%
%TO.N,+5V*%
X71120000Y-66040000D03*
%TD*%
D14*
%TO.P,C10,2*%
%TO.N,GND*%
X184110000Y-33020000D03*
D11*
%TO.P,C10,1*%
%TO.N,+5V*%
X181610000Y-33020000D03*
%TD*%
D14*
%TO.P,C9,2*%
%TO.N,GND*%
X138390000Y-33020000D03*
D11*
%TO.P,C9,1*%
%TO.N,+5V*%
X135890000Y-33020000D03*
%TD*%
D14*
%TO.P,C8,2*%
%TO.N,GND*%
X77430000Y-62230000D03*
D11*
%TO.P,C8,1*%
%TO.N,+5V*%
X74930000Y-62230000D03*
%TD*%
D14*
%TO.P,C7,2*%
%TO.N,GND*%
X71080000Y-34290000D03*
D11*
%TO.P,C7,1*%
%TO.N,+5V*%
X68580000Y-34290000D03*
%TD*%
D14*
%TO.P,C6,2*%
%TO.N,GND*%
X115570000Y-31750000D03*
D11*
%TO.P,C6,1*%
%TO.N,+5V*%
X113070000Y-31750000D03*
%TD*%
D14*
%TO.P,C5,2*%
%TO.N,GND*%
X91400000Y-30480000D03*
D11*
%TO.P,C5,1*%
%TO.N,+5V*%
X88900000Y-30480000D03*
%TD*%
D14*
%TO.P,C3,2*%
%TO.N,GND*%
X181570000Y-62230000D03*
D11*
%TO.P,C3,1*%
%TO.N,+5V*%
X179070000Y-62230000D03*
%TD*%
D14*
%TO.P,C2,2*%
%TO.N,GND*%
X172720000Y-110490000D03*
D11*
%TO.P,C2,1*%
%TO.N,+5V*%
X170220000Y-110490000D03*
%TD*%
D14*
%TO.P,C1,2*%
%TO.N,GND*%
X71080000Y-88900000D03*
D11*
%TO.P,C1,1*%
%TO.N,+5V*%
X68580000Y-88900000D03*
%TD*%
D24*
%TO.N,GND*%
X131393900Y-74111300D03*
%TO.N,R~W~*%
X111271400Y-80900600D03*
%TO.N,/A10*%
X150405400Y-58134700D03*
%TO.N,/A6*%
X146130100Y-38990100D03*
%TO.N,/D0*%
X140091100Y-56231300D03*
%TO.N,/D1*%
X124062000Y-67934000D03*
%TO.N,/A3*%
X137173600Y-49156700D03*
%TO.N,/D2*%
X137189900Y-61448300D03*
%TO.N,/A2*%
X115872200Y-45354700D03*
%TO.N,/D3*%
X125827800Y-73123300D03*
X143140000Y-75287000D03*
%TO.N,/A1*%
X114589000Y-47655100D03*
%TO.N,/D6*%
X139748700Y-66943900D03*
%TO.N,/D7*%
X136675200Y-69075900D03*
%TO.N,/A13*%
X158166600Y-76443000D03*
%TD*%
D25*
%TO.N,GND*%
X68580000Y-66040000D02*
X68580000Y-67215300D01*
X68580000Y-81280000D02*
X68580000Y-80104700D01*
X68580000Y-80104700D02*
X68212700Y-80104700D01*
X68212700Y-80104700D02*
X67404700Y-79296700D01*
X67404700Y-79296700D02*
X67404700Y-68023200D01*
X67404700Y-68023200D02*
X68212600Y-67215300D01*
X68212600Y-67215300D02*
X68580000Y-67215300D01*
X127550000Y-83454700D02*
X127831300Y-83454700D01*
X127831300Y-83454700D02*
X131393900Y-79892100D01*
X131393900Y-79892100D02*
X131393900Y-74111300D01*
X127550000Y-84580000D02*
X127550000Y-83454700D01*
X177800000Y-55880000D02*
X177800000Y-54754700D01*
X184110000Y-33020000D02*
X184110000Y-48726000D01*
X184110000Y-48726000D02*
X178081300Y-54754700D01*
X178081300Y-54754700D02*
X177800000Y-54754700D01*
X181570000Y-62230000D02*
X181570000Y-60775300D01*
X181570000Y-60775300D02*
X177800000Y-57005300D01*
X185420000Y-96520000D02*
X181570000Y-92670000D01*
X181570000Y-92670000D02*
X181570000Y-62230000D01*
X177800000Y-55880000D02*
X177800000Y-57005300D01*
X74310000Y-92130000D02*
X76200000Y-92130000D01*
X71080000Y-88900000D02*
X74310000Y-92130000D01*
X74310000Y-92130000D02*
X71080000Y-95360000D01*
X71080000Y-95360000D02*
X71080000Y-101600000D01*
X71080000Y-101600000D02*
X69850000Y-101600000D01*
X81240000Y-111760000D02*
X71080000Y-101600000D01*
X172720000Y-110490000D02*
X185420000Y-97790000D01*
X185420000Y-97790000D02*
X185420000Y-96520000D01*
X114300000Y-106680000D02*
X114300000Y-105554700D01*
X109220000Y-91440000D02*
X109220000Y-100474700D01*
X109220000Y-100474700D02*
X114300000Y-105554700D01*
X87830000Y-36320000D02*
X87830000Y-35194700D01*
X91400000Y-30480000D02*
X91400000Y-31624700D01*
X91400000Y-31624700D02*
X87830000Y-35194700D01*
%TO.N,+5V*%
X162560000Y-106680000D02*
X162560000Y-105554700D01*
X179070000Y-62230000D02*
X179070000Y-89044700D01*
X179070000Y-89044700D02*
X162560000Y-105554700D01*
X179070000Y-61667300D02*
X179070000Y-62230000D01*
X85090000Y-102870000D02*
X85090000Y-97790000D01*
X68580000Y-57150000D02*
X69755300Y-57150000D01*
X73707400Y-62277300D02*
X71120000Y-64864700D01*
X74367400Y-62230000D02*
X74320000Y-62277400D01*
X74320000Y-62277400D02*
X73707400Y-62277400D01*
X73707400Y-62277400D02*
X73707400Y-62277300D01*
X73707400Y-62277300D02*
X69755300Y-58325300D01*
X69755300Y-58325300D02*
X69755300Y-57150000D01*
X179070000Y-61667300D02*
X179070000Y-61104700D01*
X71120000Y-41910000D02*
X71120000Y-43085300D01*
X68580000Y-57150000D02*
X68580000Y-55974700D01*
X68580000Y-55974700D02*
X68212700Y-55974700D01*
X68212700Y-55974700D02*
X67396900Y-55158900D01*
X67396900Y-55158900D02*
X67396900Y-54056400D01*
X67396900Y-54056400D02*
X68207900Y-53245400D01*
X68207900Y-53245400D02*
X69131600Y-53245400D01*
X69131600Y-53245400D02*
X69944700Y-52432300D01*
X69944700Y-52432300D02*
X69944700Y-43893200D01*
X69944700Y-43893200D02*
X70752600Y-43085300D01*
X70752600Y-43085300D02*
X71120000Y-43085300D01*
X71120000Y-37955300D02*
X71120000Y-41910000D01*
X135910000Y-34165300D02*
X139334700Y-37590000D01*
X139334700Y-37590000D02*
X143140000Y-37590000D01*
X135890000Y-34032700D02*
X135890000Y-34145300D01*
X135890000Y-34145300D02*
X135910000Y-34165300D01*
X135910000Y-34165300D02*
X128675300Y-41400000D01*
X135890000Y-33020000D02*
X135890000Y-34032700D01*
X127550000Y-41400000D02*
X128675300Y-41400000D01*
X113070000Y-31750000D02*
X114195300Y-31750000D01*
X114195300Y-31750000D02*
X114195300Y-32031300D01*
X114195300Y-32031300D02*
X123564000Y-41400000D01*
X123564000Y-41400000D02*
X127550000Y-41400000D01*
X112310000Y-54100000D02*
X112310000Y-55225300D01*
X107950000Y-90170000D02*
X107950000Y-59304000D01*
X107950000Y-59304000D02*
X112028700Y-55225300D01*
X112028700Y-55225300D02*
X112310000Y-55225300D01*
X71120000Y-66040000D02*
X71120000Y-64864700D01*
X74930000Y-62230000D02*
X74367400Y-62230000D01*
X71120000Y-66040000D02*
X71120000Y-67215300D01*
X71120000Y-81280000D02*
X71120000Y-80104700D01*
X71120000Y-80104700D02*
X70752700Y-80104700D01*
X70752700Y-80104700D02*
X69944700Y-79296700D01*
X69944700Y-79296700D02*
X69944700Y-68023200D01*
X69944700Y-68023200D02*
X70752600Y-67215300D01*
X70752600Y-67215300D02*
X71120000Y-67215300D01*
X71120000Y-81867600D02*
X71120000Y-81280000D01*
X69850000Y-106680000D02*
X69850000Y-104854700D01*
X68580000Y-88900000D02*
X68580000Y-90025300D01*
X68580000Y-90025300D02*
X68024700Y-90580600D01*
X68024700Y-90580600D02*
X68024700Y-103029400D01*
X68024700Y-103029400D02*
X69850000Y-104854700D01*
X71120000Y-82455300D02*
X68580000Y-84995300D01*
X68580000Y-84995300D02*
X68580000Y-88900000D01*
X71120000Y-81867600D02*
X71120000Y-82455300D01*
X68580000Y-35415300D02*
X71120000Y-37955300D01*
X71120000Y-37955300D02*
X78595300Y-30480000D01*
X78595300Y-30480000D02*
X88900000Y-30480000D01*
X179070000Y-61104700D02*
X172894600Y-54929300D01*
X172894600Y-54929300D02*
X172894600Y-46185900D01*
X172894600Y-46185900D02*
X171694000Y-44985300D01*
X171694000Y-44985300D02*
X171400000Y-44985300D01*
X87830000Y-84580000D02*
X87830000Y-85705300D01*
X87830000Y-85705300D02*
X85090000Y-88445300D01*
X85090000Y-88445300D02*
X85090000Y-97790000D01*
X171400000Y-41400000D02*
X171400000Y-43940000D01*
X95250000Y-113030000D02*
X95250000Y-107950000D01*
X68580000Y-34290000D02*
X68580000Y-35415300D01*
X171400000Y-43940000D02*
X171400000Y-44985300D01*
%TO.N,IO14*%
X71120000Y-73660000D02*
X72295300Y-73660000D01*
X72295300Y-73660000D02*
X76615300Y-69340000D01*
X76615300Y-69340000D02*
X87830000Y-69340000D01*
%TO.N,IO12*%
X71120000Y-71120000D02*
X72295300Y-71120000D01*
X72295300Y-71120000D02*
X79155300Y-64260000D01*
X79155300Y-64260000D02*
X87830000Y-64260000D01*
%TO.N,IO9*%
X103070000Y-38860000D02*
X101944700Y-38860000D01*
X68580000Y-54610000D02*
X69755300Y-54610000D01*
X69755300Y-54610000D02*
X69755300Y-54977300D01*
X69755300Y-54977300D02*
X70582000Y-55804000D01*
X70582000Y-55804000D02*
X77346700Y-55804000D01*
X77346700Y-55804000D02*
X85400700Y-47750000D01*
X85400700Y-47750000D02*
X93054700Y-47750000D01*
X93054700Y-47750000D02*
X101944700Y-38860000D01*
%TO.N,IO8*%
X103070000Y-36320000D02*
X101944700Y-36320000D01*
X71120000Y-54610000D02*
X72295300Y-54610000D01*
X72295300Y-54610000D02*
X81695300Y-45210000D01*
X81695300Y-45210000D02*
X93054700Y-45210000D01*
X93054700Y-45210000D02*
X101944700Y-36320000D01*
%TO.N,IO2*%
X71120000Y-46990000D02*
X72295300Y-46990000D01*
X72295300Y-46990000D02*
X75345300Y-43940000D01*
X75345300Y-43940000D02*
X87830000Y-43940000D01*
%TO.N,IO0*%
X71120000Y-44450000D02*
X72295300Y-44450000D01*
X72295300Y-44450000D02*
X77885300Y-38860000D01*
X77885300Y-38860000D02*
X87830000Y-38860000D01*
%TO.N,~RESET~*%
X103070000Y-51560000D02*
X103070000Y-52685300D01*
X82700000Y-87630000D02*
X82700000Y-77893800D01*
X82700000Y-77893800D02*
X87443800Y-73150000D01*
X87443800Y-73150000D02*
X88183100Y-73150000D01*
X88183100Y-73150000D02*
X101944700Y-59388400D01*
X101944700Y-59388400D02*
X101944700Y-53529200D01*
X101944700Y-53529200D02*
X102788600Y-52685300D01*
X102788600Y-52685300D02*
X103070000Y-52685300D01*
%TO.N,~NMI~*%
X106046400Y-108693900D02*
X105671200Y-108318800D01*
X105671200Y-108318800D02*
X105671200Y-63624800D01*
X105671200Y-63624800D02*
X105915700Y-63380300D01*
X105915700Y-63380300D02*
X105915700Y-56258200D01*
X105915700Y-56258200D02*
X112028600Y-50145300D01*
X112028600Y-50145300D02*
X112310000Y-50145300D01*
X106046400Y-108693900D02*
X110752600Y-113400200D01*
X110752600Y-113400200D02*
X148632400Y-113400200D01*
X148632400Y-113400200D02*
X149775700Y-112256900D01*
X149775700Y-112256900D02*
X149775700Y-111133200D01*
X149775700Y-111133200D02*
X146166400Y-107523900D01*
X146166400Y-107523900D02*
X146166400Y-106225700D01*
X146166400Y-106225700D02*
X158361000Y-94031100D01*
X158361000Y-94031100D02*
X159968900Y-94031100D01*
X159968900Y-94031100D02*
X162560000Y-91440000D01*
X103870300Y-110870000D02*
X106046400Y-108693900D01*
X102870000Y-110870000D02*
X103870300Y-110870000D01*
X112310000Y-49020000D02*
X112310000Y-50145300D01*
X102870000Y-110870000D02*
X101869700Y-110870000D01*
X95250000Y-102870000D02*
X95250000Y-103995300D01*
X101869700Y-110870000D02*
X101869700Y-110615000D01*
X101869700Y-110615000D02*
X95250000Y-103995300D01*
%TO.N,~IRQ~*%
X103070000Y-84580000D02*
X101913300Y-83423300D01*
X101913300Y-83423300D02*
X101913300Y-71436600D01*
X101913300Y-71436600D02*
X102739900Y-70610000D01*
X102739900Y-70610000D02*
X103467600Y-70610000D01*
X103467600Y-70610000D02*
X104564800Y-69512800D01*
X104564800Y-69512800D02*
X104564800Y-63457400D01*
X104564800Y-63457400D02*
X105015100Y-63007100D01*
X105015100Y-63007100D02*
X105015100Y-52183300D01*
X105015100Y-52183300D02*
X112133100Y-45065300D01*
X112133100Y-45065300D02*
X112310000Y-45065300D01*
X95250000Y-96664700D02*
X103070000Y-88844700D01*
X103070000Y-88844700D02*
X103070000Y-84580000D01*
X112310000Y-43940000D02*
X112310000Y-45065300D01*
X95250000Y-97790000D02*
X95250000Y-96664700D01*
X95250000Y-97790000D02*
X95250000Y-101250000D01*
X95250000Y-101250000D02*
X102870000Y-108870000D01*
%TO.N,Sync*%
X102870000Y-106870000D02*
X105095900Y-104644100D01*
X105095900Y-104644100D02*
X105095900Y-63563200D01*
X105095900Y-63563200D02*
X105465400Y-63193700D01*
X105465400Y-63193700D02*
X105465400Y-54271500D01*
X105465400Y-54271500D02*
X111861500Y-47875400D01*
X111861500Y-47875400D02*
X112763000Y-47875400D01*
X112763000Y-47875400D02*
X113435300Y-48547700D01*
X113435300Y-48547700D02*
X113435300Y-50434700D01*
X113435300Y-50434700D02*
X112310000Y-51560000D01*
%TO.N,R~W~*%
X127550000Y-52685300D02*
X127268700Y-52685300D01*
X127268700Y-52685300D02*
X117896700Y-62057300D01*
X117896700Y-62057300D02*
X117896700Y-72974900D01*
X117896700Y-72974900D02*
X112786200Y-78085400D01*
X112786200Y-78085400D02*
X112085400Y-78085400D01*
X112085400Y-78085400D02*
X111184600Y-78986200D01*
X111184600Y-78986200D02*
X111184600Y-80813800D01*
X111184600Y-80813800D02*
X111271400Y-80900600D01*
X143140000Y-40130000D02*
X142014700Y-40130000D01*
X142014700Y-40130000D02*
X142014700Y-40411300D01*
X142014700Y-40411300D02*
X135872100Y-46553900D01*
X135872100Y-46553900D02*
X133944300Y-46553900D01*
X133944300Y-46553900D02*
X128938200Y-51560000D01*
X128938200Y-51560000D02*
X127550000Y-51560000D01*
X127550000Y-51560000D02*
X127550000Y-52685300D01*
X103070000Y-82040000D02*
X103070000Y-83165300D01*
X102870000Y-104870000D02*
X101869600Y-103869600D01*
X101869600Y-103869600D02*
X101869600Y-100771200D01*
X101869600Y-100771200D02*
X104195300Y-98445500D01*
X104195300Y-98445500D02*
X104195300Y-84097800D01*
X104195300Y-84097800D02*
X103262800Y-83165300D01*
X103262800Y-83165300D02*
X103070000Y-83165300D01*
%TO.N,CLK*%
X102870000Y-101869700D02*
X104645600Y-100094100D01*
X104645600Y-100094100D02*
X104645600Y-76839500D01*
X104645600Y-76839500D02*
X103351400Y-75545300D01*
X103351400Y-75545300D02*
X103070000Y-75545300D01*
X103070000Y-74420000D02*
X103070000Y-75545300D01*
X102870000Y-102870000D02*
X102870000Y-101869700D01*
X177800000Y-96520000D02*
X180195400Y-94124600D01*
X180195400Y-94124600D02*
X180195400Y-60955400D01*
X180195400Y-60955400D02*
X176674700Y-57434700D01*
X176674700Y-57434700D02*
X176674700Y-52769200D01*
X176674700Y-52769200D02*
X177518600Y-51925300D01*
X177518600Y-51925300D02*
X177800000Y-51925300D01*
X177800000Y-50800000D02*
X177800000Y-51925300D01*
%TO.N,Net-(R1-Pad1)*%
X112310000Y-38860000D02*
X112310000Y-39985300D01*
X85090000Y-113030000D02*
X88955400Y-109164600D01*
X88955400Y-109164600D02*
X88955400Y-76758100D01*
X88955400Y-76758100D02*
X102723500Y-62990000D01*
X102723500Y-62990000D02*
X103446800Y-62990000D01*
X103446800Y-62990000D02*
X104339700Y-62097100D01*
X104339700Y-62097100D02*
X104339700Y-47674300D01*
X104339700Y-47674300D02*
X112028700Y-39985300D01*
X112028700Y-39985300D02*
X112310000Y-39985300D01*
%TO.N,Net-(R2-Pad1)*%
X127550000Y-46480000D02*
X128675300Y-46480000D01*
X85090000Y-107950000D02*
X83940600Y-106800600D01*
X83940600Y-106800600D02*
X83940600Y-92894100D01*
X83940600Y-92894100D02*
X84028000Y-92806700D01*
X84028000Y-92806700D02*
X84028000Y-91570400D01*
X84028000Y-91570400D02*
X81322900Y-88865300D01*
X81322900Y-88865300D02*
X81322900Y-76770200D01*
X81322900Y-76770200D02*
X87483100Y-70610000D01*
X87483100Y-70610000D02*
X88219300Y-70610000D01*
X88219300Y-70610000D02*
X89574600Y-69254700D01*
X89574600Y-69254700D02*
X89574600Y-53242700D01*
X89574600Y-53242700D02*
X102687300Y-40130000D01*
X102687300Y-40130000D02*
X104370600Y-40130000D01*
X104370600Y-40130000D02*
X109341200Y-35159400D01*
X109341200Y-35159400D02*
X113268900Y-35159400D01*
X113268900Y-35159400D02*
X120634900Y-42525400D01*
X120634900Y-42525400D02*
X128526300Y-42525400D01*
X128526300Y-42525400D02*
X132054900Y-38996800D01*
X132054900Y-38996800D02*
X136045500Y-38996800D01*
X136045500Y-38996800D02*
X136704000Y-39655300D01*
X136704000Y-39655300D02*
X136704000Y-40586500D01*
X136704000Y-40586500D02*
X135890500Y-41400000D01*
X135890500Y-41400000D02*
X133755300Y-41400000D01*
X133755300Y-41400000D02*
X128675300Y-46480000D01*
%TO.N,/A11*%
X171400000Y-55145300D02*
X171694000Y-55145300D01*
X171694000Y-55145300D02*
X172771500Y-56222800D01*
X172771500Y-56222800D02*
X172771500Y-79394500D01*
X172771500Y-79394500D02*
X161290000Y-90876000D01*
X161290000Y-90876000D02*
X161290000Y-91796400D01*
X161290000Y-91796400D02*
X160510500Y-92575900D01*
X160510500Y-92575900D02*
X154419600Y-92575900D01*
X154419600Y-92575900D02*
X153670000Y-91826300D01*
X153670000Y-91826300D02*
X153670000Y-91112500D01*
X153670000Y-91112500D02*
X152872100Y-90314600D01*
X152872100Y-90314600D02*
X151846800Y-90314600D01*
X151846800Y-90314600D02*
X151274600Y-90886800D01*
X151274600Y-90886800D02*
X151274600Y-91677300D01*
X151274600Y-91677300D02*
X149881500Y-93070400D01*
X149881500Y-93070400D02*
X129501400Y-93070400D01*
X129501400Y-93070400D02*
X128270000Y-91839000D01*
X128270000Y-91839000D02*
X128270000Y-91112500D01*
X128270000Y-91112500D02*
X121737500Y-84580000D01*
X121737500Y-84580000D02*
X112310000Y-84580000D01*
X171400000Y-54100000D02*
X171400000Y-55145300D01*
%TO.N,/A10*%
X136645300Y-50290000D02*
X137770600Y-51415300D01*
X137770600Y-51415300D02*
X143686000Y-51415300D01*
X143686000Y-51415300D02*
X150405400Y-58134700D01*
X135520000Y-51415300D02*
X135327200Y-51415300D01*
X135327200Y-51415300D02*
X133793800Y-52948700D01*
X133793800Y-52948700D02*
X133793800Y-54556200D01*
X133793800Y-54556200D02*
X128044600Y-60305400D01*
X128044600Y-60305400D02*
X127300500Y-60305400D01*
X127300500Y-60305400D02*
X124810400Y-62795500D01*
X124810400Y-62795500D02*
X124810400Y-68695600D01*
X124810400Y-68695600D02*
X112591300Y-80914700D01*
X112591300Y-80914700D02*
X112310000Y-80914700D01*
X135520000Y-50290000D02*
X135520000Y-51415300D01*
X112310000Y-82040000D02*
X112310000Y-80914700D01*
X135520000Y-50290000D02*
X136645300Y-50290000D01*
%TO.N,/A9*%
X112310000Y-79500000D02*
X120995200Y-70814800D01*
X120995200Y-70814800D02*
X120995200Y-61597600D01*
X120995200Y-61597600D02*
X127222800Y-55370000D01*
X127222800Y-55370000D02*
X127900000Y-55370000D01*
X127900000Y-55370000D02*
X134394700Y-48875300D01*
X134394700Y-48875300D02*
X134394700Y-47750000D01*
X135520000Y-47750000D02*
X134394700Y-47750000D01*
%TO.N,/A8*%
X112310000Y-75834700D02*
X112591300Y-75834700D01*
X112591300Y-75834700D02*
X116591700Y-71834300D01*
X116591700Y-71834300D02*
X116591700Y-60873800D01*
X116591700Y-60873800D02*
X127230000Y-50235500D01*
X127230000Y-50235500D02*
X129369200Y-50235500D01*
X129369200Y-50235500D02*
X134394700Y-45210000D01*
X135520000Y-45210000D02*
X134394700Y-45210000D01*
X112310000Y-76960000D02*
X112310000Y-75834700D01*
%TO.N,/A7*%
X112310000Y-74420000D02*
X112310000Y-73294700D01*
X135520000Y-42670000D02*
X134394700Y-42670000D01*
X134394700Y-42670000D02*
X129459400Y-47605300D01*
X129459400Y-47605300D02*
X127373000Y-47605300D01*
X127373000Y-47605300D02*
X114005300Y-60973000D01*
X114005300Y-60973000D02*
X114005300Y-71880700D01*
X114005300Y-71880700D02*
X112591300Y-73294700D01*
X112591300Y-73294700D02*
X112310000Y-73294700D01*
%TO.N,/A6*%
X135520000Y-40130000D02*
X133895300Y-40130000D01*
X133895300Y-40130000D02*
X128815300Y-45210000D01*
X128815300Y-45210000D02*
X127227500Y-45210000D01*
X127227500Y-45210000D02*
X125953900Y-46483600D01*
X125953900Y-46483600D02*
X125953900Y-47792000D01*
X125953900Y-47792000D02*
X113435300Y-60310600D01*
X113435300Y-60310600D02*
X113435300Y-69910800D01*
X113435300Y-69910800D02*
X112591400Y-70754700D01*
X112591400Y-70754700D02*
X112310000Y-70754700D01*
X112310000Y-71880000D02*
X112310000Y-70754700D01*
X156160000Y-49020000D02*
X146130100Y-38990100D01*
%TO.N,/A5*%
X135801400Y-37590000D02*
X135520000Y-37590000D01*
X135801400Y-37590000D02*
X136645300Y-37590000D01*
X156160000Y-51560000D02*
X156160000Y-50514700D01*
X156160000Y-50514700D02*
X155196600Y-50514700D01*
X155196600Y-50514700D02*
X143397200Y-38715300D01*
X143397200Y-38715300D02*
X137770600Y-38715300D01*
X137770600Y-38715300D02*
X136645300Y-37590000D01*
%TO.N,/D0*%
X140091100Y-57569400D02*
X140030900Y-57569400D01*
X140030900Y-57569400D02*
X135735600Y-61864700D01*
X135735600Y-61864700D02*
X135520000Y-61864700D01*
X156160000Y-66800000D02*
X152601400Y-66800000D01*
X152601400Y-66800000D02*
X144981400Y-59180000D01*
X144981400Y-59180000D02*
X141701700Y-59180000D01*
X141701700Y-59180000D02*
X140091100Y-57569400D01*
X140091100Y-57569400D02*
X140091100Y-56231300D01*
X135520000Y-62990000D02*
X135520000Y-61864700D01*
X135520000Y-62990000D02*
X135520000Y-63552600D01*
X135520000Y-63552600D02*
X135520000Y-64115300D01*
X132080000Y-90314700D02*
X132119200Y-90275500D01*
X132119200Y-90275500D02*
X132119200Y-67234800D01*
X132119200Y-67234800D02*
X135238700Y-64115300D01*
X135238700Y-64115300D02*
X135520000Y-64115300D01*
X132080000Y-91440000D02*
X132080000Y-90314700D01*
%TO.N,/A4*%
X143140000Y-42670000D02*
X144265300Y-42670000D01*
X156160000Y-54100000D02*
X156160000Y-53054700D01*
X144265300Y-42670000D02*
X154650000Y-53054700D01*
X154650000Y-53054700D02*
X156160000Y-53054700D01*
%TO.N,/D1*%
X127550000Y-57765300D02*
X127268700Y-57765300D01*
X127268700Y-57765300D02*
X124062000Y-60972000D01*
X124062000Y-60972000D02*
X124062000Y-67934000D01*
X127550000Y-56640000D02*
X127550000Y-57765300D01*
X135520000Y-65530000D02*
X135520000Y-66655300D01*
X134620000Y-91440000D02*
X134620000Y-90314700D01*
X134620000Y-90314700D02*
X134394700Y-90089400D01*
X134394700Y-90089400D02*
X134394700Y-67499200D01*
X134394700Y-67499200D02*
X135238600Y-66655300D01*
X135238600Y-66655300D02*
X135520000Y-66655300D01*
%TO.N,/A3*%
X143140000Y-45210000D02*
X144265300Y-45210000D01*
X156160000Y-56640000D02*
X156160000Y-55594700D01*
X144265300Y-45210000D02*
X154650000Y-55594700D01*
X154650000Y-55594700D02*
X156160000Y-55594700D01*
X142591800Y-45210000D02*
X143140000Y-45210000D01*
X142591800Y-45210000D02*
X142014700Y-45210000D01*
X142014700Y-45210000D02*
X138068000Y-49156700D01*
X138068000Y-49156700D02*
X137173600Y-49156700D01*
X125874700Y-91440000D02*
X125874700Y-91158700D01*
X125874700Y-91158700D02*
X120421400Y-85705400D01*
X120421400Y-85705400D02*
X111792300Y-85705400D01*
X111792300Y-85705400D02*
X110546100Y-84459200D01*
X110546100Y-84459200D02*
X110546100Y-66867900D01*
X110546100Y-66867900D02*
X112028700Y-65385300D01*
X112028700Y-65385300D02*
X112310000Y-65385300D01*
X127000000Y-91440000D02*
X125874700Y-91440000D01*
X112310000Y-64260000D02*
X112310000Y-65385300D01*
%TO.N,/D2*%
X135520000Y-68128600D02*
X137189900Y-66458700D01*
X137189900Y-66458700D02*
X137189900Y-61448300D01*
X135520000Y-68128600D02*
X135520000Y-68187300D01*
X135520000Y-68070000D02*
X135520000Y-68128600D01*
X135520000Y-68351300D02*
X135520000Y-69195300D01*
X135520000Y-68351300D02*
X135520000Y-68187300D01*
X135520000Y-69195300D02*
X135736600Y-69195300D01*
X135736600Y-69195300D02*
X137160000Y-70618700D01*
X137160000Y-70618700D02*
X137160000Y-91440000D01*
%TO.N,/A2*%
X123334700Y-91440000D02*
X123334700Y-91158700D01*
X123334700Y-91158700D02*
X118806800Y-86630800D01*
X118806800Y-86630800D02*
X112080800Y-86630800D01*
X112080800Y-86630800D02*
X110095800Y-84645800D01*
X110095800Y-84645800D02*
X110095800Y-64778200D01*
X110095800Y-64778200D02*
X112028700Y-62845300D01*
X112028700Y-62845300D02*
X112310000Y-62845300D01*
X112310000Y-61720000D02*
X112984900Y-61045100D01*
X112984900Y-61045100D02*
X112984900Y-60124100D01*
X112984900Y-60124100D02*
X115872200Y-57236800D01*
X115872200Y-57236800D02*
X115872200Y-45354700D01*
X112310000Y-61720000D02*
X112310000Y-62845300D01*
X124460000Y-91440000D02*
X123334700Y-91440000D01*
X143140000Y-47750000D02*
X144265300Y-47750000D01*
X156160000Y-59180000D02*
X156160000Y-58134700D01*
X144265300Y-47750000D02*
X154650000Y-58134700D01*
X154650000Y-58134700D02*
X156160000Y-58134700D01*
%TO.N,/D3*%
X143140000Y-75287000D02*
X143140000Y-86874700D01*
X143140000Y-86874700D02*
X139700000Y-90314700D01*
X127550000Y-61720000D02*
X127550000Y-62845300D01*
X125827800Y-73123300D02*
X125827800Y-64286200D01*
X125827800Y-64286200D02*
X127268700Y-62845300D01*
X127268700Y-62845300D02*
X127550000Y-62845300D01*
X143140000Y-70610000D02*
X143140000Y-75287000D01*
X139700000Y-91440000D02*
X139700000Y-90314700D01*
%TO.N,/A1*%
X120794700Y-91440000D02*
X120794700Y-91158700D01*
X120794700Y-91158700D02*
X117167400Y-87531400D01*
X117167400Y-87531400D02*
X112304800Y-87531400D01*
X112304800Y-87531400D02*
X109645500Y-84872100D01*
X109645500Y-84872100D02*
X109645500Y-62688500D01*
X109645500Y-62688500D02*
X112028700Y-60305300D01*
X112028700Y-60305300D02*
X112310000Y-60305300D01*
X114589000Y-47655100D02*
X114589000Y-55980100D01*
X114589000Y-55980100D02*
X112514400Y-58054700D01*
X112514400Y-58054700D02*
X112310000Y-58054700D01*
X112310000Y-59180000D02*
X112310000Y-60305300D01*
X154834700Y-61720000D02*
X154834700Y-60859400D01*
X154834700Y-60859400D02*
X144265300Y-50290000D01*
X112310000Y-59180000D02*
X112310000Y-58054700D01*
X156160000Y-61720000D02*
X154834700Y-61720000D01*
X143140000Y-50290000D02*
X144265300Y-50290000D01*
X121920000Y-91440000D02*
X120794700Y-91440000D01*
%TO.N,/D4*%
X142240000Y-91440000D02*
X142240000Y-90314700D01*
X143140000Y-68070000D02*
X143140000Y-69195300D01*
X143140000Y-69195300D02*
X143421300Y-69195300D01*
X143421300Y-69195300D02*
X144271600Y-70045600D01*
X144271600Y-70045600D02*
X144271600Y-88283100D01*
X144271600Y-88283100D02*
X142240000Y-90314700D01*
X141114700Y-91440000D02*
X141114700Y-91721300D01*
X141114700Y-91721300D02*
X140262000Y-92574000D01*
X140262000Y-92574000D02*
X131589500Y-92574000D01*
X131589500Y-92574000D02*
X130954600Y-91939100D01*
X130954600Y-91939100D02*
X130954600Y-90326500D01*
X130954600Y-90326500D02*
X126424700Y-85796600D01*
X126424700Y-85796600D02*
X126424700Y-73552200D01*
X126424700Y-73552200D02*
X126553100Y-73423800D01*
X126553100Y-73423800D02*
X126553100Y-72822800D01*
X126553100Y-72822800D02*
X126424700Y-72694400D01*
X126424700Y-72694400D02*
X126424700Y-66229200D01*
X126424700Y-66229200D02*
X127268600Y-65385300D01*
X127268600Y-65385300D02*
X127550000Y-65385300D01*
X127550000Y-64260000D02*
X127550000Y-65385300D01*
X142240000Y-91440000D02*
X141114700Y-91440000D01*
%TO.N,/A0*%
X119380000Y-91440000D02*
X118254700Y-91440000D01*
X112310000Y-56640000D02*
X109195100Y-59754900D01*
X109195100Y-59754900D02*
X109195100Y-85064400D01*
X109195100Y-85064400D02*
X114445400Y-90314700D01*
X114445400Y-90314700D02*
X117410800Y-90314700D01*
X117410800Y-90314700D02*
X118254700Y-91158600D01*
X118254700Y-91158600D02*
X118254700Y-91440000D01*
X103070000Y-41400000D02*
X108061000Y-41400000D01*
X108061000Y-41400000D02*
X111747100Y-37713900D01*
X111747100Y-37713900D02*
X112815300Y-37713900D01*
X112815300Y-37713900D02*
X113476300Y-38374900D01*
X113476300Y-38374900D02*
X113476300Y-47951800D01*
X113476300Y-47951800D02*
X113897100Y-48372600D01*
X113897100Y-48372600D02*
X113897100Y-55052900D01*
X113897100Y-55052900D02*
X112310000Y-56640000D01*
X143140000Y-55370000D02*
X144265300Y-55370000D01*
X144265300Y-55370000D02*
X153155300Y-64260000D01*
X153155300Y-64260000D02*
X156160000Y-64260000D01*
%TO.N,/D5*%
X143140000Y-65530000D02*
X143140000Y-66655300D01*
X143140000Y-66655300D02*
X143421300Y-66655300D01*
X143421300Y-66655300D02*
X144780000Y-68014000D01*
X144780000Y-68014000D02*
X144780000Y-91440000D01*
%TO.N,/D6*%
X143140000Y-63552600D02*
X139748700Y-66943900D01*
X143140000Y-63552600D02*
X143140000Y-64115300D01*
X143140000Y-62990000D02*
X143140000Y-63552600D01*
X143140000Y-64115300D02*
X143421300Y-64115300D01*
X143421300Y-64115300D02*
X147320000Y-68014000D01*
X147320000Y-68014000D02*
X147320000Y-91440000D01*
%TO.N,/D7*%
X136675200Y-69075900D02*
X136675200Y-67757300D01*
X136675200Y-67757300D02*
X142857200Y-61575300D01*
X142857200Y-61575300D02*
X143140000Y-61575300D01*
X143140000Y-60450000D02*
X143140000Y-61575300D01*
X143140000Y-61575300D02*
X143421300Y-61575300D01*
X143421300Y-61575300D02*
X149860000Y-68014000D01*
X149860000Y-68014000D02*
X149860000Y-91440000D01*
%TO.N,/A15*%
X177800000Y-40640000D02*
X177800000Y-43180000D01*
%TO.N,/A14*%
X135192500Y-56640000D02*
X135841800Y-56640000D01*
X135841800Y-56640000D02*
X136645300Y-57443500D01*
X136645300Y-57443500D02*
X136645300Y-58480800D01*
X136645300Y-58480800D02*
X135801400Y-59324700D01*
X135801400Y-59324700D02*
X135520000Y-59324700D01*
X142014700Y-52830000D02*
X140889400Y-53955300D01*
X140889400Y-53955300D02*
X135333100Y-53955300D01*
X135333100Y-53955300D02*
X134394600Y-54893800D01*
X134394600Y-54893800D02*
X134394600Y-55842100D01*
X134394600Y-55842100D02*
X135192500Y-56640000D01*
X135192500Y-56640000D02*
X128675300Y-63157200D01*
X128675300Y-63157200D02*
X128675300Y-74990800D01*
X128675300Y-74990800D02*
X127831400Y-75834700D01*
X127831400Y-75834700D02*
X127550000Y-75834700D01*
X156160000Y-42445300D02*
X155866000Y-42445300D01*
X155866000Y-42445300D02*
X154834600Y-43476700D01*
X154834600Y-43476700D02*
X154834600Y-46930100D01*
X154834600Y-46930100D02*
X155863300Y-47958800D01*
X155863300Y-47958800D02*
X156910900Y-47958800D01*
X156910900Y-47958800D02*
X157505800Y-48553700D01*
X157505800Y-48553700D02*
X157505800Y-62177900D01*
X157505800Y-62177900D02*
X156911900Y-62771800D01*
X156911900Y-62771800D02*
X154016800Y-62771800D01*
X154016800Y-62771800D02*
X144265300Y-53020300D01*
X144265300Y-53020300D02*
X144265300Y-52830000D01*
X127550000Y-76960000D02*
X127550000Y-75834700D01*
X135520000Y-60450000D02*
X135520000Y-59324700D01*
X143140000Y-52830000D02*
X142014700Y-52830000D01*
X143702700Y-52830000D02*
X143140000Y-52830000D01*
X143702700Y-52830000D02*
X144265300Y-52830000D01*
X156160000Y-41400000D02*
X156160000Y-42445300D01*
%TO.N,/A13*%
X171400000Y-47525300D02*
X171106000Y-47525300D01*
X171106000Y-47525300D02*
X169905400Y-48725900D01*
X169905400Y-48725900D02*
X169905400Y-64704200D01*
X169905400Y-64704200D02*
X158166600Y-76443000D01*
X171400000Y-46480000D02*
X171400000Y-47525300D01*
X127550000Y-79500000D02*
X127550000Y-78374700D01*
X135520000Y-57910000D02*
X129545900Y-63884100D01*
X129545900Y-63884100D02*
X129545900Y-76660100D01*
X129545900Y-76660100D02*
X127831300Y-78374700D01*
X127831300Y-78374700D02*
X127550000Y-78374700D01*
%TO.N,/A12*%
X157353200Y-65530000D02*
X157539500Y-65716300D01*
X157539500Y-65716300D02*
X157539500Y-76044400D01*
X157539500Y-76044400D02*
X157425200Y-76158700D01*
X157425200Y-76158700D02*
X157425200Y-90259900D01*
X157425200Y-90259900D02*
X157480000Y-90314700D01*
X156160000Y-44985300D02*
X156454000Y-44985300D01*
X156454000Y-44985300D02*
X157956200Y-46487500D01*
X157956200Y-46487500D02*
X157956200Y-64927000D01*
X157956200Y-64927000D02*
X157353200Y-65530000D01*
X135520000Y-55370000D02*
X140266700Y-55370000D01*
X140266700Y-55370000D02*
X141536700Y-56640000D01*
X141536700Y-56640000D02*
X144627900Y-56640000D01*
X144627900Y-56640000D02*
X153517900Y-65530000D01*
X153517900Y-65530000D02*
X157353200Y-65530000D01*
X156160000Y-43940000D02*
X156160000Y-44985300D01*
X157480000Y-91440000D02*
X157480000Y-90314700D01*
%TO.N,/~ROMSEL~*%
X177800000Y-45720000D02*
X177800000Y-48260000D01*
%TO.N,IO39*%
X163830000Y-111760000D02*
X163830000Y-110584700D01*
X160020000Y-106680000D02*
X160020000Y-107805300D01*
X163830000Y-110584700D02*
X162799400Y-110584700D01*
X162799400Y-110584700D02*
X160020000Y-107805300D01*
%TO.N,IO38*%
X157480000Y-106680000D02*
X157480000Y-107805300D01*
X161290000Y-111760000D02*
X161290000Y-110584700D01*
X161290000Y-110584700D02*
X158510600Y-107805300D01*
X158510600Y-107805300D02*
X157480000Y-107805300D01*
%TO.N,IO37*%
X158750000Y-111760000D02*
X158750000Y-110584700D01*
X154940000Y-106680000D02*
X154940000Y-107805300D01*
X158750000Y-110584700D02*
X157719400Y-110584700D01*
X157719400Y-110584700D02*
X154940000Y-107805300D01*
%TO.N,IO36*%
X156210000Y-111760000D02*
X156210000Y-110584700D01*
X152400000Y-106680000D02*
X152400000Y-107805300D01*
X156210000Y-110584700D02*
X155179400Y-110584700D01*
X155179400Y-110584700D02*
X152400000Y-107805300D01*
%TO.N,IO35*%
X153670000Y-111760000D02*
X153670000Y-110584700D01*
X149860000Y-106680000D02*
X149860000Y-107805300D01*
X153670000Y-110584700D02*
X152639400Y-110584700D01*
X152639400Y-110584700D02*
X149860000Y-107805300D01*
%TO.N,IO34*%
X151130000Y-111760000D02*
X151130000Y-110584700D01*
X147320000Y-106680000D02*
X147320000Y-107805300D01*
X151130000Y-110584700D02*
X150099400Y-110584700D01*
X150099400Y-110584700D02*
X147320000Y-107805300D01*
%TO.N,IO33*%
X148590000Y-111760000D02*
X148590000Y-110584700D01*
X144780000Y-106680000D02*
X144780000Y-107805300D01*
X148590000Y-110584700D02*
X147559400Y-110584700D01*
X147559400Y-110584700D02*
X144780000Y-107805300D01*
%TO.N,IO32*%
X146050000Y-111760000D02*
X146050000Y-110584700D01*
X142240000Y-106680000D02*
X142240000Y-107805300D01*
X146050000Y-110584700D02*
X145019400Y-110584700D01*
X145019400Y-110584700D02*
X142240000Y-107805300D01*
%TO.N,IO31*%
X143510000Y-111760000D02*
X143510000Y-110584700D01*
X139700000Y-106680000D02*
X139700000Y-107805300D01*
X143510000Y-110584700D02*
X142479400Y-110584700D01*
X142479400Y-110584700D02*
X139700000Y-107805300D01*
%TO.N,IO30*%
X140970000Y-111760000D02*
X140970000Y-110584700D01*
X137160000Y-106680000D02*
X137160000Y-107805300D01*
X140970000Y-110584700D02*
X139939400Y-110584700D01*
X139939400Y-110584700D02*
X137160000Y-107805300D01*
%TO.N,IO29*%
X138430000Y-111760000D02*
X138430000Y-110584700D01*
X138430000Y-110584700D02*
X135890000Y-108044700D01*
X135890000Y-108044700D02*
X135890000Y-106357300D01*
X135890000Y-106357300D02*
X122302900Y-92770200D01*
X122302900Y-92770200D02*
X118170200Y-92770200D01*
X118170200Y-92770200D02*
X116840000Y-91440000D01*
%TO.N,IO28*%
X135890000Y-111760000D02*
X134714700Y-111760000D01*
X114300000Y-91440000D02*
X115425300Y-91440000D01*
X115425300Y-91440000D02*
X115425300Y-91721300D01*
X115425300Y-91721300D02*
X128871500Y-105167500D01*
X128871500Y-105167500D02*
X132229500Y-105167500D01*
X132229500Y-105167500D02*
X133210000Y-106148000D01*
X133210000Y-106148000D02*
X133210000Y-107871500D01*
X133210000Y-107871500D02*
X132169900Y-108911600D01*
X132169900Y-108911600D02*
X132169900Y-112264800D01*
X132169900Y-112264800D02*
X132840400Y-112935300D01*
X132840400Y-112935300D02*
X133906800Y-112935300D01*
X133906800Y-112935300D02*
X134714700Y-112127400D01*
X134714700Y-112127400D02*
X134714700Y-111760000D01*
%TO.N,IO27*%
X133350000Y-111760000D02*
X133350000Y-110584700D01*
X133350000Y-110584700D02*
X134620000Y-109314700D01*
X134620000Y-109314700D02*
X134620000Y-106680000D01*
%TO.N,IO26*%
X132080000Y-106680000D02*
X132080000Y-107805300D01*
X130810000Y-111760000D02*
X130810000Y-109075300D01*
X130810000Y-109075300D02*
X132080000Y-107805300D01*
%TO.N,IO25*%
X129540000Y-106680000D02*
X129540000Y-107805300D01*
X128270000Y-111760000D02*
X128270000Y-109075300D01*
X128270000Y-109075300D02*
X129540000Y-107805300D01*
%TO.N,IO24*%
X127000000Y-106680000D02*
X127000000Y-107805300D01*
X125730000Y-111760000D02*
X125730000Y-109075300D01*
X125730000Y-109075300D02*
X127000000Y-107805300D01*
%TO.N,IO23*%
X124460000Y-106680000D02*
X124460000Y-107805300D01*
X123190000Y-111760000D02*
X123190000Y-109075300D01*
X123190000Y-109075300D02*
X124460000Y-107805300D01*
%TO.N,IO22*%
X121920000Y-106680000D02*
X121920000Y-107805300D01*
X120650000Y-111760000D02*
X120650000Y-109075300D01*
X120650000Y-109075300D02*
X121920000Y-107805300D01*
%TO.N,IO21*%
X119380000Y-106680000D02*
X119380000Y-107805300D01*
X118110000Y-111760000D02*
X118110000Y-109075300D01*
X118110000Y-109075300D02*
X119380000Y-107805300D01*
%TO.N,IO20*%
X116840000Y-106680000D02*
X116840000Y-107805300D01*
X115570000Y-111760000D02*
X115570000Y-109075300D01*
X115570000Y-109075300D02*
X116840000Y-107805300D01*
%TD*%
M02*
