M48
; DRILL file {KiCad (5.1.10)-1} date 06/24/21 21:47:03
; FORMAT={-:-/ absolute / inch / decimal}
; #@! TF.CreationDate,2021-06-24T21:47:03-07:00
; #@! TF.GenerationSoftware,Kicad,Pcbnew,(5.1.10)-1
FMAT,2
INCH
T1C0.0157
T2C0.0295
T3C0.0315
T4C0.0394
T5C0.0433
T6C0.0598
%
G90
G05
T1
X4.3808Y-3.1851
X4.5114Y-1.8762
X4.5619Y-1.7856
X4.8843Y-2.6746
X4.9539Y-2.8789
X5.173Y-2.9178
X5.3809Y-2.7195
X5.4005Y-1.9353
X5.4012Y-2.4192
X5.5019Y-2.6356
X5.5154Y-2.2138
X5.6354Y-2.9641
X5.7532Y-1.535
X5.9215Y-2.2888
X6.227Y-3.0096
T2
X4.2Y-3.6
X4.25Y-3.55
X4.3Y-3.6
T3
X2.7Y-1.35
X2.7Y-3.5
X2.7984Y-1.35
X2.7984Y-3.5
X2.95Y-2.45
X3.0484Y-2.45
X3.1Y-4.4
X3.1984Y-4.4
X3.35Y-3.85
X3.35Y-4.05
X3.35Y-4.25
X3.35Y-4.45
X3.4579Y-1.4299
X3.4579Y-1.5299
X3.4579Y-1.6299
X3.4579Y-1.7299
X3.4579Y-1.8299
X3.4579Y-1.9299
X3.4579Y-2.0299
X3.4579Y-2.1299
X3.4579Y-2.2299
X3.4579Y-2.3299
X3.4579Y-2.4299
X3.4579Y-2.5299
X3.4579Y-2.6299
X3.4579Y-2.7299
X3.4579Y-2.8299
X3.4579Y-2.9299
X3.4579Y-3.0299
X3.4579Y-3.1299
X3.4579Y-3.2299
X3.4579Y-3.3299
X3.5Y-1.2
X3.5984Y-1.2
X3.75Y-3.85
X3.75Y-4.05
X3.75Y-4.25
X3.75Y-4.45
X4.05Y-4.05
X4.05Y-4.1287
X4.05Y-4.2075
X4.05Y-4.2862
X4.05Y-4.365
X4.05Y-4.4437
X4.0579Y-1.4299
X4.0579Y-1.5299
X4.0579Y-1.6299
X4.0579Y-1.7299
X4.0579Y-1.8299
X4.0579Y-1.9299
X4.0579Y-2.0299
X4.0579Y-2.1299
X4.0579Y-2.2299
X4.0579Y-2.3299
X4.0579Y-2.4299
X4.0579Y-2.5299
X4.0579Y-2.6299
X4.0579Y-2.7299
X4.0579Y-2.8299
X4.0579Y-2.9299
X4.0579Y-3.0299
X4.0579Y-3.1299
X4.0579Y-3.2299
X4.0579Y-3.3299
X4.4217Y-1.4299
X4.4217Y-1.5299
X4.4217Y-1.6299
X4.4217Y-1.7299
X4.4217Y-1.8299
X4.4217Y-1.9299
X4.4217Y-2.0299
X4.4217Y-2.1299
X4.4217Y-2.2299
X4.4217Y-2.3299
X4.4217Y-2.4299
X4.4217Y-2.5299
X4.4217Y-2.6299
X4.4217Y-2.7299
X4.4217Y-2.8299
X4.4217Y-2.9299
X4.4217Y-3.0299
X4.4217Y-3.1299
X4.4217Y-3.2299
X4.4217Y-3.3299
X4.4516Y-1.25
X4.5Y-3.6
X4.5Y-4.2
X4.55Y-1.25
X4.6Y-3.6
X4.6Y-4.2
X4.7Y-3.6
X4.7Y-4.2
X4.8Y-3.6
X4.8Y-4.2
X4.9Y-3.6
X4.9Y-4.2
X5.0Y-3.6
X5.0Y-4.2
X5.0217Y-1.4299
X5.0217Y-1.5299
X5.0217Y-1.6299
X5.0217Y-1.7299
X5.0217Y-1.8299
X5.0217Y-1.9299
X5.0217Y-2.0299
X5.0217Y-2.1299
X5.0217Y-2.2299
X5.0217Y-2.3299
X5.0217Y-2.4299
X5.0217Y-2.5299
X5.0217Y-2.6299
X5.0217Y-2.7299
X5.0217Y-2.8299
X5.0217Y-2.9299
X5.0217Y-3.0299
X5.0217Y-3.1299
X5.0217Y-3.2299
X5.0217Y-3.3299
X5.1Y-3.6
X5.1Y-4.2
X5.2Y-3.6
X5.2Y-4.2
X5.3Y-3.6
X5.3Y-4.2
X5.3354Y-1.4799
X5.3354Y-1.5799
X5.3354Y-1.6799
X5.3354Y-1.7799
X5.3354Y-1.8799
X5.3354Y-1.9799
X5.3354Y-2.0799
X5.3354Y-2.1799
X5.3354Y-2.2799
X5.3354Y-2.3799
X5.3354Y-2.4799
X5.3354Y-2.5799
X5.3354Y-2.6799
X5.3354Y-2.7799
X5.35Y-1.3
X5.4Y-3.6
X5.4Y-4.2
X5.4484Y-1.3
X5.5Y-3.6
X5.5Y-4.2
X5.6Y-3.6
X5.6Y-4.2
X5.6354Y-1.4799
X5.6354Y-1.5799
X5.6354Y-1.6799
X5.6354Y-1.7799
X5.6354Y-1.8799
X5.6354Y-1.9799
X5.6354Y-2.0799
X5.6354Y-2.1799
X5.6354Y-2.2799
X5.6354Y-2.3799
X5.6354Y-2.4799
X5.6354Y-2.5799
X5.6354Y-2.6799
X5.6354Y-2.7799
X5.7Y-3.6
X5.7Y-4.2
X5.8Y-3.6
X5.8Y-4.2
X5.9Y-3.6
X5.9Y-4.2
X6.0Y-3.6
X6.0Y-4.2
X6.1Y-3.6
X6.1Y-4.2
X6.2Y-3.6
X6.2Y-4.2
X6.3Y-3.6
X6.3Y-4.2
X6.4Y-3.6
X6.4Y-4.2
X6.7016Y-4.35
X6.8Y-4.35
X7.0Y-1.6
X7.0Y-1.7
X7.0Y-1.8
X7.0Y-1.9
X7.0Y-2.0
X7.0Y-2.1
X7.0Y-2.2
X7.0Y-3.8
X7.0Y-4.4
X7.05Y-2.45
X7.1484Y-2.45
X7.15Y-1.3
X7.2484Y-1.3
X7.3Y-1.6
X7.3Y-1.7
X7.3Y-1.8
X7.3Y-1.9
X7.3Y-2.0
X7.3Y-2.1
X7.3Y-2.2
X7.3Y-3.8
X7.3Y-4.4
T4
X2.7Y-1.65
X2.7Y-1.75
X2.7Y-1.85
X2.7Y-1.95
X2.7Y-2.05
X2.7Y-2.15
X2.7Y-2.25
X2.7Y-2.6
X2.7Y-2.7
X2.7Y-2.8
X2.7Y-2.9
X2.7Y-3.0
X2.7Y-3.1
X2.7Y-3.2
X2.8Y-1.65
X2.8Y-1.75
X2.8Y-1.85
X2.8Y-1.95
X2.8Y-2.05
X2.8Y-2.15
X2.8Y-2.25
X2.8Y-2.6
X2.8Y-2.7
X2.8Y-2.8
X2.8Y-2.9
X2.8Y-3.0
X2.8Y-3.1
X2.8Y-3.2
X4.55Y-4.4
X4.65Y-4.4
X4.75Y-4.4
X4.85Y-4.4
X4.95Y-4.4
X5.05Y-4.4
X5.15Y-4.4
X5.25Y-4.4
X5.35Y-4.4
X5.45Y-4.4
X5.55Y-4.4
X5.65Y-4.4
X5.75Y-4.4
X5.85Y-4.4
X5.95Y-4.4
X6.05Y-4.4
X6.148Y-1.6299
X6.148Y-1.7299
X6.148Y-1.8299
X6.148Y-1.9299
X6.148Y-2.0299
X6.148Y-2.1299
X6.148Y-2.2299
X6.148Y-2.3299
X6.148Y-2.4299
X6.148Y-2.5299
X6.148Y-2.6299
X6.148Y-2.7299
X6.148Y-2.8299
X6.148Y-2.9299
X6.15Y-4.4
X6.25Y-4.4
X6.35Y-4.4
X6.45Y-4.4
X6.748Y-1.6299
X6.748Y-1.7299
X6.748Y-1.8299
X6.748Y-1.9299
X6.748Y-2.0299
X6.748Y-2.1299
X6.748Y-2.2299
X6.748Y-2.3299
X6.748Y-2.4299
X6.748Y-2.5299
X6.748Y-2.6299
X6.748Y-2.7299
X6.748Y-2.8299
X6.748Y-2.9299
T5
X3.0Y-3.45
X3.0Y-3.6272
X3.2559Y-3.45
X3.2559Y-3.6272
T6
X2.75Y-4.0
X2.75Y-4.2
T0
M30
