%TF.GenerationSoftware,KiCad,Pcbnew,(5.1.10)-1*%
%TF.CreationDate,2021-06-24T21:47:08-07:00*%
%TF.ProjectId,6502helper,36353032-6865-46c7-9065-722e6b696361,rev?*%
%TF.SameCoordinates,Original*%
%TF.FileFunction,Legend,Top*%
%TF.FilePolarity,Positive*%
%FSLAX46Y46*%
G04 Gerber Fmt 4.6, Leading zero omitted, Abs format (unit mm)*
G04 Created by KiCad (PCBNEW (5.1.10)-1) date 2021-06-24 21:47:08*
%MOMM*%
%LPD*%
G01*
G04 APERTURE LIST*
%ADD10C,0.150000*%
%ADD11C,0.100000*%
%ADD12C,0.120000*%
G04 APERTURE END LIST*
D10*
X175308571Y-90618571D02*
X175308571Y-91690000D01*
X175237142Y-91904285D01*
X175094285Y-92047142D01*
X174880000Y-92118571D01*
X174737142Y-92118571D01*
X176665714Y-91118571D02*
X176665714Y-92118571D01*
X176022857Y-91118571D02*
X176022857Y-91904285D01*
X176094285Y-92047142D01*
X176237142Y-92118571D01*
X176451428Y-92118571D01*
X176594285Y-92047142D01*
X176665714Y-91975714D01*
X177380000Y-91118571D02*
X177380000Y-92118571D01*
X177380000Y-91261428D02*
X177451428Y-91190000D01*
X177594285Y-91118571D01*
X177808571Y-91118571D01*
X177951428Y-91190000D01*
X178022857Y-91332857D01*
X178022857Y-92118571D01*
X179308571Y-92047142D02*
X179165714Y-92118571D01*
X178880000Y-92118571D01*
X178737142Y-92047142D01*
X178665714Y-91904285D01*
X178665714Y-91332857D01*
X178737142Y-91190000D01*
X178880000Y-91118571D01*
X179165714Y-91118571D01*
X179308571Y-91190000D01*
X179380000Y-91332857D01*
X179380000Y-91475714D01*
X178665714Y-91618571D01*
X181094285Y-90761428D02*
X181165714Y-90690000D01*
X181308571Y-90618571D01*
X181665714Y-90618571D01*
X181808571Y-90690000D01*
X181880000Y-90761428D01*
X181951428Y-90904285D01*
X181951428Y-91047142D01*
X181880000Y-91261428D01*
X181022857Y-92118571D01*
X181951428Y-92118571D01*
X183237142Y-91118571D02*
X183237142Y-92118571D01*
X182880000Y-90547142D02*
X182522857Y-91618571D01*
X183451428Y-91618571D01*
X184094285Y-92047142D02*
X184094285Y-92118571D01*
X184022857Y-92261428D01*
X183951428Y-92332857D01*
X185808571Y-90761428D02*
X185880000Y-90690000D01*
X186022857Y-90618571D01*
X186380000Y-90618571D01*
X186522857Y-90690000D01*
X186594285Y-90761428D01*
X186665714Y-90904285D01*
X186665714Y-91047142D01*
X186594285Y-91261428D01*
X185737142Y-92118571D01*
X186665714Y-92118571D01*
X187594285Y-90618571D02*
X187737142Y-90618571D01*
X187880000Y-90690000D01*
X187951428Y-90761428D01*
X188022857Y-90904285D01*
X188094285Y-91190000D01*
X188094285Y-91547142D01*
X188022857Y-91832857D01*
X187951428Y-91975714D01*
X187880000Y-92047142D01*
X187737142Y-92118571D01*
X187594285Y-92118571D01*
X187451428Y-92047142D01*
X187380000Y-91975714D01*
X187308571Y-91832857D01*
X187237142Y-91547142D01*
X187237142Y-91190000D01*
X187308571Y-90904285D01*
X187380000Y-90761428D01*
X187451428Y-90690000D01*
X187594285Y-90618571D01*
X188665714Y-90761428D02*
X188737142Y-90690000D01*
X188880000Y-90618571D01*
X189237142Y-90618571D01*
X189380000Y-90690000D01*
X189451428Y-90761428D01*
X189522857Y-90904285D01*
X189522857Y-91047142D01*
X189451428Y-91261428D01*
X188594285Y-92118571D01*
X189522857Y-92118571D01*
X190951428Y-92118571D02*
X190094285Y-92118571D01*
X190522857Y-92118571D02*
X190522857Y-90618571D01*
X190380000Y-90832857D01*
X190237142Y-90975714D01*
X190094285Y-91047142D01*
D11*
G36*
X191770000Y-82550000D02*
G01*
X184150000Y-82550000D01*
X184150000Y-60960000D01*
X191770000Y-60960000D01*
X191770000Y-82550000D01*
G37*
X191770000Y-82550000D02*
X184150000Y-82550000D01*
X184150000Y-60960000D01*
X191770000Y-60960000D01*
X191770000Y-82550000D01*
D10*
X161609047Y-88169523D02*
X160275714Y-86264761D01*
X159323333Y-88169523D02*
X159323333Y-84169523D01*
X160847142Y-84169523D01*
X161228095Y-84360000D01*
X161418571Y-84550476D01*
X161609047Y-84931428D01*
X161609047Y-85502857D01*
X161418571Y-85883809D01*
X161228095Y-86074285D01*
X160847142Y-86264761D01*
X159323333Y-86264761D01*
X164847142Y-87979047D02*
X164466190Y-88169523D01*
X163704285Y-88169523D01*
X163323333Y-87979047D01*
X163132857Y-87598095D01*
X163132857Y-86074285D01*
X163323333Y-85693333D01*
X163704285Y-85502857D01*
X164466190Y-85502857D01*
X164847142Y-85693333D01*
X165037619Y-86074285D01*
X165037619Y-86455238D01*
X163132857Y-86836190D01*
X166370952Y-85502857D02*
X167323333Y-88169523D01*
X168275714Y-85502857D01*
X169799523Y-88169523D02*
X169799523Y-85502857D01*
X169799523Y-84169523D02*
X169609047Y-84360000D01*
X169799523Y-84550476D01*
X169990000Y-84360000D01*
X169799523Y-84169523D01*
X169799523Y-84550476D01*
X171513809Y-87979047D02*
X171894761Y-88169523D01*
X172656666Y-88169523D01*
X173037619Y-87979047D01*
X173228095Y-87598095D01*
X173228095Y-87407619D01*
X173037619Y-87026666D01*
X172656666Y-86836190D01*
X172085238Y-86836190D01*
X171704285Y-86645714D01*
X171513809Y-86264761D01*
X171513809Y-86074285D01*
X171704285Y-85693333D01*
X172085238Y-85502857D01*
X172656666Y-85502857D01*
X173037619Y-85693333D01*
X174942380Y-88169523D02*
X174942380Y-85502857D01*
X174942380Y-84169523D02*
X174751904Y-84360000D01*
X174942380Y-84550476D01*
X175132857Y-84360000D01*
X174942380Y-84169523D01*
X174942380Y-84550476D01*
X177418571Y-88169523D02*
X177037619Y-87979047D01*
X176847142Y-87788571D01*
X176656666Y-87407619D01*
X176656666Y-86264761D01*
X176847142Y-85883809D01*
X177037619Y-85693333D01*
X177418571Y-85502857D01*
X177990000Y-85502857D01*
X178370952Y-85693333D01*
X178561428Y-85883809D01*
X178751904Y-86264761D01*
X178751904Y-87407619D01*
X178561428Y-87788571D01*
X178370952Y-87979047D01*
X177990000Y-88169523D01*
X177418571Y-88169523D01*
X180466190Y-85502857D02*
X180466190Y-88169523D01*
X180466190Y-85883809D02*
X180656666Y-85693333D01*
X181037619Y-85502857D01*
X181609047Y-85502857D01*
X181990000Y-85693333D01*
X182180476Y-86074285D01*
X182180476Y-88169523D01*
X186942380Y-87026666D02*
X188847142Y-87026666D01*
X186561428Y-88169523D02*
X187894761Y-84169523D01*
X189228095Y-88169523D01*
D12*
%TO.C,U7*%
X112970000Y-98060000D02*
G75*
G02*
X112970000Y-100060000I0J-1000000D01*
G01*
X112970000Y-100060000D02*
X112970000Y-105520000D01*
X112970000Y-105520000D02*
X163890000Y-105520000D01*
X163890000Y-105520000D02*
X163890000Y-92600000D01*
X163890000Y-92600000D02*
X112970000Y-92600000D01*
X112970000Y-92600000D02*
X112970000Y-98060000D01*
X112910000Y-108010000D02*
X163950000Y-108010000D01*
X163950000Y-108010000D02*
X163950000Y-90110000D01*
X163950000Y-90110000D02*
X112910000Y-90110000D01*
X112910000Y-90110000D02*
X112910000Y-108010000D01*
%TO.C,U3*%
X155510000Y-35050000D02*
G75*
G03*
X155510000Y-35050000I-2550000J0D01*
G01*
X153860000Y-35050000D02*
G75*
G03*
X153860000Y-35050000I-900000J0D01*
G01*
X152230000Y-37500000D02*
X152230000Y-81340000D01*
X152230000Y-81340000D02*
X175330000Y-81340000D01*
X175330000Y-81340000D02*
X175330000Y-30740000D01*
X175330000Y-30740000D02*
X152230000Y-30740000D01*
X152230000Y-30740000D02*
X152230000Y-32600000D01*
X154510000Y-30740000D02*
X154510000Y-33000000D01*
X151210000Y-42670000D02*
X151210000Y-40130000D01*
%TO.C,R4*%
X86900000Y-96420000D02*
X86900000Y-99160000D01*
X86900000Y-99160000D02*
X93440000Y-99160000D01*
X93440000Y-99160000D02*
X93440000Y-96420000D01*
X93440000Y-96420000D02*
X86900000Y-96420000D01*
X86130000Y-97790000D02*
X86900000Y-97790000D01*
X94210000Y-97790000D02*
X93440000Y-97790000D01*
%TO.C,R3*%
X86900000Y-101500000D02*
X86900000Y-104240000D01*
X86900000Y-104240000D02*
X93440000Y-104240000D01*
X93440000Y-104240000D02*
X93440000Y-101500000D01*
X93440000Y-101500000D02*
X86900000Y-101500000D01*
X86130000Y-102870000D02*
X86900000Y-102870000D01*
X94210000Y-102870000D02*
X93440000Y-102870000D01*
%TO.C,J5*%
X165160000Y-113090000D02*
X165160000Y-110430000D01*
X116840000Y-113090000D02*
X165160000Y-113090000D01*
X116840000Y-110430000D02*
X165160000Y-110430000D01*
X116840000Y-113090000D02*
X116840000Y-110430000D01*
X115570000Y-113090000D02*
X114240000Y-113090000D01*
X114240000Y-113090000D02*
X114240000Y-111760000D01*
%TO.C,C4*%
X83260000Y-111760000D02*
G75*
G03*
X83260000Y-111760000I-3270000J0D01*
G01*
X79990000Y-108530000D02*
X79990000Y-114990000D01*
X80030000Y-108530000D02*
X80030000Y-114990000D01*
X80070000Y-108530000D02*
X80070000Y-114990000D01*
X80110000Y-108532000D02*
X80110000Y-114988000D01*
X80150000Y-108533000D02*
X80150000Y-114987000D01*
X80190000Y-108536000D02*
X80190000Y-114984000D01*
X80230000Y-108538000D02*
X80230000Y-110720000D01*
X80230000Y-112800000D02*
X80230000Y-114982000D01*
X80270000Y-108542000D02*
X80270000Y-110720000D01*
X80270000Y-112800000D02*
X80270000Y-114978000D01*
X80310000Y-108545000D02*
X80310000Y-110720000D01*
X80310000Y-112800000D02*
X80310000Y-114975000D01*
X80350000Y-108549000D02*
X80350000Y-110720000D01*
X80350000Y-112800000D02*
X80350000Y-114971000D01*
X80390000Y-108554000D02*
X80390000Y-110720000D01*
X80390000Y-112800000D02*
X80390000Y-114966000D01*
X80430000Y-108559000D02*
X80430000Y-110720000D01*
X80430000Y-112800000D02*
X80430000Y-114961000D01*
X80470000Y-108565000D02*
X80470000Y-110720000D01*
X80470000Y-112800000D02*
X80470000Y-114955000D01*
X80510000Y-108571000D02*
X80510000Y-110720000D01*
X80510000Y-112800000D02*
X80510000Y-114949000D01*
X80550000Y-108578000D02*
X80550000Y-110720000D01*
X80550000Y-112800000D02*
X80550000Y-114942000D01*
X80590000Y-108585000D02*
X80590000Y-110720000D01*
X80590000Y-112800000D02*
X80590000Y-114935000D01*
X80630000Y-108593000D02*
X80630000Y-110720000D01*
X80630000Y-112800000D02*
X80630000Y-114927000D01*
X80670000Y-108601000D02*
X80670000Y-110720000D01*
X80670000Y-112800000D02*
X80670000Y-114919000D01*
X80711000Y-108610000D02*
X80711000Y-110720000D01*
X80711000Y-112800000D02*
X80711000Y-114910000D01*
X80751000Y-108619000D02*
X80751000Y-110720000D01*
X80751000Y-112800000D02*
X80751000Y-114901000D01*
X80791000Y-108629000D02*
X80791000Y-110720000D01*
X80791000Y-112800000D02*
X80791000Y-114891000D01*
X80831000Y-108639000D02*
X80831000Y-110720000D01*
X80831000Y-112800000D02*
X80831000Y-114881000D01*
X80871000Y-108650000D02*
X80871000Y-110720000D01*
X80871000Y-112800000D02*
X80871000Y-114870000D01*
X80911000Y-108662000D02*
X80911000Y-110720000D01*
X80911000Y-112800000D02*
X80911000Y-114858000D01*
X80951000Y-108674000D02*
X80951000Y-110720000D01*
X80951000Y-112800000D02*
X80951000Y-114846000D01*
X80991000Y-108686000D02*
X80991000Y-110720000D01*
X80991000Y-112800000D02*
X80991000Y-114834000D01*
X81031000Y-108699000D02*
X81031000Y-110720000D01*
X81031000Y-112800000D02*
X81031000Y-114821000D01*
X81071000Y-108713000D02*
X81071000Y-110720000D01*
X81071000Y-112800000D02*
X81071000Y-114807000D01*
X81111000Y-108727000D02*
X81111000Y-110720000D01*
X81111000Y-112800000D02*
X81111000Y-114793000D01*
X81151000Y-108742000D02*
X81151000Y-110720000D01*
X81151000Y-112800000D02*
X81151000Y-114778000D01*
X81191000Y-108758000D02*
X81191000Y-110720000D01*
X81191000Y-112800000D02*
X81191000Y-114762000D01*
X81231000Y-108774000D02*
X81231000Y-110720000D01*
X81231000Y-112800000D02*
X81231000Y-114746000D01*
X81271000Y-108790000D02*
X81271000Y-110720000D01*
X81271000Y-112800000D02*
X81271000Y-114730000D01*
X81311000Y-108808000D02*
X81311000Y-110720000D01*
X81311000Y-112800000D02*
X81311000Y-114712000D01*
X81351000Y-108826000D02*
X81351000Y-110720000D01*
X81351000Y-112800000D02*
X81351000Y-114694000D01*
X81391000Y-108844000D02*
X81391000Y-110720000D01*
X81391000Y-112800000D02*
X81391000Y-114676000D01*
X81431000Y-108864000D02*
X81431000Y-110720000D01*
X81431000Y-112800000D02*
X81431000Y-114656000D01*
X81471000Y-108884000D02*
X81471000Y-110720000D01*
X81471000Y-112800000D02*
X81471000Y-114636000D01*
X81511000Y-108904000D02*
X81511000Y-110720000D01*
X81511000Y-112800000D02*
X81511000Y-114616000D01*
X81551000Y-108926000D02*
X81551000Y-110720000D01*
X81551000Y-112800000D02*
X81551000Y-114594000D01*
X81591000Y-108948000D02*
X81591000Y-110720000D01*
X81591000Y-112800000D02*
X81591000Y-114572000D01*
X81631000Y-108970000D02*
X81631000Y-110720000D01*
X81631000Y-112800000D02*
X81631000Y-114550000D01*
X81671000Y-108994000D02*
X81671000Y-110720000D01*
X81671000Y-112800000D02*
X81671000Y-114526000D01*
X81711000Y-109018000D02*
X81711000Y-110720000D01*
X81711000Y-112800000D02*
X81711000Y-114502000D01*
X81751000Y-109044000D02*
X81751000Y-110720000D01*
X81751000Y-112800000D02*
X81751000Y-114476000D01*
X81791000Y-109070000D02*
X81791000Y-110720000D01*
X81791000Y-112800000D02*
X81791000Y-114450000D01*
X81831000Y-109096000D02*
X81831000Y-110720000D01*
X81831000Y-112800000D02*
X81831000Y-114424000D01*
X81871000Y-109124000D02*
X81871000Y-110720000D01*
X81871000Y-112800000D02*
X81871000Y-114396000D01*
X81911000Y-109153000D02*
X81911000Y-110720000D01*
X81911000Y-112800000D02*
X81911000Y-114367000D01*
X81951000Y-109182000D02*
X81951000Y-110720000D01*
X81951000Y-112800000D02*
X81951000Y-114338000D01*
X81991000Y-109212000D02*
X81991000Y-110720000D01*
X81991000Y-112800000D02*
X81991000Y-114308000D01*
X82031000Y-109244000D02*
X82031000Y-110720000D01*
X82031000Y-112800000D02*
X82031000Y-114276000D01*
X82071000Y-109276000D02*
X82071000Y-110720000D01*
X82071000Y-112800000D02*
X82071000Y-114244000D01*
X82111000Y-109310000D02*
X82111000Y-110720000D01*
X82111000Y-112800000D02*
X82111000Y-114210000D01*
X82151000Y-109344000D02*
X82151000Y-110720000D01*
X82151000Y-112800000D02*
X82151000Y-114176000D01*
X82191000Y-109380000D02*
X82191000Y-110720000D01*
X82191000Y-112800000D02*
X82191000Y-114140000D01*
X82231000Y-109417000D02*
X82231000Y-110720000D01*
X82231000Y-112800000D02*
X82231000Y-114103000D01*
X82271000Y-109455000D02*
X82271000Y-110720000D01*
X82271000Y-112800000D02*
X82271000Y-114065000D01*
X82311000Y-109495000D02*
X82311000Y-114025000D01*
X82351000Y-109536000D02*
X82351000Y-113984000D01*
X82391000Y-109578000D02*
X82391000Y-113942000D01*
X82431000Y-109623000D02*
X82431000Y-113897000D01*
X82471000Y-109668000D02*
X82471000Y-113852000D01*
X82511000Y-109716000D02*
X82511000Y-113804000D01*
X82551000Y-109765000D02*
X82551000Y-113755000D01*
X82591000Y-109816000D02*
X82591000Y-113704000D01*
X82631000Y-109870000D02*
X82631000Y-113650000D01*
X82671000Y-109926000D02*
X82671000Y-113594000D01*
X82711000Y-109984000D02*
X82711000Y-113536000D01*
X82751000Y-110046000D02*
X82751000Y-113474000D01*
X82791000Y-110110000D02*
X82791000Y-113410000D01*
X82831000Y-110179000D02*
X82831000Y-113341000D01*
X82871000Y-110251000D02*
X82871000Y-113269000D01*
X82911000Y-110328000D02*
X82911000Y-113192000D01*
X82951000Y-110410000D02*
X82951000Y-113110000D01*
X82991000Y-110498000D02*
X82991000Y-113022000D01*
X83031000Y-110595000D02*
X83031000Y-112925000D01*
X83071000Y-110701000D02*
X83071000Y-112819000D01*
X83111000Y-110820000D02*
X83111000Y-112700000D01*
X83151000Y-110958000D02*
X83151000Y-112562000D01*
X83191000Y-111127000D02*
X83191000Y-112393000D01*
X83231000Y-111358000D02*
X83231000Y-112162000D01*
X76489759Y-109921000D02*
X77119759Y-109921000D01*
X76804759Y-109606000D02*
X76804759Y-110236000D01*
%TO.C,X1*%
X188060000Y-114590000D02*
X188060000Y-94440000D01*
X187310000Y-93690000D02*
X175910000Y-93690000D01*
X175160000Y-94440000D02*
X175160000Y-113840000D01*
X175910000Y-114590000D02*
X188060000Y-114590000D01*
X175160000Y-113840000D02*
G75*
G03*
X175910000Y-114590000I750000J0D01*
G01*
X175910000Y-93690000D02*
G75*
G03*
X175160000Y-94440000I0J-750000D01*
G01*
X188060000Y-94440000D02*
G75*
G03*
X187310000Y-93690000I-750000J0D01*
G01*
%TO.C,U6*%
X104400000Y-34930000D02*
X86500000Y-34930000D01*
X104400000Y-85970000D02*
X104400000Y-34930000D01*
X86500000Y-85970000D02*
X104400000Y-85970000D01*
X86500000Y-34930000D02*
X86500000Y-85970000D01*
X101910000Y-34990000D02*
X96450000Y-34990000D01*
X101910000Y-85910000D02*
X101910000Y-34990000D01*
X88990000Y-85910000D02*
X101910000Y-85910000D01*
X88990000Y-34990000D02*
X88990000Y-85910000D01*
X94450000Y-34990000D02*
X88990000Y-34990000D01*
X96450000Y-34990000D02*
G75*
G02*
X94450000Y-34990000I-1000000J0D01*
G01*
%TO.C,U5*%
X144470000Y-36200000D02*
X134190000Y-36200000D01*
X144470000Y-72000000D02*
X144470000Y-36200000D01*
X134190000Y-72000000D02*
X144470000Y-72000000D01*
X134190000Y-36200000D02*
X134190000Y-72000000D01*
X141980000Y-36260000D02*
X140330000Y-36260000D01*
X141980000Y-71940000D02*
X141980000Y-36260000D01*
X136680000Y-71940000D02*
X141980000Y-71940000D01*
X136680000Y-36260000D02*
X136680000Y-71940000D01*
X138330000Y-36260000D02*
X136680000Y-36260000D01*
X140330000Y-36260000D02*
G75*
G02*
X138330000Y-36260000I-1000000J0D01*
G01*
%TO.C,U4*%
X106150000Y-93290000D02*
X109750000Y-93290000D01*
X109788478Y-93278478D02*
G75*
G03*
X107950000Y-88840000I-1838478J1838478D01*
G01*
X106111522Y-93278478D02*
G75*
G02*
X107950000Y-88840000I1838478J1838478D01*
G01*
%TO.C,U2*%
X186750000Y-39250000D02*
X176470000Y-39250000D01*
X186750000Y-57270000D02*
X186750000Y-39250000D01*
X176470000Y-57270000D02*
X186750000Y-57270000D01*
X176470000Y-39250000D02*
X176470000Y-57270000D01*
X184260000Y-39310000D02*
X182610000Y-39310000D01*
X184260000Y-57210000D02*
X184260000Y-39310000D01*
X178960000Y-57210000D02*
X184260000Y-57210000D01*
X178960000Y-39310000D02*
X178960000Y-57210000D01*
X180610000Y-39310000D02*
X178960000Y-39310000D01*
X182610000Y-39310000D02*
G75*
G02*
X180610000Y-39310000I-1000000J0D01*
G01*
%TO.C,U1*%
X128880000Y-34930000D02*
X110980000Y-34930000D01*
X128880000Y-85970000D02*
X128880000Y-34930000D01*
X110980000Y-85970000D02*
X128880000Y-85970000D01*
X110980000Y-34930000D02*
X110980000Y-85970000D01*
X126390000Y-34990000D02*
X120930000Y-34990000D01*
X126390000Y-85910000D02*
X126390000Y-34990000D01*
X113470000Y-85910000D02*
X126390000Y-85910000D01*
X113470000Y-34990000D02*
X113470000Y-85910000D01*
X118930000Y-34990000D02*
X113470000Y-34990000D01*
X120930000Y-34990000D02*
G75*
G02*
X118930000Y-34990000I-1000000J0D01*
G01*
%TO.C,SW1*%
X82950000Y-90630000D02*
X82950000Y-89130000D01*
X81700000Y-86630000D02*
X77200000Y-86630000D01*
X75950000Y-89130000D02*
X75950000Y-90630000D01*
X77200000Y-93130000D02*
X81700000Y-93130000D01*
%TO.C,R2*%
X94210000Y-107950000D02*
X93440000Y-107950000D01*
X86130000Y-107950000D02*
X86900000Y-107950000D01*
X93440000Y-106580000D02*
X86900000Y-106580000D01*
X93440000Y-109320000D02*
X93440000Y-106580000D01*
X86900000Y-109320000D02*
X93440000Y-109320000D01*
X86900000Y-106580000D02*
X86900000Y-109320000D01*
%TO.C,R1*%
X94210000Y-113030000D02*
X93440000Y-113030000D01*
X86130000Y-113030000D02*
X86900000Y-113030000D01*
X93440000Y-111660000D02*
X86900000Y-111660000D01*
X93440000Y-114400000D02*
X93440000Y-111660000D01*
X86900000Y-114400000D02*
X93440000Y-114400000D01*
X86900000Y-111660000D02*
X86900000Y-114400000D01*
%TO.C,J4*%
X101870000Y-101870000D02*
X102870000Y-101870000D01*
X101870000Y-102870000D02*
X101870000Y-101870000D01*
X103752114Y-113180000D02*
X104310000Y-113180000D01*
X103752114Y-112560000D02*
X104310000Y-112560000D01*
X110130000Y-113180000D02*
X105930000Y-113180000D01*
X110130000Y-112560000D02*
X110130000Y-113180000D01*
X105930000Y-112560000D02*
X110130000Y-112560000D01*
X104310000Y-111870000D02*
X105930000Y-111870000D01*
X103752114Y-111180000D02*
X104310000Y-111180000D01*
X103752114Y-110560000D02*
X104310000Y-110560000D01*
X110130000Y-111180000D02*
X105930000Y-111180000D01*
X110130000Y-110560000D02*
X110130000Y-111180000D01*
X105930000Y-110560000D02*
X110130000Y-110560000D01*
X104310000Y-109870000D02*
X105930000Y-109870000D01*
X103752114Y-109180000D02*
X104310000Y-109180000D01*
X103752114Y-108560000D02*
X104310000Y-108560000D01*
X110130000Y-109180000D02*
X105930000Y-109180000D01*
X110130000Y-108560000D02*
X110130000Y-109180000D01*
X105930000Y-108560000D02*
X110130000Y-108560000D01*
X104310000Y-107870000D02*
X105930000Y-107870000D01*
X103752114Y-107180000D02*
X104310000Y-107180000D01*
X103752114Y-106560000D02*
X104310000Y-106560000D01*
X110130000Y-107180000D02*
X105930000Y-107180000D01*
X110130000Y-106560000D02*
X110130000Y-107180000D01*
X105930000Y-106560000D02*
X110130000Y-106560000D01*
X104310000Y-105870000D02*
X105930000Y-105870000D01*
X103752114Y-105180000D02*
X104310000Y-105180000D01*
X103752114Y-104560000D02*
X104310000Y-104560000D01*
X110130000Y-105180000D02*
X105930000Y-105180000D01*
X110130000Y-104560000D02*
X110130000Y-105180000D01*
X105930000Y-104560000D02*
X110130000Y-104560000D01*
X104310000Y-103870000D02*
X105930000Y-103870000D01*
X103805000Y-103180000D02*
X104310000Y-103180000D01*
X103805000Y-102560000D02*
X104310000Y-102560000D01*
X105930000Y-103100000D02*
X110130000Y-103100000D01*
X105930000Y-102980000D02*
X110130000Y-102980000D01*
X105930000Y-102860000D02*
X110130000Y-102860000D01*
X105930000Y-102740000D02*
X110130000Y-102740000D01*
X105930000Y-102620000D02*
X110130000Y-102620000D01*
X110130000Y-103180000D02*
X105930000Y-103180000D01*
X110130000Y-102560000D02*
X110130000Y-103180000D01*
X105930000Y-102560000D02*
X110130000Y-102560000D01*
X105930000Y-101810000D02*
X104310000Y-101810000D01*
X105930000Y-113930000D02*
X105930000Y-101810000D01*
X104310000Y-113930000D02*
X105930000Y-113930000D01*
X104310000Y-101810000D02*
X104310000Y-113930000D01*
%TO.C,J3*%
X73660000Y-109220000D02*
X73660000Y-99060000D01*
X66040000Y-109220000D02*
X73660000Y-109220000D01*
X66040000Y-99060000D02*
X66040000Y-109220000D01*
X73660000Y-99060000D02*
X66040000Y-99060000D01*
X72390000Y-99060000D02*
X72390000Y-109220000D01*
%TO.C,J2*%
X71120000Y-40580000D02*
X72450000Y-40580000D01*
X72450000Y-40580000D02*
X72450000Y-41910000D01*
X69850000Y-40580000D02*
X69850000Y-43180000D01*
X69850000Y-43180000D02*
X72450000Y-43180000D01*
X72450000Y-43180000D02*
X72450000Y-58480000D01*
X67250000Y-58480000D02*
X72450000Y-58480000D01*
X67250000Y-40580000D02*
X67250000Y-58480000D01*
X67250000Y-40580000D02*
X69850000Y-40580000D01*
%TO.C,J1*%
X71120000Y-64710000D02*
X72450000Y-64710000D01*
X72450000Y-64710000D02*
X72450000Y-66040000D01*
X69850000Y-64710000D02*
X69850000Y-67310000D01*
X69850000Y-67310000D02*
X72450000Y-67310000D01*
X72450000Y-67310000D02*
X72450000Y-82610000D01*
X67250000Y-82610000D02*
X72450000Y-82610000D01*
X67250000Y-64710000D02*
X67250000Y-82610000D01*
X67250000Y-64710000D02*
X69850000Y-64710000D01*
%TO.C,C10*%
X180305225Y-31295000D02*
X180305225Y-31795000D01*
X180055225Y-31545000D02*
X180555225Y-31545000D01*
X185461000Y-32736000D02*
X185461000Y-33304000D01*
X185421000Y-32502000D02*
X185421000Y-33538000D01*
X185381000Y-32343000D02*
X185381000Y-33697000D01*
X185341000Y-32215000D02*
X185341000Y-33825000D01*
X185301000Y-32105000D02*
X185301000Y-33935000D01*
X185261000Y-32009000D02*
X185261000Y-34031000D01*
X185221000Y-31922000D02*
X185221000Y-34118000D01*
X185181000Y-31842000D02*
X185181000Y-34198000D01*
X185141000Y-34060000D02*
X185141000Y-34271000D01*
X185141000Y-31769000D02*
X185141000Y-31980000D01*
X185101000Y-34060000D02*
X185101000Y-34339000D01*
X185101000Y-31701000D02*
X185101000Y-31980000D01*
X185061000Y-34060000D02*
X185061000Y-34403000D01*
X185061000Y-31637000D02*
X185061000Y-31980000D01*
X185021000Y-34060000D02*
X185021000Y-34463000D01*
X185021000Y-31577000D02*
X185021000Y-31980000D01*
X184981000Y-34060000D02*
X184981000Y-34520000D01*
X184981000Y-31520000D02*
X184981000Y-31980000D01*
X184941000Y-34060000D02*
X184941000Y-34574000D01*
X184941000Y-31466000D02*
X184941000Y-31980000D01*
X184901000Y-34060000D02*
X184901000Y-34625000D01*
X184901000Y-31415000D02*
X184901000Y-31980000D01*
X184861000Y-34060000D02*
X184861000Y-34673000D01*
X184861000Y-31367000D02*
X184861000Y-31980000D01*
X184821000Y-34060000D02*
X184821000Y-34719000D01*
X184821000Y-31321000D02*
X184821000Y-31980000D01*
X184781000Y-34060000D02*
X184781000Y-34763000D01*
X184781000Y-31277000D02*
X184781000Y-31980000D01*
X184741000Y-34060000D02*
X184741000Y-34805000D01*
X184741000Y-31235000D02*
X184741000Y-31980000D01*
X184701000Y-34060000D02*
X184701000Y-34846000D01*
X184701000Y-31194000D02*
X184701000Y-31980000D01*
X184661000Y-34060000D02*
X184661000Y-34884000D01*
X184661000Y-31156000D02*
X184661000Y-31980000D01*
X184621000Y-34060000D02*
X184621000Y-34921000D01*
X184621000Y-31119000D02*
X184621000Y-31980000D01*
X184581000Y-34060000D02*
X184581000Y-34957000D01*
X184581000Y-31083000D02*
X184581000Y-31980000D01*
X184541000Y-34060000D02*
X184541000Y-34991000D01*
X184541000Y-31049000D02*
X184541000Y-31980000D01*
X184501000Y-34060000D02*
X184501000Y-35024000D01*
X184501000Y-31016000D02*
X184501000Y-31980000D01*
X184461000Y-34060000D02*
X184461000Y-35055000D01*
X184461000Y-30985000D02*
X184461000Y-31980000D01*
X184421000Y-34060000D02*
X184421000Y-35085000D01*
X184421000Y-30955000D02*
X184421000Y-31980000D01*
X184381000Y-34060000D02*
X184381000Y-35115000D01*
X184381000Y-30925000D02*
X184381000Y-31980000D01*
X184341000Y-34060000D02*
X184341000Y-35142000D01*
X184341000Y-30898000D02*
X184341000Y-31980000D01*
X184301000Y-34060000D02*
X184301000Y-35169000D01*
X184301000Y-30871000D02*
X184301000Y-31980000D01*
X184261000Y-34060000D02*
X184261000Y-35195000D01*
X184261000Y-30845000D02*
X184261000Y-31980000D01*
X184221000Y-34060000D02*
X184221000Y-35220000D01*
X184221000Y-30820000D02*
X184221000Y-31980000D01*
X184181000Y-34060000D02*
X184181000Y-35244000D01*
X184181000Y-30796000D02*
X184181000Y-31980000D01*
X184141000Y-34060000D02*
X184141000Y-35267000D01*
X184141000Y-30773000D02*
X184141000Y-31980000D01*
X184101000Y-34060000D02*
X184101000Y-35288000D01*
X184101000Y-30752000D02*
X184101000Y-31980000D01*
X184061000Y-34060000D02*
X184061000Y-35310000D01*
X184061000Y-30730000D02*
X184061000Y-31980000D01*
X184021000Y-34060000D02*
X184021000Y-35330000D01*
X184021000Y-30710000D02*
X184021000Y-31980000D01*
X183981000Y-34060000D02*
X183981000Y-35349000D01*
X183981000Y-30691000D02*
X183981000Y-31980000D01*
X183941000Y-34060000D02*
X183941000Y-35368000D01*
X183941000Y-30672000D02*
X183941000Y-31980000D01*
X183901000Y-34060000D02*
X183901000Y-35385000D01*
X183901000Y-30655000D02*
X183901000Y-31980000D01*
X183861000Y-34060000D02*
X183861000Y-35402000D01*
X183861000Y-30638000D02*
X183861000Y-31980000D01*
X183821000Y-34060000D02*
X183821000Y-35418000D01*
X183821000Y-30622000D02*
X183821000Y-31980000D01*
X183781000Y-34060000D02*
X183781000Y-35434000D01*
X183781000Y-30606000D02*
X183781000Y-31980000D01*
X183741000Y-34060000D02*
X183741000Y-35448000D01*
X183741000Y-30592000D02*
X183741000Y-31980000D01*
X183701000Y-34060000D02*
X183701000Y-35462000D01*
X183701000Y-30578000D02*
X183701000Y-31980000D01*
X183661000Y-34060000D02*
X183661000Y-35475000D01*
X183661000Y-30565000D02*
X183661000Y-31980000D01*
X183621000Y-34060000D02*
X183621000Y-35488000D01*
X183621000Y-30552000D02*
X183621000Y-31980000D01*
X183581000Y-34060000D02*
X183581000Y-35500000D01*
X183581000Y-30540000D02*
X183581000Y-31980000D01*
X183540000Y-34060000D02*
X183540000Y-35511000D01*
X183540000Y-30529000D02*
X183540000Y-31980000D01*
X183500000Y-34060000D02*
X183500000Y-35521000D01*
X183500000Y-30519000D02*
X183500000Y-31980000D01*
X183460000Y-34060000D02*
X183460000Y-35531000D01*
X183460000Y-30509000D02*
X183460000Y-31980000D01*
X183420000Y-34060000D02*
X183420000Y-35540000D01*
X183420000Y-30500000D02*
X183420000Y-31980000D01*
X183380000Y-34060000D02*
X183380000Y-35548000D01*
X183380000Y-30492000D02*
X183380000Y-31980000D01*
X183340000Y-34060000D02*
X183340000Y-35556000D01*
X183340000Y-30484000D02*
X183340000Y-31980000D01*
X183300000Y-34060000D02*
X183300000Y-35563000D01*
X183300000Y-30477000D02*
X183300000Y-31980000D01*
X183260000Y-34060000D02*
X183260000Y-35570000D01*
X183260000Y-30470000D02*
X183260000Y-31980000D01*
X183220000Y-34060000D02*
X183220000Y-35576000D01*
X183220000Y-30464000D02*
X183220000Y-31980000D01*
X183180000Y-34060000D02*
X183180000Y-35581000D01*
X183180000Y-30459000D02*
X183180000Y-31980000D01*
X183140000Y-34060000D02*
X183140000Y-35585000D01*
X183140000Y-30455000D02*
X183140000Y-31980000D01*
X183100000Y-34060000D02*
X183100000Y-35589000D01*
X183100000Y-30451000D02*
X183100000Y-31980000D01*
X183060000Y-30447000D02*
X183060000Y-35593000D01*
X183020000Y-30444000D02*
X183020000Y-35596000D01*
X182980000Y-30442000D02*
X182980000Y-35598000D01*
X182940000Y-30441000D02*
X182940000Y-35599000D01*
X182900000Y-30440000D02*
X182900000Y-35600000D01*
X182860000Y-30440000D02*
X182860000Y-35600000D01*
X185480000Y-33020000D02*
G75*
G03*
X185480000Y-33020000I-2620000J0D01*
G01*
%TO.C,C9*%
X134585225Y-31295000D02*
X134585225Y-31795000D01*
X134335225Y-31545000D02*
X134835225Y-31545000D01*
X139741000Y-32736000D02*
X139741000Y-33304000D01*
X139701000Y-32502000D02*
X139701000Y-33538000D01*
X139661000Y-32343000D02*
X139661000Y-33697000D01*
X139621000Y-32215000D02*
X139621000Y-33825000D01*
X139581000Y-32105000D02*
X139581000Y-33935000D01*
X139541000Y-32009000D02*
X139541000Y-34031000D01*
X139501000Y-31922000D02*
X139501000Y-34118000D01*
X139461000Y-31842000D02*
X139461000Y-34198000D01*
X139421000Y-34060000D02*
X139421000Y-34271000D01*
X139421000Y-31769000D02*
X139421000Y-31980000D01*
X139381000Y-34060000D02*
X139381000Y-34339000D01*
X139381000Y-31701000D02*
X139381000Y-31980000D01*
X139341000Y-34060000D02*
X139341000Y-34403000D01*
X139341000Y-31637000D02*
X139341000Y-31980000D01*
X139301000Y-34060000D02*
X139301000Y-34463000D01*
X139301000Y-31577000D02*
X139301000Y-31980000D01*
X139261000Y-34060000D02*
X139261000Y-34520000D01*
X139261000Y-31520000D02*
X139261000Y-31980000D01*
X139221000Y-34060000D02*
X139221000Y-34574000D01*
X139221000Y-31466000D02*
X139221000Y-31980000D01*
X139181000Y-34060000D02*
X139181000Y-34625000D01*
X139181000Y-31415000D02*
X139181000Y-31980000D01*
X139141000Y-34060000D02*
X139141000Y-34673000D01*
X139141000Y-31367000D02*
X139141000Y-31980000D01*
X139101000Y-34060000D02*
X139101000Y-34719000D01*
X139101000Y-31321000D02*
X139101000Y-31980000D01*
X139061000Y-34060000D02*
X139061000Y-34763000D01*
X139061000Y-31277000D02*
X139061000Y-31980000D01*
X139021000Y-34060000D02*
X139021000Y-34805000D01*
X139021000Y-31235000D02*
X139021000Y-31980000D01*
X138981000Y-34060000D02*
X138981000Y-34846000D01*
X138981000Y-31194000D02*
X138981000Y-31980000D01*
X138941000Y-34060000D02*
X138941000Y-34884000D01*
X138941000Y-31156000D02*
X138941000Y-31980000D01*
X138901000Y-34060000D02*
X138901000Y-34921000D01*
X138901000Y-31119000D02*
X138901000Y-31980000D01*
X138861000Y-34060000D02*
X138861000Y-34957000D01*
X138861000Y-31083000D02*
X138861000Y-31980000D01*
X138821000Y-34060000D02*
X138821000Y-34991000D01*
X138821000Y-31049000D02*
X138821000Y-31980000D01*
X138781000Y-34060000D02*
X138781000Y-35024000D01*
X138781000Y-31016000D02*
X138781000Y-31980000D01*
X138741000Y-34060000D02*
X138741000Y-35055000D01*
X138741000Y-30985000D02*
X138741000Y-31980000D01*
X138701000Y-34060000D02*
X138701000Y-35085000D01*
X138701000Y-30955000D02*
X138701000Y-31980000D01*
X138661000Y-34060000D02*
X138661000Y-35115000D01*
X138661000Y-30925000D02*
X138661000Y-31980000D01*
X138621000Y-34060000D02*
X138621000Y-35142000D01*
X138621000Y-30898000D02*
X138621000Y-31980000D01*
X138581000Y-34060000D02*
X138581000Y-35169000D01*
X138581000Y-30871000D02*
X138581000Y-31980000D01*
X138541000Y-34060000D02*
X138541000Y-35195000D01*
X138541000Y-30845000D02*
X138541000Y-31980000D01*
X138501000Y-34060000D02*
X138501000Y-35220000D01*
X138501000Y-30820000D02*
X138501000Y-31980000D01*
X138461000Y-34060000D02*
X138461000Y-35244000D01*
X138461000Y-30796000D02*
X138461000Y-31980000D01*
X138421000Y-34060000D02*
X138421000Y-35267000D01*
X138421000Y-30773000D02*
X138421000Y-31980000D01*
X138381000Y-34060000D02*
X138381000Y-35288000D01*
X138381000Y-30752000D02*
X138381000Y-31980000D01*
X138341000Y-34060000D02*
X138341000Y-35310000D01*
X138341000Y-30730000D02*
X138341000Y-31980000D01*
X138301000Y-34060000D02*
X138301000Y-35330000D01*
X138301000Y-30710000D02*
X138301000Y-31980000D01*
X138261000Y-34060000D02*
X138261000Y-35349000D01*
X138261000Y-30691000D02*
X138261000Y-31980000D01*
X138221000Y-34060000D02*
X138221000Y-35368000D01*
X138221000Y-30672000D02*
X138221000Y-31980000D01*
X138181000Y-34060000D02*
X138181000Y-35385000D01*
X138181000Y-30655000D02*
X138181000Y-31980000D01*
X138141000Y-34060000D02*
X138141000Y-35402000D01*
X138141000Y-30638000D02*
X138141000Y-31980000D01*
X138101000Y-34060000D02*
X138101000Y-35418000D01*
X138101000Y-30622000D02*
X138101000Y-31980000D01*
X138061000Y-34060000D02*
X138061000Y-35434000D01*
X138061000Y-30606000D02*
X138061000Y-31980000D01*
X138021000Y-34060000D02*
X138021000Y-35448000D01*
X138021000Y-30592000D02*
X138021000Y-31980000D01*
X137981000Y-34060000D02*
X137981000Y-35462000D01*
X137981000Y-30578000D02*
X137981000Y-31980000D01*
X137941000Y-34060000D02*
X137941000Y-35475000D01*
X137941000Y-30565000D02*
X137941000Y-31980000D01*
X137901000Y-34060000D02*
X137901000Y-35488000D01*
X137901000Y-30552000D02*
X137901000Y-31980000D01*
X137861000Y-34060000D02*
X137861000Y-35500000D01*
X137861000Y-30540000D02*
X137861000Y-31980000D01*
X137820000Y-34060000D02*
X137820000Y-35511000D01*
X137820000Y-30529000D02*
X137820000Y-31980000D01*
X137780000Y-34060000D02*
X137780000Y-35521000D01*
X137780000Y-30519000D02*
X137780000Y-31980000D01*
X137740000Y-34060000D02*
X137740000Y-35531000D01*
X137740000Y-30509000D02*
X137740000Y-31980000D01*
X137700000Y-34060000D02*
X137700000Y-35540000D01*
X137700000Y-30500000D02*
X137700000Y-31980000D01*
X137660000Y-34060000D02*
X137660000Y-35548000D01*
X137660000Y-30492000D02*
X137660000Y-31980000D01*
X137620000Y-34060000D02*
X137620000Y-35556000D01*
X137620000Y-30484000D02*
X137620000Y-31980000D01*
X137580000Y-34060000D02*
X137580000Y-35563000D01*
X137580000Y-30477000D02*
X137580000Y-31980000D01*
X137540000Y-34060000D02*
X137540000Y-35570000D01*
X137540000Y-30470000D02*
X137540000Y-31980000D01*
X137500000Y-34060000D02*
X137500000Y-35576000D01*
X137500000Y-30464000D02*
X137500000Y-31980000D01*
X137460000Y-34060000D02*
X137460000Y-35581000D01*
X137460000Y-30459000D02*
X137460000Y-31980000D01*
X137420000Y-34060000D02*
X137420000Y-35585000D01*
X137420000Y-30455000D02*
X137420000Y-31980000D01*
X137380000Y-34060000D02*
X137380000Y-35589000D01*
X137380000Y-30451000D02*
X137380000Y-31980000D01*
X137340000Y-30447000D02*
X137340000Y-35593000D01*
X137300000Y-30444000D02*
X137300000Y-35596000D01*
X137260000Y-30442000D02*
X137260000Y-35598000D01*
X137220000Y-30441000D02*
X137220000Y-35599000D01*
X137180000Y-30440000D02*
X137180000Y-35600000D01*
X137140000Y-30440000D02*
X137140000Y-35600000D01*
X139760000Y-33020000D02*
G75*
G03*
X139760000Y-33020000I-2620000J0D01*
G01*
%TO.C,C8*%
X73625225Y-60505000D02*
X73625225Y-61005000D01*
X73375225Y-60755000D02*
X73875225Y-60755000D01*
X78781000Y-61946000D02*
X78781000Y-62514000D01*
X78741000Y-61712000D02*
X78741000Y-62748000D01*
X78701000Y-61553000D02*
X78701000Y-62907000D01*
X78661000Y-61425000D02*
X78661000Y-63035000D01*
X78621000Y-61315000D02*
X78621000Y-63145000D01*
X78581000Y-61219000D02*
X78581000Y-63241000D01*
X78541000Y-61132000D02*
X78541000Y-63328000D01*
X78501000Y-61052000D02*
X78501000Y-63408000D01*
X78461000Y-63270000D02*
X78461000Y-63481000D01*
X78461000Y-60979000D02*
X78461000Y-61190000D01*
X78421000Y-63270000D02*
X78421000Y-63549000D01*
X78421000Y-60911000D02*
X78421000Y-61190000D01*
X78381000Y-63270000D02*
X78381000Y-63613000D01*
X78381000Y-60847000D02*
X78381000Y-61190000D01*
X78341000Y-63270000D02*
X78341000Y-63673000D01*
X78341000Y-60787000D02*
X78341000Y-61190000D01*
X78301000Y-63270000D02*
X78301000Y-63730000D01*
X78301000Y-60730000D02*
X78301000Y-61190000D01*
X78261000Y-63270000D02*
X78261000Y-63784000D01*
X78261000Y-60676000D02*
X78261000Y-61190000D01*
X78221000Y-63270000D02*
X78221000Y-63835000D01*
X78221000Y-60625000D02*
X78221000Y-61190000D01*
X78181000Y-63270000D02*
X78181000Y-63883000D01*
X78181000Y-60577000D02*
X78181000Y-61190000D01*
X78141000Y-63270000D02*
X78141000Y-63929000D01*
X78141000Y-60531000D02*
X78141000Y-61190000D01*
X78101000Y-63270000D02*
X78101000Y-63973000D01*
X78101000Y-60487000D02*
X78101000Y-61190000D01*
X78061000Y-63270000D02*
X78061000Y-64015000D01*
X78061000Y-60445000D02*
X78061000Y-61190000D01*
X78021000Y-63270000D02*
X78021000Y-64056000D01*
X78021000Y-60404000D02*
X78021000Y-61190000D01*
X77981000Y-63270000D02*
X77981000Y-64094000D01*
X77981000Y-60366000D02*
X77981000Y-61190000D01*
X77941000Y-63270000D02*
X77941000Y-64131000D01*
X77941000Y-60329000D02*
X77941000Y-61190000D01*
X77901000Y-63270000D02*
X77901000Y-64167000D01*
X77901000Y-60293000D02*
X77901000Y-61190000D01*
X77861000Y-63270000D02*
X77861000Y-64201000D01*
X77861000Y-60259000D02*
X77861000Y-61190000D01*
X77821000Y-63270000D02*
X77821000Y-64234000D01*
X77821000Y-60226000D02*
X77821000Y-61190000D01*
X77781000Y-63270000D02*
X77781000Y-64265000D01*
X77781000Y-60195000D02*
X77781000Y-61190000D01*
X77741000Y-63270000D02*
X77741000Y-64295000D01*
X77741000Y-60165000D02*
X77741000Y-61190000D01*
X77701000Y-63270000D02*
X77701000Y-64325000D01*
X77701000Y-60135000D02*
X77701000Y-61190000D01*
X77661000Y-63270000D02*
X77661000Y-64352000D01*
X77661000Y-60108000D02*
X77661000Y-61190000D01*
X77621000Y-63270000D02*
X77621000Y-64379000D01*
X77621000Y-60081000D02*
X77621000Y-61190000D01*
X77581000Y-63270000D02*
X77581000Y-64405000D01*
X77581000Y-60055000D02*
X77581000Y-61190000D01*
X77541000Y-63270000D02*
X77541000Y-64430000D01*
X77541000Y-60030000D02*
X77541000Y-61190000D01*
X77501000Y-63270000D02*
X77501000Y-64454000D01*
X77501000Y-60006000D02*
X77501000Y-61190000D01*
X77461000Y-63270000D02*
X77461000Y-64477000D01*
X77461000Y-59983000D02*
X77461000Y-61190000D01*
X77421000Y-63270000D02*
X77421000Y-64498000D01*
X77421000Y-59962000D02*
X77421000Y-61190000D01*
X77381000Y-63270000D02*
X77381000Y-64520000D01*
X77381000Y-59940000D02*
X77381000Y-61190000D01*
X77341000Y-63270000D02*
X77341000Y-64540000D01*
X77341000Y-59920000D02*
X77341000Y-61190000D01*
X77301000Y-63270000D02*
X77301000Y-64559000D01*
X77301000Y-59901000D02*
X77301000Y-61190000D01*
X77261000Y-63270000D02*
X77261000Y-64578000D01*
X77261000Y-59882000D02*
X77261000Y-61190000D01*
X77221000Y-63270000D02*
X77221000Y-64595000D01*
X77221000Y-59865000D02*
X77221000Y-61190000D01*
X77181000Y-63270000D02*
X77181000Y-64612000D01*
X77181000Y-59848000D02*
X77181000Y-61190000D01*
X77141000Y-63270000D02*
X77141000Y-64628000D01*
X77141000Y-59832000D02*
X77141000Y-61190000D01*
X77101000Y-63270000D02*
X77101000Y-64644000D01*
X77101000Y-59816000D02*
X77101000Y-61190000D01*
X77061000Y-63270000D02*
X77061000Y-64658000D01*
X77061000Y-59802000D02*
X77061000Y-61190000D01*
X77021000Y-63270000D02*
X77021000Y-64672000D01*
X77021000Y-59788000D02*
X77021000Y-61190000D01*
X76981000Y-63270000D02*
X76981000Y-64685000D01*
X76981000Y-59775000D02*
X76981000Y-61190000D01*
X76941000Y-63270000D02*
X76941000Y-64698000D01*
X76941000Y-59762000D02*
X76941000Y-61190000D01*
X76901000Y-63270000D02*
X76901000Y-64710000D01*
X76901000Y-59750000D02*
X76901000Y-61190000D01*
X76860000Y-63270000D02*
X76860000Y-64721000D01*
X76860000Y-59739000D02*
X76860000Y-61190000D01*
X76820000Y-63270000D02*
X76820000Y-64731000D01*
X76820000Y-59729000D02*
X76820000Y-61190000D01*
X76780000Y-63270000D02*
X76780000Y-64741000D01*
X76780000Y-59719000D02*
X76780000Y-61190000D01*
X76740000Y-63270000D02*
X76740000Y-64750000D01*
X76740000Y-59710000D02*
X76740000Y-61190000D01*
X76700000Y-63270000D02*
X76700000Y-64758000D01*
X76700000Y-59702000D02*
X76700000Y-61190000D01*
X76660000Y-63270000D02*
X76660000Y-64766000D01*
X76660000Y-59694000D02*
X76660000Y-61190000D01*
X76620000Y-63270000D02*
X76620000Y-64773000D01*
X76620000Y-59687000D02*
X76620000Y-61190000D01*
X76580000Y-63270000D02*
X76580000Y-64780000D01*
X76580000Y-59680000D02*
X76580000Y-61190000D01*
X76540000Y-63270000D02*
X76540000Y-64786000D01*
X76540000Y-59674000D02*
X76540000Y-61190000D01*
X76500000Y-63270000D02*
X76500000Y-64791000D01*
X76500000Y-59669000D02*
X76500000Y-61190000D01*
X76460000Y-63270000D02*
X76460000Y-64795000D01*
X76460000Y-59665000D02*
X76460000Y-61190000D01*
X76420000Y-63270000D02*
X76420000Y-64799000D01*
X76420000Y-59661000D02*
X76420000Y-61190000D01*
X76380000Y-59657000D02*
X76380000Y-64803000D01*
X76340000Y-59654000D02*
X76340000Y-64806000D01*
X76300000Y-59652000D02*
X76300000Y-64808000D01*
X76260000Y-59651000D02*
X76260000Y-64809000D01*
X76220000Y-59650000D02*
X76220000Y-64810000D01*
X76180000Y-59650000D02*
X76180000Y-64810000D01*
X78800000Y-62230000D02*
G75*
G03*
X78800000Y-62230000I-2620000J0D01*
G01*
%TO.C,C7*%
X67275225Y-32565000D02*
X67275225Y-33065000D01*
X67025225Y-32815000D02*
X67525225Y-32815000D01*
X72431000Y-34006000D02*
X72431000Y-34574000D01*
X72391000Y-33772000D02*
X72391000Y-34808000D01*
X72351000Y-33613000D02*
X72351000Y-34967000D01*
X72311000Y-33485000D02*
X72311000Y-35095000D01*
X72271000Y-33375000D02*
X72271000Y-35205000D01*
X72231000Y-33279000D02*
X72231000Y-35301000D01*
X72191000Y-33192000D02*
X72191000Y-35388000D01*
X72151000Y-33112000D02*
X72151000Y-35468000D01*
X72111000Y-35330000D02*
X72111000Y-35541000D01*
X72111000Y-33039000D02*
X72111000Y-33250000D01*
X72071000Y-35330000D02*
X72071000Y-35609000D01*
X72071000Y-32971000D02*
X72071000Y-33250000D01*
X72031000Y-35330000D02*
X72031000Y-35673000D01*
X72031000Y-32907000D02*
X72031000Y-33250000D01*
X71991000Y-35330000D02*
X71991000Y-35733000D01*
X71991000Y-32847000D02*
X71991000Y-33250000D01*
X71951000Y-35330000D02*
X71951000Y-35790000D01*
X71951000Y-32790000D02*
X71951000Y-33250000D01*
X71911000Y-35330000D02*
X71911000Y-35844000D01*
X71911000Y-32736000D02*
X71911000Y-33250000D01*
X71871000Y-35330000D02*
X71871000Y-35895000D01*
X71871000Y-32685000D02*
X71871000Y-33250000D01*
X71831000Y-35330000D02*
X71831000Y-35943000D01*
X71831000Y-32637000D02*
X71831000Y-33250000D01*
X71791000Y-35330000D02*
X71791000Y-35989000D01*
X71791000Y-32591000D02*
X71791000Y-33250000D01*
X71751000Y-35330000D02*
X71751000Y-36033000D01*
X71751000Y-32547000D02*
X71751000Y-33250000D01*
X71711000Y-35330000D02*
X71711000Y-36075000D01*
X71711000Y-32505000D02*
X71711000Y-33250000D01*
X71671000Y-35330000D02*
X71671000Y-36116000D01*
X71671000Y-32464000D02*
X71671000Y-33250000D01*
X71631000Y-35330000D02*
X71631000Y-36154000D01*
X71631000Y-32426000D02*
X71631000Y-33250000D01*
X71591000Y-35330000D02*
X71591000Y-36191000D01*
X71591000Y-32389000D02*
X71591000Y-33250000D01*
X71551000Y-35330000D02*
X71551000Y-36227000D01*
X71551000Y-32353000D02*
X71551000Y-33250000D01*
X71511000Y-35330000D02*
X71511000Y-36261000D01*
X71511000Y-32319000D02*
X71511000Y-33250000D01*
X71471000Y-35330000D02*
X71471000Y-36294000D01*
X71471000Y-32286000D02*
X71471000Y-33250000D01*
X71431000Y-35330000D02*
X71431000Y-36325000D01*
X71431000Y-32255000D02*
X71431000Y-33250000D01*
X71391000Y-35330000D02*
X71391000Y-36355000D01*
X71391000Y-32225000D02*
X71391000Y-33250000D01*
X71351000Y-35330000D02*
X71351000Y-36385000D01*
X71351000Y-32195000D02*
X71351000Y-33250000D01*
X71311000Y-35330000D02*
X71311000Y-36412000D01*
X71311000Y-32168000D02*
X71311000Y-33250000D01*
X71271000Y-35330000D02*
X71271000Y-36439000D01*
X71271000Y-32141000D02*
X71271000Y-33250000D01*
X71231000Y-35330000D02*
X71231000Y-36465000D01*
X71231000Y-32115000D02*
X71231000Y-33250000D01*
X71191000Y-35330000D02*
X71191000Y-36490000D01*
X71191000Y-32090000D02*
X71191000Y-33250000D01*
X71151000Y-35330000D02*
X71151000Y-36514000D01*
X71151000Y-32066000D02*
X71151000Y-33250000D01*
X71111000Y-35330000D02*
X71111000Y-36537000D01*
X71111000Y-32043000D02*
X71111000Y-33250000D01*
X71071000Y-35330000D02*
X71071000Y-36558000D01*
X71071000Y-32022000D02*
X71071000Y-33250000D01*
X71031000Y-35330000D02*
X71031000Y-36580000D01*
X71031000Y-32000000D02*
X71031000Y-33250000D01*
X70991000Y-35330000D02*
X70991000Y-36600000D01*
X70991000Y-31980000D02*
X70991000Y-33250000D01*
X70951000Y-35330000D02*
X70951000Y-36619000D01*
X70951000Y-31961000D02*
X70951000Y-33250000D01*
X70911000Y-35330000D02*
X70911000Y-36638000D01*
X70911000Y-31942000D02*
X70911000Y-33250000D01*
X70871000Y-35330000D02*
X70871000Y-36655000D01*
X70871000Y-31925000D02*
X70871000Y-33250000D01*
X70831000Y-35330000D02*
X70831000Y-36672000D01*
X70831000Y-31908000D02*
X70831000Y-33250000D01*
X70791000Y-35330000D02*
X70791000Y-36688000D01*
X70791000Y-31892000D02*
X70791000Y-33250000D01*
X70751000Y-35330000D02*
X70751000Y-36704000D01*
X70751000Y-31876000D02*
X70751000Y-33250000D01*
X70711000Y-35330000D02*
X70711000Y-36718000D01*
X70711000Y-31862000D02*
X70711000Y-33250000D01*
X70671000Y-35330000D02*
X70671000Y-36732000D01*
X70671000Y-31848000D02*
X70671000Y-33250000D01*
X70631000Y-35330000D02*
X70631000Y-36745000D01*
X70631000Y-31835000D02*
X70631000Y-33250000D01*
X70591000Y-35330000D02*
X70591000Y-36758000D01*
X70591000Y-31822000D02*
X70591000Y-33250000D01*
X70551000Y-35330000D02*
X70551000Y-36770000D01*
X70551000Y-31810000D02*
X70551000Y-33250000D01*
X70510000Y-35330000D02*
X70510000Y-36781000D01*
X70510000Y-31799000D02*
X70510000Y-33250000D01*
X70470000Y-35330000D02*
X70470000Y-36791000D01*
X70470000Y-31789000D02*
X70470000Y-33250000D01*
X70430000Y-35330000D02*
X70430000Y-36801000D01*
X70430000Y-31779000D02*
X70430000Y-33250000D01*
X70390000Y-35330000D02*
X70390000Y-36810000D01*
X70390000Y-31770000D02*
X70390000Y-33250000D01*
X70350000Y-35330000D02*
X70350000Y-36818000D01*
X70350000Y-31762000D02*
X70350000Y-33250000D01*
X70310000Y-35330000D02*
X70310000Y-36826000D01*
X70310000Y-31754000D02*
X70310000Y-33250000D01*
X70270000Y-35330000D02*
X70270000Y-36833000D01*
X70270000Y-31747000D02*
X70270000Y-33250000D01*
X70230000Y-35330000D02*
X70230000Y-36840000D01*
X70230000Y-31740000D02*
X70230000Y-33250000D01*
X70190000Y-35330000D02*
X70190000Y-36846000D01*
X70190000Y-31734000D02*
X70190000Y-33250000D01*
X70150000Y-35330000D02*
X70150000Y-36851000D01*
X70150000Y-31729000D02*
X70150000Y-33250000D01*
X70110000Y-35330000D02*
X70110000Y-36855000D01*
X70110000Y-31725000D02*
X70110000Y-33250000D01*
X70070000Y-35330000D02*
X70070000Y-36859000D01*
X70070000Y-31721000D02*
X70070000Y-33250000D01*
X70030000Y-31717000D02*
X70030000Y-36863000D01*
X69990000Y-31714000D02*
X69990000Y-36866000D01*
X69950000Y-31712000D02*
X69950000Y-36868000D01*
X69910000Y-31711000D02*
X69910000Y-36869000D01*
X69870000Y-31710000D02*
X69870000Y-36870000D01*
X69830000Y-31710000D02*
X69830000Y-36870000D01*
X72450000Y-34290000D02*
G75*
G03*
X72450000Y-34290000I-2620000J0D01*
G01*
%TO.C,C6*%
X111765225Y-30025000D02*
X111765225Y-30525000D01*
X111515225Y-30275000D02*
X112015225Y-30275000D01*
X116921000Y-31466000D02*
X116921000Y-32034000D01*
X116881000Y-31232000D02*
X116881000Y-32268000D01*
X116841000Y-31073000D02*
X116841000Y-32427000D01*
X116801000Y-30945000D02*
X116801000Y-32555000D01*
X116761000Y-30835000D02*
X116761000Y-32665000D01*
X116721000Y-30739000D02*
X116721000Y-32761000D01*
X116681000Y-30652000D02*
X116681000Y-32848000D01*
X116641000Y-30572000D02*
X116641000Y-32928000D01*
X116601000Y-32790000D02*
X116601000Y-33001000D01*
X116601000Y-30499000D02*
X116601000Y-30710000D01*
X116561000Y-32790000D02*
X116561000Y-33069000D01*
X116561000Y-30431000D02*
X116561000Y-30710000D01*
X116521000Y-32790000D02*
X116521000Y-33133000D01*
X116521000Y-30367000D02*
X116521000Y-30710000D01*
X116481000Y-32790000D02*
X116481000Y-33193000D01*
X116481000Y-30307000D02*
X116481000Y-30710000D01*
X116441000Y-32790000D02*
X116441000Y-33250000D01*
X116441000Y-30250000D02*
X116441000Y-30710000D01*
X116401000Y-32790000D02*
X116401000Y-33304000D01*
X116401000Y-30196000D02*
X116401000Y-30710000D01*
X116361000Y-32790000D02*
X116361000Y-33355000D01*
X116361000Y-30145000D02*
X116361000Y-30710000D01*
X116321000Y-32790000D02*
X116321000Y-33403000D01*
X116321000Y-30097000D02*
X116321000Y-30710000D01*
X116281000Y-32790000D02*
X116281000Y-33449000D01*
X116281000Y-30051000D02*
X116281000Y-30710000D01*
X116241000Y-32790000D02*
X116241000Y-33493000D01*
X116241000Y-30007000D02*
X116241000Y-30710000D01*
X116201000Y-32790000D02*
X116201000Y-33535000D01*
X116201000Y-29965000D02*
X116201000Y-30710000D01*
X116161000Y-32790000D02*
X116161000Y-33576000D01*
X116161000Y-29924000D02*
X116161000Y-30710000D01*
X116121000Y-32790000D02*
X116121000Y-33614000D01*
X116121000Y-29886000D02*
X116121000Y-30710000D01*
X116081000Y-32790000D02*
X116081000Y-33651000D01*
X116081000Y-29849000D02*
X116081000Y-30710000D01*
X116041000Y-32790000D02*
X116041000Y-33687000D01*
X116041000Y-29813000D02*
X116041000Y-30710000D01*
X116001000Y-32790000D02*
X116001000Y-33721000D01*
X116001000Y-29779000D02*
X116001000Y-30710000D01*
X115961000Y-32790000D02*
X115961000Y-33754000D01*
X115961000Y-29746000D02*
X115961000Y-30710000D01*
X115921000Y-32790000D02*
X115921000Y-33785000D01*
X115921000Y-29715000D02*
X115921000Y-30710000D01*
X115881000Y-32790000D02*
X115881000Y-33815000D01*
X115881000Y-29685000D02*
X115881000Y-30710000D01*
X115841000Y-32790000D02*
X115841000Y-33845000D01*
X115841000Y-29655000D02*
X115841000Y-30710000D01*
X115801000Y-32790000D02*
X115801000Y-33872000D01*
X115801000Y-29628000D02*
X115801000Y-30710000D01*
X115761000Y-32790000D02*
X115761000Y-33899000D01*
X115761000Y-29601000D02*
X115761000Y-30710000D01*
X115721000Y-32790000D02*
X115721000Y-33925000D01*
X115721000Y-29575000D02*
X115721000Y-30710000D01*
X115681000Y-32790000D02*
X115681000Y-33950000D01*
X115681000Y-29550000D02*
X115681000Y-30710000D01*
X115641000Y-32790000D02*
X115641000Y-33974000D01*
X115641000Y-29526000D02*
X115641000Y-30710000D01*
X115601000Y-32790000D02*
X115601000Y-33997000D01*
X115601000Y-29503000D02*
X115601000Y-30710000D01*
X115561000Y-32790000D02*
X115561000Y-34018000D01*
X115561000Y-29482000D02*
X115561000Y-30710000D01*
X115521000Y-32790000D02*
X115521000Y-34040000D01*
X115521000Y-29460000D02*
X115521000Y-30710000D01*
X115481000Y-32790000D02*
X115481000Y-34060000D01*
X115481000Y-29440000D02*
X115481000Y-30710000D01*
X115441000Y-32790000D02*
X115441000Y-34079000D01*
X115441000Y-29421000D02*
X115441000Y-30710000D01*
X115401000Y-32790000D02*
X115401000Y-34098000D01*
X115401000Y-29402000D02*
X115401000Y-30710000D01*
X115361000Y-32790000D02*
X115361000Y-34115000D01*
X115361000Y-29385000D02*
X115361000Y-30710000D01*
X115321000Y-32790000D02*
X115321000Y-34132000D01*
X115321000Y-29368000D02*
X115321000Y-30710000D01*
X115281000Y-32790000D02*
X115281000Y-34148000D01*
X115281000Y-29352000D02*
X115281000Y-30710000D01*
X115241000Y-32790000D02*
X115241000Y-34164000D01*
X115241000Y-29336000D02*
X115241000Y-30710000D01*
X115201000Y-32790000D02*
X115201000Y-34178000D01*
X115201000Y-29322000D02*
X115201000Y-30710000D01*
X115161000Y-32790000D02*
X115161000Y-34192000D01*
X115161000Y-29308000D02*
X115161000Y-30710000D01*
X115121000Y-32790000D02*
X115121000Y-34205000D01*
X115121000Y-29295000D02*
X115121000Y-30710000D01*
X115081000Y-32790000D02*
X115081000Y-34218000D01*
X115081000Y-29282000D02*
X115081000Y-30710000D01*
X115041000Y-32790000D02*
X115041000Y-34230000D01*
X115041000Y-29270000D02*
X115041000Y-30710000D01*
X115000000Y-32790000D02*
X115000000Y-34241000D01*
X115000000Y-29259000D02*
X115000000Y-30710000D01*
X114960000Y-32790000D02*
X114960000Y-34251000D01*
X114960000Y-29249000D02*
X114960000Y-30710000D01*
X114920000Y-32790000D02*
X114920000Y-34261000D01*
X114920000Y-29239000D02*
X114920000Y-30710000D01*
X114880000Y-32790000D02*
X114880000Y-34270000D01*
X114880000Y-29230000D02*
X114880000Y-30710000D01*
X114840000Y-32790000D02*
X114840000Y-34278000D01*
X114840000Y-29222000D02*
X114840000Y-30710000D01*
X114800000Y-32790000D02*
X114800000Y-34286000D01*
X114800000Y-29214000D02*
X114800000Y-30710000D01*
X114760000Y-32790000D02*
X114760000Y-34293000D01*
X114760000Y-29207000D02*
X114760000Y-30710000D01*
X114720000Y-32790000D02*
X114720000Y-34300000D01*
X114720000Y-29200000D02*
X114720000Y-30710000D01*
X114680000Y-32790000D02*
X114680000Y-34306000D01*
X114680000Y-29194000D02*
X114680000Y-30710000D01*
X114640000Y-32790000D02*
X114640000Y-34311000D01*
X114640000Y-29189000D02*
X114640000Y-30710000D01*
X114600000Y-32790000D02*
X114600000Y-34315000D01*
X114600000Y-29185000D02*
X114600000Y-30710000D01*
X114560000Y-32790000D02*
X114560000Y-34319000D01*
X114560000Y-29181000D02*
X114560000Y-30710000D01*
X114520000Y-29177000D02*
X114520000Y-34323000D01*
X114480000Y-29174000D02*
X114480000Y-34326000D01*
X114440000Y-29172000D02*
X114440000Y-34328000D01*
X114400000Y-29171000D02*
X114400000Y-34329000D01*
X114360000Y-29170000D02*
X114360000Y-34330000D01*
X114320000Y-29170000D02*
X114320000Y-34330000D01*
X116940000Y-31750000D02*
G75*
G03*
X116940000Y-31750000I-2620000J0D01*
G01*
%TO.C,C5*%
X87595225Y-28755000D02*
X87595225Y-29255000D01*
X87345225Y-29005000D02*
X87845225Y-29005000D01*
X92751000Y-30196000D02*
X92751000Y-30764000D01*
X92711000Y-29962000D02*
X92711000Y-30998000D01*
X92671000Y-29803000D02*
X92671000Y-31157000D01*
X92631000Y-29675000D02*
X92631000Y-31285000D01*
X92591000Y-29565000D02*
X92591000Y-31395000D01*
X92551000Y-29469000D02*
X92551000Y-31491000D01*
X92511000Y-29382000D02*
X92511000Y-31578000D01*
X92471000Y-29302000D02*
X92471000Y-31658000D01*
X92431000Y-31520000D02*
X92431000Y-31731000D01*
X92431000Y-29229000D02*
X92431000Y-29440000D01*
X92391000Y-31520000D02*
X92391000Y-31799000D01*
X92391000Y-29161000D02*
X92391000Y-29440000D01*
X92351000Y-31520000D02*
X92351000Y-31863000D01*
X92351000Y-29097000D02*
X92351000Y-29440000D01*
X92311000Y-31520000D02*
X92311000Y-31923000D01*
X92311000Y-29037000D02*
X92311000Y-29440000D01*
X92271000Y-31520000D02*
X92271000Y-31980000D01*
X92271000Y-28980000D02*
X92271000Y-29440000D01*
X92231000Y-31520000D02*
X92231000Y-32034000D01*
X92231000Y-28926000D02*
X92231000Y-29440000D01*
X92191000Y-31520000D02*
X92191000Y-32085000D01*
X92191000Y-28875000D02*
X92191000Y-29440000D01*
X92151000Y-31520000D02*
X92151000Y-32133000D01*
X92151000Y-28827000D02*
X92151000Y-29440000D01*
X92111000Y-31520000D02*
X92111000Y-32179000D01*
X92111000Y-28781000D02*
X92111000Y-29440000D01*
X92071000Y-31520000D02*
X92071000Y-32223000D01*
X92071000Y-28737000D02*
X92071000Y-29440000D01*
X92031000Y-31520000D02*
X92031000Y-32265000D01*
X92031000Y-28695000D02*
X92031000Y-29440000D01*
X91991000Y-31520000D02*
X91991000Y-32306000D01*
X91991000Y-28654000D02*
X91991000Y-29440000D01*
X91951000Y-31520000D02*
X91951000Y-32344000D01*
X91951000Y-28616000D02*
X91951000Y-29440000D01*
X91911000Y-31520000D02*
X91911000Y-32381000D01*
X91911000Y-28579000D02*
X91911000Y-29440000D01*
X91871000Y-31520000D02*
X91871000Y-32417000D01*
X91871000Y-28543000D02*
X91871000Y-29440000D01*
X91831000Y-31520000D02*
X91831000Y-32451000D01*
X91831000Y-28509000D02*
X91831000Y-29440000D01*
X91791000Y-31520000D02*
X91791000Y-32484000D01*
X91791000Y-28476000D02*
X91791000Y-29440000D01*
X91751000Y-31520000D02*
X91751000Y-32515000D01*
X91751000Y-28445000D02*
X91751000Y-29440000D01*
X91711000Y-31520000D02*
X91711000Y-32545000D01*
X91711000Y-28415000D02*
X91711000Y-29440000D01*
X91671000Y-31520000D02*
X91671000Y-32575000D01*
X91671000Y-28385000D02*
X91671000Y-29440000D01*
X91631000Y-31520000D02*
X91631000Y-32602000D01*
X91631000Y-28358000D02*
X91631000Y-29440000D01*
X91591000Y-31520000D02*
X91591000Y-32629000D01*
X91591000Y-28331000D02*
X91591000Y-29440000D01*
X91551000Y-31520000D02*
X91551000Y-32655000D01*
X91551000Y-28305000D02*
X91551000Y-29440000D01*
X91511000Y-31520000D02*
X91511000Y-32680000D01*
X91511000Y-28280000D02*
X91511000Y-29440000D01*
X91471000Y-31520000D02*
X91471000Y-32704000D01*
X91471000Y-28256000D02*
X91471000Y-29440000D01*
X91431000Y-31520000D02*
X91431000Y-32727000D01*
X91431000Y-28233000D02*
X91431000Y-29440000D01*
X91391000Y-31520000D02*
X91391000Y-32748000D01*
X91391000Y-28212000D02*
X91391000Y-29440000D01*
X91351000Y-31520000D02*
X91351000Y-32770000D01*
X91351000Y-28190000D02*
X91351000Y-29440000D01*
X91311000Y-31520000D02*
X91311000Y-32790000D01*
X91311000Y-28170000D02*
X91311000Y-29440000D01*
X91271000Y-31520000D02*
X91271000Y-32809000D01*
X91271000Y-28151000D02*
X91271000Y-29440000D01*
X91231000Y-31520000D02*
X91231000Y-32828000D01*
X91231000Y-28132000D02*
X91231000Y-29440000D01*
X91191000Y-31520000D02*
X91191000Y-32845000D01*
X91191000Y-28115000D02*
X91191000Y-29440000D01*
X91151000Y-31520000D02*
X91151000Y-32862000D01*
X91151000Y-28098000D02*
X91151000Y-29440000D01*
X91111000Y-31520000D02*
X91111000Y-32878000D01*
X91111000Y-28082000D02*
X91111000Y-29440000D01*
X91071000Y-31520000D02*
X91071000Y-32894000D01*
X91071000Y-28066000D02*
X91071000Y-29440000D01*
X91031000Y-31520000D02*
X91031000Y-32908000D01*
X91031000Y-28052000D02*
X91031000Y-29440000D01*
X90991000Y-31520000D02*
X90991000Y-32922000D01*
X90991000Y-28038000D02*
X90991000Y-29440000D01*
X90951000Y-31520000D02*
X90951000Y-32935000D01*
X90951000Y-28025000D02*
X90951000Y-29440000D01*
X90911000Y-31520000D02*
X90911000Y-32948000D01*
X90911000Y-28012000D02*
X90911000Y-29440000D01*
X90871000Y-31520000D02*
X90871000Y-32960000D01*
X90871000Y-28000000D02*
X90871000Y-29440000D01*
X90830000Y-31520000D02*
X90830000Y-32971000D01*
X90830000Y-27989000D02*
X90830000Y-29440000D01*
X90790000Y-31520000D02*
X90790000Y-32981000D01*
X90790000Y-27979000D02*
X90790000Y-29440000D01*
X90750000Y-31520000D02*
X90750000Y-32991000D01*
X90750000Y-27969000D02*
X90750000Y-29440000D01*
X90710000Y-31520000D02*
X90710000Y-33000000D01*
X90710000Y-27960000D02*
X90710000Y-29440000D01*
X90670000Y-31520000D02*
X90670000Y-33008000D01*
X90670000Y-27952000D02*
X90670000Y-29440000D01*
X90630000Y-31520000D02*
X90630000Y-33016000D01*
X90630000Y-27944000D02*
X90630000Y-29440000D01*
X90590000Y-31520000D02*
X90590000Y-33023000D01*
X90590000Y-27937000D02*
X90590000Y-29440000D01*
X90550000Y-31520000D02*
X90550000Y-33030000D01*
X90550000Y-27930000D02*
X90550000Y-29440000D01*
X90510000Y-31520000D02*
X90510000Y-33036000D01*
X90510000Y-27924000D02*
X90510000Y-29440000D01*
X90470000Y-31520000D02*
X90470000Y-33041000D01*
X90470000Y-27919000D02*
X90470000Y-29440000D01*
X90430000Y-31520000D02*
X90430000Y-33045000D01*
X90430000Y-27915000D02*
X90430000Y-29440000D01*
X90390000Y-31520000D02*
X90390000Y-33049000D01*
X90390000Y-27911000D02*
X90390000Y-29440000D01*
X90350000Y-27907000D02*
X90350000Y-33053000D01*
X90310000Y-27904000D02*
X90310000Y-33056000D01*
X90270000Y-27902000D02*
X90270000Y-33058000D01*
X90230000Y-27901000D02*
X90230000Y-33059000D01*
X90190000Y-27900000D02*
X90190000Y-33060000D01*
X90150000Y-27900000D02*
X90150000Y-33060000D01*
X92770000Y-30480000D02*
G75*
G03*
X92770000Y-30480000I-2620000J0D01*
G01*
%TO.C,C3*%
X177765225Y-60505000D02*
X177765225Y-61005000D01*
X177515225Y-60755000D02*
X178015225Y-60755000D01*
X182921000Y-61946000D02*
X182921000Y-62514000D01*
X182881000Y-61712000D02*
X182881000Y-62748000D01*
X182841000Y-61553000D02*
X182841000Y-62907000D01*
X182801000Y-61425000D02*
X182801000Y-63035000D01*
X182761000Y-61315000D02*
X182761000Y-63145000D01*
X182721000Y-61219000D02*
X182721000Y-63241000D01*
X182681000Y-61132000D02*
X182681000Y-63328000D01*
X182641000Y-61052000D02*
X182641000Y-63408000D01*
X182601000Y-63270000D02*
X182601000Y-63481000D01*
X182601000Y-60979000D02*
X182601000Y-61190000D01*
X182561000Y-63270000D02*
X182561000Y-63549000D01*
X182561000Y-60911000D02*
X182561000Y-61190000D01*
X182521000Y-63270000D02*
X182521000Y-63613000D01*
X182521000Y-60847000D02*
X182521000Y-61190000D01*
X182481000Y-63270000D02*
X182481000Y-63673000D01*
X182481000Y-60787000D02*
X182481000Y-61190000D01*
X182441000Y-63270000D02*
X182441000Y-63730000D01*
X182441000Y-60730000D02*
X182441000Y-61190000D01*
X182401000Y-63270000D02*
X182401000Y-63784000D01*
X182401000Y-60676000D02*
X182401000Y-61190000D01*
X182361000Y-63270000D02*
X182361000Y-63835000D01*
X182361000Y-60625000D02*
X182361000Y-61190000D01*
X182321000Y-63270000D02*
X182321000Y-63883000D01*
X182321000Y-60577000D02*
X182321000Y-61190000D01*
X182281000Y-63270000D02*
X182281000Y-63929000D01*
X182281000Y-60531000D02*
X182281000Y-61190000D01*
X182241000Y-63270000D02*
X182241000Y-63973000D01*
X182241000Y-60487000D02*
X182241000Y-61190000D01*
X182201000Y-63270000D02*
X182201000Y-64015000D01*
X182201000Y-60445000D02*
X182201000Y-61190000D01*
X182161000Y-63270000D02*
X182161000Y-64056000D01*
X182161000Y-60404000D02*
X182161000Y-61190000D01*
X182121000Y-63270000D02*
X182121000Y-64094000D01*
X182121000Y-60366000D02*
X182121000Y-61190000D01*
X182081000Y-63270000D02*
X182081000Y-64131000D01*
X182081000Y-60329000D02*
X182081000Y-61190000D01*
X182041000Y-63270000D02*
X182041000Y-64167000D01*
X182041000Y-60293000D02*
X182041000Y-61190000D01*
X182001000Y-63270000D02*
X182001000Y-64201000D01*
X182001000Y-60259000D02*
X182001000Y-61190000D01*
X181961000Y-63270000D02*
X181961000Y-64234000D01*
X181961000Y-60226000D02*
X181961000Y-61190000D01*
X181921000Y-63270000D02*
X181921000Y-64265000D01*
X181921000Y-60195000D02*
X181921000Y-61190000D01*
X181881000Y-63270000D02*
X181881000Y-64295000D01*
X181881000Y-60165000D02*
X181881000Y-61190000D01*
X181841000Y-63270000D02*
X181841000Y-64325000D01*
X181841000Y-60135000D02*
X181841000Y-61190000D01*
X181801000Y-63270000D02*
X181801000Y-64352000D01*
X181801000Y-60108000D02*
X181801000Y-61190000D01*
X181761000Y-63270000D02*
X181761000Y-64379000D01*
X181761000Y-60081000D02*
X181761000Y-61190000D01*
X181721000Y-63270000D02*
X181721000Y-64405000D01*
X181721000Y-60055000D02*
X181721000Y-61190000D01*
X181681000Y-63270000D02*
X181681000Y-64430000D01*
X181681000Y-60030000D02*
X181681000Y-61190000D01*
X181641000Y-63270000D02*
X181641000Y-64454000D01*
X181641000Y-60006000D02*
X181641000Y-61190000D01*
X181601000Y-63270000D02*
X181601000Y-64477000D01*
X181601000Y-59983000D02*
X181601000Y-61190000D01*
X181561000Y-63270000D02*
X181561000Y-64498000D01*
X181561000Y-59962000D02*
X181561000Y-61190000D01*
X181521000Y-63270000D02*
X181521000Y-64520000D01*
X181521000Y-59940000D02*
X181521000Y-61190000D01*
X181481000Y-63270000D02*
X181481000Y-64540000D01*
X181481000Y-59920000D02*
X181481000Y-61190000D01*
X181441000Y-63270000D02*
X181441000Y-64559000D01*
X181441000Y-59901000D02*
X181441000Y-61190000D01*
X181401000Y-63270000D02*
X181401000Y-64578000D01*
X181401000Y-59882000D02*
X181401000Y-61190000D01*
X181361000Y-63270000D02*
X181361000Y-64595000D01*
X181361000Y-59865000D02*
X181361000Y-61190000D01*
X181321000Y-63270000D02*
X181321000Y-64612000D01*
X181321000Y-59848000D02*
X181321000Y-61190000D01*
X181281000Y-63270000D02*
X181281000Y-64628000D01*
X181281000Y-59832000D02*
X181281000Y-61190000D01*
X181241000Y-63270000D02*
X181241000Y-64644000D01*
X181241000Y-59816000D02*
X181241000Y-61190000D01*
X181201000Y-63270000D02*
X181201000Y-64658000D01*
X181201000Y-59802000D02*
X181201000Y-61190000D01*
X181161000Y-63270000D02*
X181161000Y-64672000D01*
X181161000Y-59788000D02*
X181161000Y-61190000D01*
X181121000Y-63270000D02*
X181121000Y-64685000D01*
X181121000Y-59775000D02*
X181121000Y-61190000D01*
X181081000Y-63270000D02*
X181081000Y-64698000D01*
X181081000Y-59762000D02*
X181081000Y-61190000D01*
X181041000Y-63270000D02*
X181041000Y-64710000D01*
X181041000Y-59750000D02*
X181041000Y-61190000D01*
X181000000Y-63270000D02*
X181000000Y-64721000D01*
X181000000Y-59739000D02*
X181000000Y-61190000D01*
X180960000Y-63270000D02*
X180960000Y-64731000D01*
X180960000Y-59729000D02*
X180960000Y-61190000D01*
X180920000Y-63270000D02*
X180920000Y-64741000D01*
X180920000Y-59719000D02*
X180920000Y-61190000D01*
X180880000Y-63270000D02*
X180880000Y-64750000D01*
X180880000Y-59710000D02*
X180880000Y-61190000D01*
X180840000Y-63270000D02*
X180840000Y-64758000D01*
X180840000Y-59702000D02*
X180840000Y-61190000D01*
X180800000Y-63270000D02*
X180800000Y-64766000D01*
X180800000Y-59694000D02*
X180800000Y-61190000D01*
X180760000Y-63270000D02*
X180760000Y-64773000D01*
X180760000Y-59687000D02*
X180760000Y-61190000D01*
X180720000Y-63270000D02*
X180720000Y-64780000D01*
X180720000Y-59680000D02*
X180720000Y-61190000D01*
X180680000Y-63270000D02*
X180680000Y-64786000D01*
X180680000Y-59674000D02*
X180680000Y-61190000D01*
X180640000Y-63270000D02*
X180640000Y-64791000D01*
X180640000Y-59669000D02*
X180640000Y-61190000D01*
X180600000Y-63270000D02*
X180600000Y-64795000D01*
X180600000Y-59665000D02*
X180600000Y-61190000D01*
X180560000Y-63270000D02*
X180560000Y-64799000D01*
X180560000Y-59661000D02*
X180560000Y-61190000D01*
X180520000Y-59657000D02*
X180520000Y-64803000D01*
X180480000Y-59654000D02*
X180480000Y-64806000D01*
X180440000Y-59652000D02*
X180440000Y-64808000D01*
X180400000Y-59651000D02*
X180400000Y-64809000D01*
X180360000Y-59650000D02*
X180360000Y-64810000D01*
X180320000Y-59650000D02*
X180320000Y-64810000D01*
X182940000Y-62230000D02*
G75*
G03*
X182940000Y-62230000I-2620000J0D01*
G01*
%TO.C,C2*%
X168915225Y-108765000D02*
X168915225Y-109265000D01*
X168665225Y-109015000D02*
X169165225Y-109015000D01*
X174071000Y-110206000D02*
X174071000Y-110774000D01*
X174031000Y-109972000D02*
X174031000Y-111008000D01*
X173991000Y-109813000D02*
X173991000Y-111167000D01*
X173951000Y-109685000D02*
X173951000Y-111295000D01*
X173911000Y-109575000D02*
X173911000Y-111405000D01*
X173871000Y-109479000D02*
X173871000Y-111501000D01*
X173831000Y-109392000D02*
X173831000Y-111588000D01*
X173791000Y-109312000D02*
X173791000Y-111668000D01*
X173751000Y-111530000D02*
X173751000Y-111741000D01*
X173751000Y-109239000D02*
X173751000Y-109450000D01*
X173711000Y-111530000D02*
X173711000Y-111809000D01*
X173711000Y-109171000D02*
X173711000Y-109450000D01*
X173671000Y-111530000D02*
X173671000Y-111873000D01*
X173671000Y-109107000D02*
X173671000Y-109450000D01*
X173631000Y-111530000D02*
X173631000Y-111933000D01*
X173631000Y-109047000D02*
X173631000Y-109450000D01*
X173591000Y-111530000D02*
X173591000Y-111990000D01*
X173591000Y-108990000D02*
X173591000Y-109450000D01*
X173551000Y-111530000D02*
X173551000Y-112044000D01*
X173551000Y-108936000D02*
X173551000Y-109450000D01*
X173511000Y-111530000D02*
X173511000Y-112095000D01*
X173511000Y-108885000D02*
X173511000Y-109450000D01*
X173471000Y-111530000D02*
X173471000Y-112143000D01*
X173471000Y-108837000D02*
X173471000Y-109450000D01*
X173431000Y-111530000D02*
X173431000Y-112189000D01*
X173431000Y-108791000D02*
X173431000Y-109450000D01*
X173391000Y-111530000D02*
X173391000Y-112233000D01*
X173391000Y-108747000D02*
X173391000Y-109450000D01*
X173351000Y-111530000D02*
X173351000Y-112275000D01*
X173351000Y-108705000D02*
X173351000Y-109450000D01*
X173311000Y-111530000D02*
X173311000Y-112316000D01*
X173311000Y-108664000D02*
X173311000Y-109450000D01*
X173271000Y-111530000D02*
X173271000Y-112354000D01*
X173271000Y-108626000D02*
X173271000Y-109450000D01*
X173231000Y-111530000D02*
X173231000Y-112391000D01*
X173231000Y-108589000D02*
X173231000Y-109450000D01*
X173191000Y-111530000D02*
X173191000Y-112427000D01*
X173191000Y-108553000D02*
X173191000Y-109450000D01*
X173151000Y-111530000D02*
X173151000Y-112461000D01*
X173151000Y-108519000D02*
X173151000Y-109450000D01*
X173111000Y-111530000D02*
X173111000Y-112494000D01*
X173111000Y-108486000D02*
X173111000Y-109450000D01*
X173071000Y-111530000D02*
X173071000Y-112525000D01*
X173071000Y-108455000D02*
X173071000Y-109450000D01*
X173031000Y-111530000D02*
X173031000Y-112555000D01*
X173031000Y-108425000D02*
X173031000Y-109450000D01*
X172991000Y-111530000D02*
X172991000Y-112585000D01*
X172991000Y-108395000D02*
X172991000Y-109450000D01*
X172951000Y-111530000D02*
X172951000Y-112612000D01*
X172951000Y-108368000D02*
X172951000Y-109450000D01*
X172911000Y-111530000D02*
X172911000Y-112639000D01*
X172911000Y-108341000D02*
X172911000Y-109450000D01*
X172871000Y-111530000D02*
X172871000Y-112665000D01*
X172871000Y-108315000D02*
X172871000Y-109450000D01*
X172831000Y-111530000D02*
X172831000Y-112690000D01*
X172831000Y-108290000D02*
X172831000Y-109450000D01*
X172791000Y-111530000D02*
X172791000Y-112714000D01*
X172791000Y-108266000D02*
X172791000Y-109450000D01*
X172751000Y-111530000D02*
X172751000Y-112737000D01*
X172751000Y-108243000D02*
X172751000Y-109450000D01*
X172711000Y-111530000D02*
X172711000Y-112758000D01*
X172711000Y-108222000D02*
X172711000Y-109450000D01*
X172671000Y-111530000D02*
X172671000Y-112780000D01*
X172671000Y-108200000D02*
X172671000Y-109450000D01*
X172631000Y-111530000D02*
X172631000Y-112800000D01*
X172631000Y-108180000D02*
X172631000Y-109450000D01*
X172591000Y-111530000D02*
X172591000Y-112819000D01*
X172591000Y-108161000D02*
X172591000Y-109450000D01*
X172551000Y-111530000D02*
X172551000Y-112838000D01*
X172551000Y-108142000D02*
X172551000Y-109450000D01*
X172511000Y-111530000D02*
X172511000Y-112855000D01*
X172511000Y-108125000D02*
X172511000Y-109450000D01*
X172471000Y-111530000D02*
X172471000Y-112872000D01*
X172471000Y-108108000D02*
X172471000Y-109450000D01*
X172431000Y-111530000D02*
X172431000Y-112888000D01*
X172431000Y-108092000D02*
X172431000Y-109450000D01*
X172391000Y-111530000D02*
X172391000Y-112904000D01*
X172391000Y-108076000D02*
X172391000Y-109450000D01*
X172351000Y-111530000D02*
X172351000Y-112918000D01*
X172351000Y-108062000D02*
X172351000Y-109450000D01*
X172311000Y-111530000D02*
X172311000Y-112932000D01*
X172311000Y-108048000D02*
X172311000Y-109450000D01*
X172271000Y-111530000D02*
X172271000Y-112945000D01*
X172271000Y-108035000D02*
X172271000Y-109450000D01*
X172231000Y-111530000D02*
X172231000Y-112958000D01*
X172231000Y-108022000D02*
X172231000Y-109450000D01*
X172191000Y-111530000D02*
X172191000Y-112970000D01*
X172191000Y-108010000D02*
X172191000Y-109450000D01*
X172150000Y-111530000D02*
X172150000Y-112981000D01*
X172150000Y-107999000D02*
X172150000Y-109450000D01*
X172110000Y-111530000D02*
X172110000Y-112991000D01*
X172110000Y-107989000D02*
X172110000Y-109450000D01*
X172070000Y-111530000D02*
X172070000Y-113001000D01*
X172070000Y-107979000D02*
X172070000Y-109450000D01*
X172030000Y-111530000D02*
X172030000Y-113010000D01*
X172030000Y-107970000D02*
X172030000Y-109450000D01*
X171990000Y-111530000D02*
X171990000Y-113018000D01*
X171990000Y-107962000D02*
X171990000Y-109450000D01*
X171950000Y-111530000D02*
X171950000Y-113026000D01*
X171950000Y-107954000D02*
X171950000Y-109450000D01*
X171910000Y-111530000D02*
X171910000Y-113033000D01*
X171910000Y-107947000D02*
X171910000Y-109450000D01*
X171870000Y-111530000D02*
X171870000Y-113040000D01*
X171870000Y-107940000D02*
X171870000Y-109450000D01*
X171830000Y-111530000D02*
X171830000Y-113046000D01*
X171830000Y-107934000D02*
X171830000Y-109450000D01*
X171790000Y-111530000D02*
X171790000Y-113051000D01*
X171790000Y-107929000D02*
X171790000Y-109450000D01*
X171750000Y-111530000D02*
X171750000Y-113055000D01*
X171750000Y-107925000D02*
X171750000Y-109450000D01*
X171710000Y-111530000D02*
X171710000Y-113059000D01*
X171710000Y-107921000D02*
X171710000Y-109450000D01*
X171670000Y-107917000D02*
X171670000Y-113063000D01*
X171630000Y-107914000D02*
X171630000Y-113066000D01*
X171590000Y-107912000D02*
X171590000Y-113068000D01*
X171550000Y-107911000D02*
X171550000Y-113069000D01*
X171510000Y-107910000D02*
X171510000Y-113070000D01*
X171470000Y-107910000D02*
X171470000Y-113070000D01*
X174090000Y-110490000D02*
G75*
G03*
X174090000Y-110490000I-2620000J0D01*
G01*
%TO.C,C1*%
X67275225Y-87175000D02*
X67275225Y-87675000D01*
X67025225Y-87425000D02*
X67525225Y-87425000D01*
X72431000Y-88616000D02*
X72431000Y-89184000D01*
X72391000Y-88382000D02*
X72391000Y-89418000D01*
X72351000Y-88223000D02*
X72351000Y-89577000D01*
X72311000Y-88095000D02*
X72311000Y-89705000D01*
X72271000Y-87985000D02*
X72271000Y-89815000D01*
X72231000Y-87889000D02*
X72231000Y-89911000D01*
X72191000Y-87802000D02*
X72191000Y-89998000D01*
X72151000Y-87722000D02*
X72151000Y-90078000D01*
X72111000Y-89940000D02*
X72111000Y-90151000D01*
X72111000Y-87649000D02*
X72111000Y-87860000D01*
X72071000Y-89940000D02*
X72071000Y-90219000D01*
X72071000Y-87581000D02*
X72071000Y-87860000D01*
X72031000Y-89940000D02*
X72031000Y-90283000D01*
X72031000Y-87517000D02*
X72031000Y-87860000D01*
X71991000Y-89940000D02*
X71991000Y-90343000D01*
X71991000Y-87457000D02*
X71991000Y-87860000D01*
X71951000Y-89940000D02*
X71951000Y-90400000D01*
X71951000Y-87400000D02*
X71951000Y-87860000D01*
X71911000Y-89940000D02*
X71911000Y-90454000D01*
X71911000Y-87346000D02*
X71911000Y-87860000D01*
X71871000Y-89940000D02*
X71871000Y-90505000D01*
X71871000Y-87295000D02*
X71871000Y-87860000D01*
X71831000Y-89940000D02*
X71831000Y-90553000D01*
X71831000Y-87247000D02*
X71831000Y-87860000D01*
X71791000Y-89940000D02*
X71791000Y-90599000D01*
X71791000Y-87201000D02*
X71791000Y-87860000D01*
X71751000Y-89940000D02*
X71751000Y-90643000D01*
X71751000Y-87157000D02*
X71751000Y-87860000D01*
X71711000Y-89940000D02*
X71711000Y-90685000D01*
X71711000Y-87115000D02*
X71711000Y-87860000D01*
X71671000Y-89940000D02*
X71671000Y-90726000D01*
X71671000Y-87074000D02*
X71671000Y-87860000D01*
X71631000Y-89940000D02*
X71631000Y-90764000D01*
X71631000Y-87036000D02*
X71631000Y-87860000D01*
X71591000Y-89940000D02*
X71591000Y-90801000D01*
X71591000Y-86999000D02*
X71591000Y-87860000D01*
X71551000Y-89940000D02*
X71551000Y-90837000D01*
X71551000Y-86963000D02*
X71551000Y-87860000D01*
X71511000Y-89940000D02*
X71511000Y-90871000D01*
X71511000Y-86929000D02*
X71511000Y-87860000D01*
X71471000Y-89940000D02*
X71471000Y-90904000D01*
X71471000Y-86896000D02*
X71471000Y-87860000D01*
X71431000Y-89940000D02*
X71431000Y-90935000D01*
X71431000Y-86865000D02*
X71431000Y-87860000D01*
X71391000Y-89940000D02*
X71391000Y-90965000D01*
X71391000Y-86835000D02*
X71391000Y-87860000D01*
X71351000Y-89940000D02*
X71351000Y-90995000D01*
X71351000Y-86805000D02*
X71351000Y-87860000D01*
X71311000Y-89940000D02*
X71311000Y-91022000D01*
X71311000Y-86778000D02*
X71311000Y-87860000D01*
X71271000Y-89940000D02*
X71271000Y-91049000D01*
X71271000Y-86751000D02*
X71271000Y-87860000D01*
X71231000Y-89940000D02*
X71231000Y-91075000D01*
X71231000Y-86725000D02*
X71231000Y-87860000D01*
X71191000Y-89940000D02*
X71191000Y-91100000D01*
X71191000Y-86700000D02*
X71191000Y-87860000D01*
X71151000Y-89940000D02*
X71151000Y-91124000D01*
X71151000Y-86676000D02*
X71151000Y-87860000D01*
X71111000Y-89940000D02*
X71111000Y-91147000D01*
X71111000Y-86653000D02*
X71111000Y-87860000D01*
X71071000Y-89940000D02*
X71071000Y-91168000D01*
X71071000Y-86632000D02*
X71071000Y-87860000D01*
X71031000Y-89940000D02*
X71031000Y-91190000D01*
X71031000Y-86610000D02*
X71031000Y-87860000D01*
X70991000Y-89940000D02*
X70991000Y-91210000D01*
X70991000Y-86590000D02*
X70991000Y-87860000D01*
X70951000Y-89940000D02*
X70951000Y-91229000D01*
X70951000Y-86571000D02*
X70951000Y-87860000D01*
X70911000Y-89940000D02*
X70911000Y-91248000D01*
X70911000Y-86552000D02*
X70911000Y-87860000D01*
X70871000Y-89940000D02*
X70871000Y-91265000D01*
X70871000Y-86535000D02*
X70871000Y-87860000D01*
X70831000Y-89940000D02*
X70831000Y-91282000D01*
X70831000Y-86518000D02*
X70831000Y-87860000D01*
X70791000Y-89940000D02*
X70791000Y-91298000D01*
X70791000Y-86502000D02*
X70791000Y-87860000D01*
X70751000Y-89940000D02*
X70751000Y-91314000D01*
X70751000Y-86486000D02*
X70751000Y-87860000D01*
X70711000Y-89940000D02*
X70711000Y-91328000D01*
X70711000Y-86472000D02*
X70711000Y-87860000D01*
X70671000Y-89940000D02*
X70671000Y-91342000D01*
X70671000Y-86458000D02*
X70671000Y-87860000D01*
X70631000Y-89940000D02*
X70631000Y-91355000D01*
X70631000Y-86445000D02*
X70631000Y-87860000D01*
X70591000Y-89940000D02*
X70591000Y-91368000D01*
X70591000Y-86432000D02*
X70591000Y-87860000D01*
X70551000Y-89940000D02*
X70551000Y-91380000D01*
X70551000Y-86420000D02*
X70551000Y-87860000D01*
X70510000Y-89940000D02*
X70510000Y-91391000D01*
X70510000Y-86409000D02*
X70510000Y-87860000D01*
X70470000Y-89940000D02*
X70470000Y-91401000D01*
X70470000Y-86399000D02*
X70470000Y-87860000D01*
X70430000Y-89940000D02*
X70430000Y-91411000D01*
X70430000Y-86389000D02*
X70430000Y-87860000D01*
X70390000Y-89940000D02*
X70390000Y-91420000D01*
X70390000Y-86380000D02*
X70390000Y-87860000D01*
X70350000Y-89940000D02*
X70350000Y-91428000D01*
X70350000Y-86372000D02*
X70350000Y-87860000D01*
X70310000Y-89940000D02*
X70310000Y-91436000D01*
X70310000Y-86364000D02*
X70310000Y-87860000D01*
X70270000Y-89940000D02*
X70270000Y-91443000D01*
X70270000Y-86357000D02*
X70270000Y-87860000D01*
X70230000Y-89940000D02*
X70230000Y-91450000D01*
X70230000Y-86350000D02*
X70230000Y-87860000D01*
X70190000Y-89940000D02*
X70190000Y-91456000D01*
X70190000Y-86344000D02*
X70190000Y-87860000D01*
X70150000Y-89940000D02*
X70150000Y-91461000D01*
X70150000Y-86339000D02*
X70150000Y-87860000D01*
X70110000Y-89940000D02*
X70110000Y-91465000D01*
X70110000Y-86335000D02*
X70110000Y-87860000D01*
X70070000Y-89940000D02*
X70070000Y-91469000D01*
X70070000Y-86331000D02*
X70070000Y-87860000D01*
X70030000Y-86327000D02*
X70030000Y-91473000D01*
X69990000Y-86324000D02*
X69990000Y-91476000D01*
X69950000Y-86322000D02*
X69950000Y-91478000D01*
X69910000Y-86321000D02*
X69910000Y-91479000D01*
X69870000Y-86320000D02*
X69870000Y-91480000D01*
X69830000Y-86320000D02*
X69830000Y-91480000D01*
X72450000Y-88900000D02*
G75*
G03*
X72450000Y-88900000I-2620000J0D01*
G01*
%TO.C,U7*%
D10*
X111422380Y-99821904D02*
X112231904Y-99821904D01*
X112327142Y-99774285D01*
X112374761Y-99726666D01*
X112422380Y-99631428D01*
X112422380Y-99440952D01*
X112374761Y-99345714D01*
X112327142Y-99298095D01*
X112231904Y-99250476D01*
X111422380Y-99250476D01*
X111422380Y-98869523D02*
X111422380Y-98202857D01*
X112422380Y-98631428D01*
%TO.C,U3*%
X163018095Y-29292380D02*
X163018095Y-30101904D01*
X163065714Y-30197142D01*
X163113333Y-30244761D01*
X163208571Y-30292380D01*
X163399047Y-30292380D01*
X163494285Y-30244761D01*
X163541904Y-30197142D01*
X163589523Y-30101904D01*
X163589523Y-29292380D01*
X163970476Y-29292380D02*
X164589523Y-29292380D01*
X164256190Y-29673333D01*
X164399047Y-29673333D01*
X164494285Y-29720952D01*
X164541904Y-29768571D01*
X164589523Y-29863809D01*
X164589523Y-30101904D01*
X164541904Y-30197142D01*
X164494285Y-30244761D01*
X164399047Y-30292380D01*
X164113333Y-30292380D01*
X164018095Y-30244761D01*
X163970476Y-30197142D01*
%TO.C,R4*%
X90003333Y-95872380D02*
X89670000Y-95396190D01*
X89431904Y-95872380D02*
X89431904Y-94872380D01*
X89812857Y-94872380D01*
X89908095Y-94920000D01*
X89955714Y-94967619D01*
X90003333Y-95062857D01*
X90003333Y-95205714D01*
X89955714Y-95300952D01*
X89908095Y-95348571D01*
X89812857Y-95396190D01*
X89431904Y-95396190D01*
X90860476Y-95205714D02*
X90860476Y-95872380D01*
X90622380Y-94824761D02*
X90384285Y-95539047D01*
X91003333Y-95539047D01*
%TO.C,R3*%
X90003333Y-100952380D02*
X89670000Y-100476190D01*
X89431904Y-100952380D02*
X89431904Y-99952380D01*
X89812857Y-99952380D01*
X89908095Y-100000000D01*
X89955714Y-100047619D01*
X90003333Y-100142857D01*
X90003333Y-100285714D01*
X89955714Y-100380952D01*
X89908095Y-100428571D01*
X89812857Y-100476190D01*
X89431904Y-100476190D01*
X90336666Y-99952380D02*
X90955714Y-99952380D01*
X90622380Y-100333333D01*
X90765238Y-100333333D01*
X90860476Y-100380952D01*
X90908095Y-100428571D01*
X90955714Y-100523809D01*
X90955714Y-100761904D01*
X90908095Y-100857142D01*
X90860476Y-100904761D01*
X90765238Y-100952380D01*
X90479523Y-100952380D01*
X90384285Y-100904761D01*
X90336666Y-100857142D01*
%TO.C,J5*%
X112692380Y-112093333D02*
X113406666Y-112093333D01*
X113549523Y-112140952D01*
X113644761Y-112236190D01*
X113692380Y-112379047D01*
X113692380Y-112474285D01*
X112692380Y-111140952D02*
X112692380Y-111617142D01*
X113168571Y-111664761D01*
X113120952Y-111617142D01*
X113073333Y-111521904D01*
X113073333Y-111283809D01*
X113120952Y-111188571D01*
X113168571Y-111140952D01*
X113263809Y-111093333D01*
X113501904Y-111093333D01*
X113597142Y-111140952D01*
X113644761Y-111188571D01*
X113692380Y-111283809D01*
X113692380Y-111521904D01*
X113644761Y-111617142D01*
X113597142Y-111664761D01*
%TO.C,C4*%
X79823333Y-107717142D02*
X79775714Y-107764761D01*
X79632857Y-107812380D01*
X79537619Y-107812380D01*
X79394761Y-107764761D01*
X79299523Y-107669523D01*
X79251904Y-107574285D01*
X79204285Y-107383809D01*
X79204285Y-107240952D01*
X79251904Y-107050476D01*
X79299523Y-106955238D01*
X79394761Y-106860000D01*
X79537619Y-106812380D01*
X79632857Y-106812380D01*
X79775714Y-106860000D01*
X79823333Y-106907619D01*
X80680476Y-107145714D02*
X80680476Y-107812380D01*
X80442380Y-106764761D02*
X80204285Y-107479047D01*
X80823333Y-107479047D01*
%TO.C,X1*%
X173612380Y-104949523D02*
X174612380Y-104282857D01*
X173612380Y-104282857D02*
X174612380Y-104949523D01*
X174612380Y-103378095D02*
X174612380Y-103949523D01*
X174612380Y-103663809D02*
X173612380Y-103663809D01*
X173755238Y-103759047D01*
X173850476Y-103854285D01*
X173898095Y-103949523D01*
%TO.C,U6*%
X94688095Y-33442380D02*
X94688095Y-34251904D01*
X94735714Y-34347142D01*
X94783333Y-34394761D01*
X94878571Y-34442380D01*
X95069047Y-34442380D01*
X95164285Y-34394761D01*
X95211904Y-34347142D01*
X95259523Y-34251904D01*
X95259523Y-33442380D01*
X96164285Y-33442380D02*
X95973809Y-33442380D01*
X95878571Y-33490000D01*
X95830952Y-33537619D01*
X95735714Y-33680476D01*
X95688095Y-33870952D01*
X95688095Y-34251904D01*
X95735714Y-34347142D01*
X95783333Y-34394761D01*
X95878571Y-34442380D01*
X96069047Y-34442380D01*
X96164285Y-34394761D01*
X96211904Y-34347142D01*
X96259523Y-34251904D01*
X96259523Y-34013809D01*
X96211904Y-33918571D01*
X96164285Y-33870952D01*
X96069047Y-33823333D01*
X95878571Y-33823333D01*
X95783333Y-33870952D01*
X95735714Y-33918571D01*
X95688095Y-34013809D01*
%TO.C,U5*%
X138568095Y-34712380D02*
X138568095Y-35521904D01*
X138615714Y-35617142D01*
X138663333Y-35664761D01*
X138758571Y-35712380D01*
X138949047Y-35712380D01*
X139044285Y-35664761D01*
X139091904Y-35617142D01*
X139139523Y-35521904D01*
X139139523Y-34712380D01*
X140091904Y-34712380D02*
X139615714Y-34712380D01*
X139568095Y-35188571D01*
X139615714Y-35140952D01*
X139710952Y-35093333D01*
X139949047Y-35093333D01*
X140044285Y-35140952D01*
X140091904Y-35188571D01*
X140139523Y-35283809D01*
X140139523Y-35521904D01*
X140091904Y-35617142D01*
X140044285Y-35664761D01*
X139949047Y-35712380D01*
X139710952Y-35712380D01*
X139615714Y-35664761D01*
X139568095Y-35617142D01*
%TO.C,U4*%
X107188095Y-87332380D02*
X107188095Y-88141904D01*
X107235714Y-88237142D01*
X107283333Y-88284761D01*
X107378571Y-88332380D01*
X107569047Y-88332380D01*
X107664285Y-88284761D01*
X107711904Y-88237142D01*
X107759523Y-88141904D01*
X107759523Y-87332380D01*
X108664285Y-87665714D02*
X108664285Y-88332380D01*
X108426190Y-87284761D02*
X108188095Y-87999047D01*
X108807142Y-87999047D01*
%TO.C,U2*%
X180848095Y-37762380D02*
X180848095Y-38571904D01*
X180895714Y-38667142D01*
X180943333Y-38714761D01*
X181038571Y-38762380D01*
X181229047Y-38762380D01*
X181324285Y-38714761D01*
X181371904Y-38667142D01*
X181419523Y-38571904D01*
X181419523Y-37762380D01*
X181848095Y-37857619D02*
X181895714Y-37810000D01*
X181990952Y-37762380D01*
X182229047Y-37762380D01*
X182324285Y-37810000D01*
X182371904Y-37857619D01*
X182419523Y-37952857D01*
X182419523Y-38048095D01*
X182371904Y-38190952D01*
X181800476Y-38762380D01*
X182419523Y-38762380D01*
%TO.C,U1*%
X119168095Y-33442380D02*
X119168095Y-34251904D01*
X119215714Y-34347142D01*
X119263333Y-34394761D01*
X119358571Y-34442380D01*
X119549047Y-34442380D01*
X119644285Y-34394761D01*
X119691904Y-34347142D01*
X119739523Y-34251904D01*
X119739523Y-33442380D01*
X120739523Y-34442380D02*
X120168095Y-34442380D01*
X120453809Y-34442380D02*
X120453809Y-33442380D01*
X120358571Y-33585238D01*
X120263333Y-33680476D01*
X120168095Y-33728095D01*
%TO.C,SW1*%
X78116666Y-86034761D02*
X78259523Y-86082380D01*
X78497619Y-86082380D01*
X78592857Y-86034761D01*
X78640476Y-85987142D01*
X78688095Y-85891904D01*
X78688095Y-85796666D01*
X78640476Y-85701428D01*
X78592857Y-85653809D01*
X78497619Y-85606190D01*
X78307142Y-85558571D01*
X78211904Y-85510952D01*
X78164285Y-85463333D01*
X78116666Y-85368095D01*
X78116666Y-85272857D01*
X78164285Y-85177619D01*
X78211904Y-85130000D01*
X78307142Y-85082380D01*
X78545238Y-85082380D01*
X78688095Y-85130000D01*
X79021428Y-85082380D02*
X79259523Y-86082380D01*
X79450000Y-85368095D01*
X79640476Y-86082380D01*
X79878571Y-85082380D01*
X80783333Y-86082380D02*
X80211904Y-86082380D01*
X80497619Y-86082380D02*
X80497619Y-85082380D01*
X80402380Y-85225238D01*
X80307142Y-85320476D01*
X80211904Y-85368095D01*
%TO.C,R2*%
X90003333Y-106032380D02*
X89670000Y-105556190D01*
X89431904Y-106032380D02*
X89431904Y-105032380D01*
X89812857Y-105032380D01*
X89908095Y-105080000D01*
X89955714Y-105127619D01*
X90003333Y-105222857D01*
X90003333Y-105365714D01*
X89955714Y-105460952D01*
X89908095Y-105508571D01*
X89812857Y-105556190D01*
X89431904Y-105556190D01*
X90384285Y-105127619D02*
X90431904Y-105080000D01*
X90527142Y-105032380D01*
X90765238Y-105032380D01*
X90860476Y-105080000D01*
X90908095Y-105127619D01*
X90955714Y-105222857D01*
X90955714Y-105318095D01*
X90908095Y-105460952D01*
X90336666Y-106032380D01*
X90955714Y-106032380D01*
%TO.C,R1*%
X90003333Y-111112380D02*
X89670000Y-110636190D01*
X89431904Y-111112380D02*
X89431904Y-110112380D01*
X89812857Y-110112380D01*
X89908095Y-110160000D01*
X89955714Y-110207619D01*
X90003333Y-110302857D01*
X90003333Y-110445714D01*
X89955714Y-110540952D01*
X89908095Y-110588571D01*
X89812857Y-110636190D01*
X89431904Y-110636190D01*
X90955714Y-111112380D02*
X90384285Y-111112380D01*
X90670000Y-111112380D02*
X90670000Y-110112380D01*
X90574761Y-110255238D01*
X90479523Y-110350476D01*
X90384285Y-110398095D01*
%TO.C,J4*%
X105636666Y-100322380D02*
X105636666Y-101036666D01*
X105589047Y-101179523D01*
X105493809Y-101274761D01*
X105350952Y-101322380D01*
X105255714Y-101322380D01*
X106541428Y-100655714D02*
X106541428Y-101322380D01*
X106303333Y-100274761D02*
X106065238Y-100989047D01*
X106684285Y-100989047D01*
%TO.C,J3*%
X64222380Y-104473333D02*
X64936666Y-104473333D01*
X65079523Y-104520952D01*
X65174761Y-104616190D01*
X65222380Y-104759047D01*
X65222380Y-104854285D01*
X64222380Y-104092380D02*
X64222380Y-103473333D01*
X64603333Y-103806666D01*
X64603333Y-103663809D01*
X64650952Y-103568571D01*
X64698571Y-103520952D01*
X64793809Y-103473333D01*
X65031904Y-103473333D01*
X65127142Y-103520952D01*
X65174761Y-103568571D01*
X65222380Y-103663809D01*
X65222380Y-103949523D01*
X65174761Y-104044761D01*
X65127142Y-104092380D01*
%TO.C,J2*%
X69516666Y-38592380D02*
X69516666Y-39306666D01*
X69469047Y-39449523D01*
X69373809Y-39544761D01*
X69230952Y-39592380D01*
X69135714Y-39592380D01*
X69945238Y-38687619D02*
X69992857Y-38640000D01*
X70088095Y-38592380D01*
X70326190Y-38592380D01*
X70421428Y-38640000D01*
X70469047Y-38687619D01*
X70516666Y-38782857D01*
X70516666Y-38878095D01*
X70469047Y-39020952D01*
X69897619Y-39592380D01*
X70516666Y-39592380D01*
%TO.C,J1*%
X69516666Y-62722380D02*
X69516666Y-63436666D01*
X69469047Y-63579523D01*
X69373809Y-63674761D01*
X69230952Y-63722380D01*
X69135714Y-63722380D01*
X70516666Y-63722380D02*
X69945238Y-63722380D01*
X70230952Y-63722380D02*
X70230952Y-62722380D01*
X70135714Y-62865238D01*
X70040476Y-62960476D01*
X69945238Y-63008095D01*
%TO.C,C10*%
X182217142Y-29627142D02*
X182169523Y-29674761D01*
X182026666Y-29722380D01*
X181931428Y-29722380D01*
X181788571Y-29674761D01*
X181693333Y-29579523D01*
X181645714Y-29484285D01*
X181598095Y-29293809D01*
X181598095Y-29150952D01*
X181645714Y-28960476D01*
X181693333Y-28865238D01*
X181788571Y-28770000D01*
X181931428Y-28722380D01*
X182026666Y-28722380D01*
X182169523Y-28770000D01*
X182217142Y-28817619D01*
X183169523Y-29722380D02*
X182598095Y-29722380D01*
X182883809Y-29722380D02*
X182883809Y-28722380D01*
X182788571Y-28865238D01*
X182693333Y-28960476D01*
X182598095Y-29008095D01*
X183788571Y-28722380D02*
X183883809Y-28722380D01*
X183979047Y-28770000D01*
X184026666Y-28817619D01*
X184074285Y-28912857D01*
X184121904Y-29103333D01*
X184121904Y-29341428D01*
X184074285Y-29531904D01*
X184026666Y-29627142D01*
X183979047Y-29674761D01*
X183883809Y-29722380D01*
X183788571Y-29722380D01*
X183693333Y-29674761D01*
X183645714Y-29627142D01*
X183598095Y-29531904D01*
X183550476Y-29341428D01*
X183550476Y-29103333D01*
X183598095Y-28912857D01*
X183645714Y-28817619D01*
X183693333Y-28770000D01*
X183788571Y-28722380D01*
%TO.C,C9*%
X136973333Y-29627142D02*
X136925714Y-29674761D01*
X136782857Y-29722380D01*
X136687619Y-29722380D01*
X136544761Y-29674761D01*
X136449523Y-29579523D01*
X136401904Y-29484285D01*
X136354285Y-29293809D01*
X136354285Y-29150952D01*
X136401904Y-28960476D01*
X136449523Y-28865238D01*
X136544761Y-28770000D01*
X136687619Y-28722380D01*
X136782857Y-28722380D01*
X136925714Y-28770000D01*
X136973333Y-28817619D01*
X137449523Y-29722380D02*
X137640000Y-29722380D01*
X137735238Y-29674761D01*
X137782857Y-29627142D01*
X137878095Y-29484285D01*
X137925714Y-29293809D01*
X137925714Y-28912857D01*
X137878095Y-28817619D01*
X137830476Y-28770000D01*
X137735238Y-28722380D01*
X137544761Y-28722380D01*
X137449523Y-28770000D01*
X137401904Y-28817619D01*
X137354285Y-28912857D01*
X137354285Y-29150952D01*
X137401904Y-29246190D01*
X137449523Y-29293809D01*
X137544761Y-29341428D01*
X137735238Y-29341428D01*
X137830476Y-29293809D01*
X137878095Y-29246190D01*
X137925714Y-29150952D01*
%TO.C,C8*%
X76013333Y-58837142D02*
X75965714Y-58884761D01*
X75822857Y-58932380D01*
X75727619Y-58932380D01*
X75584761Y-58884761D01*
X75489523Y-58789523D01*
X75441904Y-58694285D01*
X75394285Y-58503809D01*
X75394285Y-58360952D01*
X75441904Y-58170476D01*
X75489523Y-58075238D01*
X75584761Y-57980000D01*
X75727619Y-57932380D01*
X75822857Y-57932380D01*
X75965714Y-57980000D01*
X76013333Y-58027619D01*
X76584761Y-58360952D02*
X76489523Y-58313333D01*
X76441904Y-58265714D01*
X76394285Y-58170476D01*
X76394285Y-58122857D01*
X76441904Y-58027619D01*
X76489523Y-57980000D01*
X76584761Y-57932380D01*
X76775238Y-57932380D01*
X76870476Y-57980000D01*
X76918095Y-58027619D01*
X76965714Y-58122857D01*
X76965714Y-58170476D01*
X76918095Y-58265714D01*
X76870476Y-58313333D01*
X76775238Y-58360952D01*
X76584761Y-58360952D01*
X76489523Y-58408571D01*
X76441904Y-58456190D01*
X76394285Y-58551428D01*
X76394285Y-58741904D01*
X76441904Y-58837142D01*
X76489523Y-58884761D01*
X76584761Y-58932380D01*
X76775238Y-58932380D01*
X76870476Y-58884761D01*
X76918095Y-58837142D01*
X76965714Y-58741904D01*
X76965714Y-58551428D01*
X76918095Y-58456190D01*
X76870476Y-58408571D01*
X76775238Y-58360952D01*
%TO.C,C7*%
X69663333Y-30897142D02*
X69615714Y-30944761D01*
X69472857Y-30992380D01*
X69377619Y-30992380D01*
X69234761Y-30944761D01*
X69139523Y-30849523D01*
X69091904Y-30754285D01*
X69044285Y-30563809D01*
X69044285Y-30420952D01*
X69091904Y-30230476D01*
X69139523Y-30135238D01*
X69234761Y-30040000D01*
X69377619Y-29992380D01*
X69472857Y-29992380D01*
X69615714Y-30040000D01*
X69663333Y-30087619D01*
X69996666Y-29992380D02*
X70663333Y-29992380D01*
X70234761Y-30992380D01*
%TO.C,C6*%
X114153333Y-28357142D02*
X114105714Y-28404761D01*
X113962857Y-28452380D01*
X113867619Y-28452380D01*
X113724761Y-28404761D01*
X113629523Y-28309523D01*
X113581904Y-28214285D01*
X113534285Y-28023809D01*
X113534285Y-27880952D01*
X113581904Y-27690476D01*
X113629523Y-27595238D01*
X113724761Y-27500000D01*
X113867619Y-27452380D01*
X113962857Y-27452380D01*
X114105714Y-27500000D01*
X114153333Y-27547619D01*
X115010476Y-27452380D02*
X114820000Y-27452380D01*
X114724761Y-27500000D01*
X114677142Y-27547619D01*
X114581904Y-27690476D01*
X114534285Y-27880952D01*
X114534285Y-28261904D01*
X114581904Y-28357142D01*
X114629523Y-28404761D01*
X114724761Y-28452380D01*
X114915238Y-28452380D01*
X115010476Y-28404761D01*
X115058095Y-28357142D01*
X115105714Y-28261904D01*
X115105714Y-28023809D01*
X115058095Y-27928571D01*
X115010476Y-27880952D01*
X114915238Y-27833333D01*
X114724761Y-27833333D01*
X114629523Y-27880952D01*
X114581904Y-27928571D01*
X114534285Y-28023809D01*
%TO.C,C5*%
X89983333Y-27087142D02*
X89935714Y-27134761D01*
X89792857Y-27182380D01*
X89697619Y-27182380D01*
X89554761Y-27134761D01*
X89459523Y-27039523D01*
X89411904Y-26944285D01*
X89364285Y-26753809D01*
X89364285Y-26610952D01*
X89411904Y-26420476D01*
X89459523Y-26325238D01*
X89554761Y-26230000D01*
X89697619Y-26182380D01*
X89792857Y-26182380D01*
X89935714Y-26230000D01*
X89983333Y-26277619D01*
X90888095Y-26182380D02*
X90411904Y-26182380D01*
X90364285Y-26658571D01*
X90411904Y-26610952D01*
X90507142Y-26563333D01*
X90745238Y-26563333D01*
X90840476Y-26610952D01*
X90888095Y-26658571D01*
X90935714Y-26753809D01*
X90935714Y-26991904D01*
X90888095Y-27087142D01*
X90840476Y-27134761D01*
X90745238Y-27182380D01*
X90507142Y-27182380D01*
X90411904Y-27134761D01*
X90364285Y-27087142D01*
%TO.C,C3*%
X180153333Y-58837142D02*
X180105714Y-58884761D01*
X179962857Y-58932380D01*
X179867619Y-58932380D01*
X179724761Y-58884761D01*
X179629523Y-58789523D01*
X179581904Y-58694285D01*
X179534285Y-58503809D01*
X179534285Y-58360952D01*
X179581904Y-58170476D01*
X179629523Y-58075238D01*
X179724761Y-57980000D01*
X179867619Y-57932380D01*
X179962857Y-57932380D01*
X180105714Y-57980000D01*
X180153333Y-58027619D01*
X180486666Y-57932380D02*
X181105714Y-57932380D01*
X180772380Y-58313333D01*
X180915238Y-58313333D01*
X181010476Y-58360952D01*
X181058095Y-58408571D01*
X181105714Y-58503809D01*
X181105714Y-58741904D01*
X181058095Y-58837142D01*
X181010476Y-58884761D01*
X180915238Y-58932380D01*
X180629523Y-58932380D01*
X180534285Y-58884761D01*
X180486666Y-58837142D01*
%TO.C,C2*%
X171303333Y-107097142D02*
X171255714Y-107144761D01*
X171112857Y-107192380D01*
X171017619Y-107192380D01*
X170874761Y-107144761D01*
X170779523Y-107049523D01*
X170731904Y-106954285D01*
X170684285Y-106763809D01*
X170684285Y-106620952D01*
X170731904Y-106430476D01*
X170779523Y-106335238D01*
X170874761Y-106240000D01*
X171017619Y-106192380D01*
X171112857Y-106192380D01*
X171255714Y-106240000D01*
X171303333Y-106287619D01*
X171684285Y-106287619D02*
X171731904Y-106240000D01*
X171827142Y-106192380D01*
X172065238Y-106192380D01*
X172160476Y-106240000D01*
X172208095Y-106287619D01*
X172255714Y-106382857D01*
X172255714Y-106478095D01*
X172208095Y-106620952D01*
X171636666Y-107192380D01*
X172255714Y-107192380D01*
%TO.C,C1*%
X69663333Y-85507142D02*
X69615714Y-85554761D01*
X69472857Y-85602380D01*
X69377619Y-85602380D01*
X69234761Y-85554761D01*
X69139523Y-85459523D01*
X69091904Y-85364285D01*
X69044285Y-85173809D01*
X69044285Y-85030952D01*
X69091904Y-84840476D01*
X69139523Y-84745238D01*
X69234761Y-84650000D01*
X69377619Y-84602380D01*
X69472857Y-84602380D01*
X69615714Y-84650000D01*
X69663333Y-84697619D01*
X70615714Y-85602380D02*
X70044285Y-85602380D01*
X70330000Y-85602380D02*
X70330000Y-84602380D01*
X70234761Y-84745238D01*
X70139523Y-84840476D01*
X70044285Y-84888095D01*
%TD*%
M02*
