%TF.GenerationSoftware,KiCad,Pcbnew,(5.1.10)-1*%
%TF.CreationDate,2021-06-24T21:47:08-07:00*%
%TF.ProjectId,6502helper,36353032-6865-46c7-9065-722e6b696361,rev?*%
%TF.SameCoordinates,Original*%
%TF.FileFunction,Soldermask,Bot*%
%TF.FilePolarity,Negative*%
%FSLAX46Y46*%
G04 Gerber Fmt 4.6, Leading zero omitted, Abs format (unit mm)*
G04 Created by KiCad (PCBNEW (5.1.10)-1) date 2021-06-24 21:47:08*
%MOMM*%
%LPD*%
G01*
G04 APERTURE LIST*
%ADD10O,1.600000X1.600000*%
%ADD11R,1.600000X1.600000*%
%ADD12O,2.000000X1.440000*%
%ADD13R,2.000000X1.440000*%
%ADD14C,1.600000*%
%ADD15O,1.700000X1.700000*%
%ADD16R,1.700000X1.700000*%
%ADD17R,1.300000X1.300000*%
%ADD18C,1.300000*%
%ADD19C,2.000000*%
%ADD20O,1.350000X1.350000*%
%ADD21R,1.350000X1.350000*%
%ADD22C,3.000000*%
%ADD23R,3.000000X3.000000*%
G04 APERTURE END LIST*
D10*
%TO.C,U7*%
X114300000Y-91440000D03*
X162560000Y-106680000D03*
X116840000Y-91440000D03*
X160020000Y-106680000D03*
X119380000Y-91440000D03*
X157480000Y-106680000D03*
X121920000Y-91440000D03*
X154940000Y-106680000D03*
X124460000Y-91440000D03*
X152400000Y-106680000D03*
X127000000Y-91440000D03*
X149860000Y-106680000D03*
X129540000Y-91440000D03*
X147320000Y-106680000D03*
X132080000Y-91440000D03*
X144780000Y-106680000D03*
X134620000Y-91440000D03*
X142240000Y-106680000D03*
X137160000Y-91440000D03*
X139700000Y-106680000D03*
X139700000Y-91440000D03*
X137160000Y-106680000D03*
X142240000Y-91440000D03*
X134620000Y-106680000D03*
X144780000Y-91440000D03*
X132080000Y-106680000D03*
X147320000Y-91440000D03*
X129540000Y-106680000D03*
X149860000Y-91440000D03*
X127000000Y-106680000D03*
X152400000Y-91440000D03*
X124460000Y-106680000D03*
X154940000Y-91440000D03*
X121920000Y-106680000D03*
X157480000Y-91440000D03*
X119380000Y-106680000D03*
X160020000Y-91440000D03*
X116840000Y-106680000D03*
X162560000Y-91440000D03*
D11*
X114300000Y-106680000D03*
%TD*%
D12*
%TO.C,U3*%
X171400000Y-74420000D03*
X156160000Y-74420000D03*
X171400000Y-71880000D03*
X156160000Y-71880000D03*
X171400000Y-69340000D03*
X156160000Y-69340000D03*
X171400000Y-66800000D03*
X156160000Y-66800000D03*
X171400000Y-64260000D03*
X156160000Y-64260000D03*
X171400000Y-61720000D03*
X156160000Y-61720000D03*
X171400000Y-59180000D03*
X156160000Y-59180000D03*
X171400000Y-56640000D03*
X156160000Y-56640000D03*
X171400000Y-54100000D03*
X156160000Y-54100000D03*
X171400000Y-51560000D03*
X156160000Y-51560000D03*
X171400000Y-49020000D03*
X156160000Y-49020000D03*
X171400000Y-46480000D03*
X156160000Y-46480000D03*
X171400000Y-43940000D03*
X156160000Y-43940000D03*
X171400000Y-41400000D03*
D13*
X156160000Y-41400000D03*
%TD*%
D10*
%TO.C,R4*%
X95250000Y-97790000D03*
D14*
X85090000Y-97790000D03*
%TD*%
D10*
%TO.C,R3*%
X95250000Y-102870000D03*
D14*
X85090000Y-102870000D03*
%TD*%
D15*
%TO.C,J5*%
X163830000Y-111760000D03*
X161290000Y-111760000D03*
X158750000Y-111760000D03*
X156210000Y-111760000D03*
X153670000Y-111760000D03*
X151130000Y-111760000D03*
X148590000Y-111760000D03*
X146050000Y-111760000D03*
X143510000Y-111760000D03*
X140970000Y-111760000D03*
X138430000Y-111760000D03*
X135890000Y-111760000D03*
X133350000Y-111760000D03*
X130810000Y-111760000D03*
X128270000Y-111760000D03*
X125730000Y-111760000D03*
X123190000Y-111760000D03*
X120650000Y-111760000D03*
X118110000Y-111760000D03*
D16*
X115570000Y-111760000D03*
%TD*%
D14*
%TO.C,C4*%
X81240000Y-111760000D03*
D11*
X78740000Y-111760000D03*
%TD*%
D14*
%TO.C,X1*%
X185420000Y-96520000D03*
X177800000Y-96520000D03*
X177800000Y-111760000D03*
D11*
X185420000Y-111760000D03*
%TD*%
D10*
%TO.C,U6*%
X103070000Y-36320000D03*
X87830000Y-84580000D03*
X103070000Y-38860000D03*
X87830000Y-82040000D03*
X103070000Y-41400000D03*
X87830000Y-79500000D03*
X103070000Y-43940000D03*
X87830000Y-76960000D03*
X103070000Y-46480000D03*
X87830000Y-74420000D03*
X103070000Y-49020000D03*
X87830000Y-71880000D03*
X103070000Y-51560000D03*
X87830000Y-69340000D03*
X103070000Y-54100000D03*
X87830000Y-66800000D03*
X103070000Y-56640000D03*
X87830000Y-64260000D03*
X103070000Y-59180000D03*
X87830000Y-61720000D03*
X103070000Y-61720000D03*
X87830000Y-59180000D03*
X103070000Y-64260000D03*
X87830000Y-56640000D03*
X103070000Y-66800000D03*
X87830000Y-54100000D03*
X103070000Y-69340000D03*
X87830000Y-51560000D03*
X103070000Y-71880000D03*
X87830000Y-49020000D03*
X103070000Y-74420000D03*
X87830000Y-46480000D03*
X103070000Y-76960000D03*
X87830000Y-43940000D03*
X103070000Y-79500000D03*
X87830000Y-41400000D03*
X103070000Y-82040000D03*
X87830000Y-38860000D03*
X103070000Y-84580000D03*
D11*
X87830000Y-36320000D03*
%TD*%
D10*
%TO.C,U5*%
X143140000Y-37590000D03*
X135520000Y-70610000D03*
X143140000Y-40130000D03*
X135520000Y-68070000D03*
X143140000Y-42670000D03*
X135520000Y-65530000D03*
X143140000Y-45210000D03*
X135520000Y-62990000D03*
X143140000Y-47750000D03*
X135520000Y-60450000D03*
X143140000Y-50290000D03*
X135520000Y-57910000D03*
X143140000Y-52830000D03*
X135520000Y-55370000D03*
X143140000Y-55370000D03*
X135520000Y-52830000D03*
X143140000Y-57910000D03*
X135520000Y-50290000D03*
X143140000Y-60450000D03*
X135520000Y-47750000D03*
X143140000Y-62990000D03*
X135520000Y-45210000D03*
X143140000Y-65530000D03*
X135520000Y-42670000D03*
X143140000Y-68070000D03*
X135520000Y-40130000D03*
X143140000Y-70610000D03*
D11*
X135520000Y-37590000D03*
%TD*%
D17*
%TO.C,U4*%
X106680000Y-91440000D03*
D18*
X109220000Y-91440000D03*
X107950000Y-90170000D03*
%TD*%
D10*
%TO.C,U2*%
X185420000Y-40640000D03*
X177800000Y-55880000D03*
X185420000Y-43180000D03*
X177800000Y-53340000D03*
X185420000Y-45720000D03*
X177800000Y-50800000D03*
X185420000Y-48260000D03*
X177800000Y-48260000D03*
X185420000Y-50800000D03*
X177800000Y-45720000D03*
X185420000Y-53340000D03*
X177800000Y-43180000D03*
X185420000Y-55880000D03*
D11*
X177800000Y-40640000D03*
%TD*%
D10*
%TO.C,U1*%
X127550000Y-36320000D03*
X112310000Y-84580000D03*
X127550000Y-38860000D03*
X112310000Y-82040000D03*
X127550000Y-41400000D03*
X112310000Y-79500000D03*
X127550000Y-43940000D03*
X112310000Y-76960000D03*
X127550000Y-46480000D03*
X112310000Y-74420000D03*
X127550000Y-49020000D03*
X112310000Y-71880000D03*
X127550000Y-51560000D03*
X112310000Y-69340000D03*
X127550000Y-54100000D03*
X112310000Y-66800000D03*
X127550000Y-56640000D03*
X112310000Y-64260000D03*
X127550000Y-59180000D03*
X112310000Y-61720000D03*
X127550000Y-61720000D03*
X112310000Y-59180000D03*
X127550000Y-64260000D03*
X112310000Y-56640000D03*
X127550000Y-66800000D03*
X112310000Y-54100000D03*
X127550000Y-69340000D03*
X112310000Y-51560000D03*
X127550000Y-71880000D03*
X112310000Y-49020000D03*
X127550000Y-74420000D03*
X112310000Y-46480000D03*
X127550000Y-76960000D03*
X112310000Y-43940000D03*
X127550000Y-79500000D03*
X112310000Y-41400000D03*
X127550000Y-82040000D03*
X112310000Y-38860000D03*
X127550000Y-84580000D03*
D11*
X112310000Y-36320000D03*
%TD*%
D19*
%TO.C,SW1*%
X82700000Y-87630000D03*
X82700000Y-92130000D03*
X76200000Y-87630000D03*
X76200000Y-92130000D03*
%TD*%
D10*
%TO.C,R2*%
X95250000Y-107950000D03*
D14*
X85090000Y-107950000D03*
%TD*%
D10*
%TO.C,R1*%
X95250000Y-113030000D03*
D14*
X85090000Y-113030000D03*
%TD*%
D20*
%TO.C,J4*%
X102870000Y-112870000D03*
X102870000Y-110870000D03*
X102870000Y-108870000D03*
X102870000Y-106870000D03*
X102870000Y-104870000D03*
D21*
X102870000Y-102870000D03*
%TD*%
D22*
%TO.C,J3*%
X69850000Y-101600000D03*
D23*
X69850000Y-106680000D03*
%TD*%
D15*
%TO.C,J2*%
X68580000Y-57150000D03*
X71120000Y-57150000D03*
X68580000Y-54610000D03*
X71120000Y-54610000D03*
X68580000Y-52070000D03*
X71120000Y-52070000D03*
X68580000Y-49530000D03*
X71120000Y-49530000D03*
X68580000Y-46990000D03*
X71120000Y-46990000D03*
X68580000Y-44450000D03*
X71120000Y-44450000D03*
X68580000Y-41910000D03*
D16*
X71120000Y-41910000D03*
%TD*%
D15*
%TO.C,J1*%
X68580000Y-81280000D03*
X71120000Y-81280000D03*
X68580000Y-78740000D03*
X71120000Y-78740000D03*
X68580000Y-76200000D03*
X71120000Y-76200000D03*
X68580000Y-73660000D03*
X71120000Y-73660000D03*
X68580000Y-71120000D03*
X71120000Y-71120000D03*
X68580000Y-68580000D03*
X71120000Y-68580000D03*
X68580000Y-66040000D03*
D16*
X71120000Y-66040000D03*
%TD*%
D14*
%TO.C,C10*%
X184110000Y-33020000D03*
D11*
X181610000Y-33020000D03*
%TD*%
D14*
%TO.C,C9*%
X138390000Y-33020000D03*
D11*
X135890000Y-33020000D03*
%TD*%
D14*
%TO.C,C8*%
X77430000Y-62230000D03*
D11*
X74930000Y-62230000D03*
%TD*%
D14*
%TO.C,C7*%
X71080000Y-34290000D03*
D11*
X68580000Y-34290000D03*
%TD*%
D14*
%TO.C,C6*%
X115570000Y-31750000D03*
D11*
X113070000Y-31750000D03*
%TD*%
D14*
%TO.C,C5*%
X91400000Y-30480000D03*
D11*
X88900000Y-30480000D03*
%TD*%
D14*
%TO.C,C3*%
X181570000Y-62230000D03*
D11*
X179070000Y-62230000D03*
%TD*%
D14*
%TO.C,C2*%
X172720000Y-110490000D03*
D11*
X170220000Y-110490000D03*
%TD*%
D14*
%TO.C,C1*%
X71080000Y-88900000D03*
D11*
X68580000Y-88900000D03*
%TD*%
M02*
